<svg version="1.1" id="Слой_1" xmlns="http://www.w3.org/2000/svg" xmlns:xlink="http://www.w3.org/1999/xlink" x="0px" y="0px" width="1260px" height="211px" viewBox="0 0 1260 211" enable-background="new 0 0 1260 211" xml:space="preserve">
  <g>
    <g>
      <path fill="#63D1BB" d="M352.3,14.1c-0.4,2.1-0.4,4.2,0,6.3l4.1-3.2L352.3,14.1z"/>
      <path fill="#63D1BB" d="M376.4,1.6C371.6-0.6,366-0.5,361.1,2l7.5,5.6L376.4,1.6z"/>
      <path fill="#63D1BB" d="M385.9,13.2l-4.8,3.7l4.9,3.7C386.5,18.2,386.5,15.6,385.9,13.2z"/>
      <path fill="#63D1BB" d="M361.2,32.4c4.8,2.5,10.7,2.6,15.7,0.1l-8.1-6.1L361.2,32.4z"/>
      <path fill="#63D1BB" d="M359.9,14.4l-6.2-4.7c-0.3,0.7-0.6,1.4-0.8,2.1l5.3,4L359.9,14.4z"/>
      <path fill="#63D1BB" d="M370.6,25.1l8.3,6.2c0.3-0.2,0.6-0.4,0.8-0.6c0.3-0.2,0.6-0.5,0.9-0.8l-8.3-6.2L370.6,25.1z"/>
      <path fill="#63D1BB" d="M363.4,11.7L356,6.2c-0.5,0.6-0.9,1.1-1.3,1.7l6.9,5.2L363.4,11.7z"/>
      <path fill="#63D1BB" d="M374.1,22.4l8.1,6.1c0.5-0.5,0.9-1.1,1.3-1.7l-7.6-5.7L374.1,22.4z"/>
      <path fill="#63D1BB" d="M366.9,9l-7.7-5.8c-0.2,0.1-0.4,0.3-0.6,0.4c-0.4,0.3-0.8,0.6-1.1,1l7.7,5.7L366.9,9z"/>
      <path fill="#63D1BB" d="M377.6,19.6l7,5.2c0.3-0.7,0.6-1.3,0.9-2l-6.1-4.5L377.6,19.6z"/>
      <path fill="#63D1BB" d="M378.4,2.7l-25.6,19.9c0.2,0.7,0.5,1.4,0.8,2.1L380.2,4C379.7,3.5,379.1,3.1,378.4,2.7z"/>
      <path fill="#63D1BB" d="M382.7,6.6c-0.3-0.4-0.6-0.8-0.9-1.1l-27,21c0.3,0.4,0.5,0.8,0.8,1.2c0.1,0.2,0.3,0.4,0.4,0.5l27.1-21.1 C383,7,382.9,6.8,382.7,6.6z"/>
      <path fill="#63D1BB" d="M384.3,9l-26.7,20.8c0.5,0.5,1.1,1,1.7,1.4l26-20.2C385,10.3,384.7,9.6,384.3,9z"/>
    </g>
  </g>
  <g>
    <path fill="#63D1BB" d="M250,37.2c8.8,0,16-7.2,16-16C257.1,21.2,250,28.4,250,37.2z M238.6,16.3c0,2.5,2,4.4,4.4,4.4 c0.9,0,1.8-0.3,2.5-0.8v0.3c0,2.5,2,4.4,4.4,4.4s4.4-2,4.4-4.4v-0.3c0.7,0.5,1.6,0.8,2.5,0.8c2.5,0,4.4-2,4.4-4.4 c0-1.8-1-3.3-2.5-4c1.5-0.7,2.5-2.2,2.5-4c0-2.5-2-4.4-4.4-4.4c-0.9,0-1.8,0.3-2.5,0.8V4.4c0-2.5-2-4.4-4.4-4.4 c-2.5,0-4.4,2-4.4,4.4v0.3c-0.6-0.5-1.5-0.8-2.4-0.8c-2.5,0-4.4,2-4.4,4.4c0,1.8,1,3.3,2.5,4C239.7,13,238.6,14.6,238.6,16.3z M250,7.9c2.5,0,4.4,2,4.4,4.4s-2,4.4-4.4,4.4c-2.5,0-4.4-2-4.4-4.4C245.5,9.9,247.5,7.9,250,7.9z M234,21.2c0,8.8,7.2,16,16,16 C250,28.4,242.8,21.2,234,21.2z"/>
  </g>
  <g>
    <path fill="#63D1BB" d="M448.1,31.8h13v-14h-13V31.8z M476.1,8.8h-7.3c0.5-0.3,1-0.5,1.4-0.8c1.6-1.1,2.4-2.6,2.4-4 c0-1.2-0.6-2.2-1.4-2.9s-1.9-1.1-3-1.1c-1.2,0-2.4,0.4-3.3,1.1c-1.5,1-2.6,2.5-3.4,4.1c0,0.1-0.1,0.2-0.1,0.2 c-0.3-0.6-0.6-1.2-1-1.8c-0.7-1-1.5-1.9-2.5-2.5S455.8,0,454.6,0c-1.2,0-2.3,0.5-3.2,1.3c-0.8,0.8-1.4,1.9-1.4,3.1 c0,0.7,0.2,1.5,0.6,2.2c0.6,0.9,1.4,1.6,2.6,2.2h-6.6c-0.9,0-1.6,0.7-1.6,1.6v5.4h15v-7h3v7h15v-5.7c0-0.9-0.7-1.6-1.6-1.6 M453.9,6c-0.6-0.4-1-0.8-1.2-1.1c-0.2-0.4-0.3-0.7-0.3-1c0-0.5,0.2-1,0.7-1.5c0.4-0.4,1-0.7,1.6-0.7l0,0c0.7,0,1.4,0.2,2,0.7 c1,0.7,2,1.9,2.6,3.2c0.3,0.7,0.6,1.4,0.8,2.1C457.1,7.4,455.1,6.7,453.9,6 M464.4,4.4c0.6-0.8,1.2-1.5,1.9-1.9 c0.7-0.5,1.4-0.7,2-0.7l0,0c0.6,0,1.1,0.2,1.5,0.6c0.4,0.3,0.6,0.7,0.6,1.2s-0.3,1.3-1.5,2.1c-1.1,0.8-3.1,1.7-6.1,2.3 C463.1,6.7,463.7,5.4,464.4,4.4 M462.1,31.8h13v-14h-13V31.8z"/>
  </g>
  <g>
    <path fill="#63D1BB" d="M350,8.7c0-4.8-3.9-8.7-8.7-8.7c-3.4,0-6.3,2-7.8,4.8C332.1,2,329.1,0,325.7,0c-4.8,0-8.7,3.9-8.7,8.7 c0,9.1,14.7,19.1,16.5,19.1C335.4,27.9,350,17.9,350,8.7z"/>
  </g>
  <g>
    <path fill="#63D1BB" d="M311.1,0h-39.2c-2.2,0-3.9,1.7-3.9,3.9v19.2c0,2.2,1.7,3.9,3.9,3.9h39.2c2.2,0,3.9-1.7,3.9-3.9V3.9 C315,1.7,313.3,0,311.1,0z M271,24V2h40v22H271z"/>
    <path fill="#63D1BB" d="M275,20h32V6h-32V20z M291.5,8.1c2.9,0,5.3,2.4,5.3,5.3s-2.4,5.3-5.3,5.3s-5.3-2.4-5.3-5.3 C286.2,10.4,288.5,8.1,291.5,8.1z"/>
  </g>
  <g>
    <g>
      <path fill="#63D1BB" d="M428.7,5.7c-3.6-1-7.8-1.7-12.3-1.7c-2.9,0-5.4,0.2-7.6,0.6L402.1,0h-13l5.6,6h8.2 c-4.4,1.5-6.6,3.4-6.6,3.4v4.2c0,0,2.2,1.9,6.7,3.4h-8.4l-5.6,6h13l6.8-4.7c2.2,0.4,4.8,0.6,7.6,0.6c4.5,0,8.6-0.7,12.3-1.7 c-1.2-1.8-1.9-3.7-1.9-5.8C426.8,9.4,427.6,7.4,428.7,5.7z"/>
      <path fill="#63D1BB" d="M432.2,6.6c-1.3,1.6-2,3.2-2,4.8s0.7,3.2,2,4.8c6.4-2.2,10.4-4.8,10.4-4.8S438.7,8.8,432.2,6.6z"/>
    </g>
  </g>
  <g>
    <g>
      <g transform="translate(-755.000000, -443.000000)">
        <g>
          <path fill="#63D1BB" d="M1871.2,447v38.4l39.8-19.3L1871.2,447z M1864,524v-81h4.1v81H1864z"/>
        </g>
      </g>
    </g>
    <g>
      <rect x="1109" fill="#231F20" width="4.1" height="81"/>
    </g>
  </g>
  <g>
    <g>
      <path fill="#149080" d="M146.1,38.6c-0.3,1-0.3,2.2,0,3.7c0.5,2.7,1.7,6.2,2.4,9.9h5.2c0.7-3.7,2-7.2,2.5-9.9 c0.3-1.5,0.3-2.7,0-3.7c-0.3-0.9-0.9-1.7-2.1-2.4H148C146.9,36.9,146.3,37.7,146.1,38.6z"/>
      <path fill="#149080" d="M158,58.2h-13.8c-1.3,0.1-2.3,1.1-1.8,2.4v1.6h1.8H158h2.4v-1.6C160.3,59.3,159.3,58.4,158,58.2z"/>
      <path fill="#149080" d="M165.1,2.2h-11.7c0-1.2-1-2.2-2.3-2.2s-2.3,1-2.3,2.2h-11.7L131,27.7c0.8-0.5,1.6-1,2.6-1 c1.4,0,2.2,0.8,2.9,1.4s1.2,0.8,1.4,0.8c0.3,0,0.8-0.3,1.5-0.8s1.6-1.4,2.9-1.4s2.2,0.8,2.9,1.4c0.7,0.5,1.2,0.8,1.5,0.8 c0.1,0,0.3-0.1,0.6-0.2s0.5-0.4,0.9-0.6c0.5-0.4,1.1-1,2-1.2c0.3-0.1,0.6-0.1,0.9-0.1c1.3,0,2.2,0.8,2.9,1.4 c0.7,0.5,1.2,0.8,1.5,0.8s0.8-0.3,1.4-0.9c0.7-0.6,1.6-1.4,2.9-1.4c1.4,0,2.2,0.8,2.9,1.4c0.3,0.3,0.6,0.5,0.9,0.6 c0.2,0.1,0.4,0.2,0.6,0.2c0.3,0,0.8-0.3,1.4-0.9c0.7-0.6,1.6-1.4,2.9-1.4c1,0,1.8,0.5,2.6,1L165.1,2.2z"/>
      <path fill="#149080" d="M154.5,54.2h-6.9c-0.7-0.3-1.1,0.2-1.1,0.8s0.5,1.1,1.1,1.2h6.9c0.7-0.1,1.1-0.6,1.1-1.2 C155.7,54.4,155.2,53.9,154.5,54.2L154.5,54.2z"/>
      <path fill="#149080" d="M151.1,29.4c-0.1,0-0.3,0.1-0.6,0.2c-0.2,0.1-0.4,0.3-0.1,0.4v4.2h2V30C151.8,29.7,151.3,29.4,151.1,29.4z"/>
    </g>
  </g>
  <g>
    <polygon points="530,11 487.7,11 495.8,2.8 493,0 480,13 480,13 480,13 493,26 495.8,23.2 487.7,15 530,15"/>
  </g>
  <g>
    <path fill="#FFFFFF" d="M640.4,9.2c-12.9-12.3-33.8-12.3-46.7,0s-12.9,32.2,0,44.5c0,0,23.3,21.8,23.3,47c0-25.2,23.3-47,23.3-47 C653.3,41.5,653.3,21.5,640.4,9.2z"/>
    <path fill="#6BC6B3" d="M631.1,45.5c-0.6-3.3,0.1-6.9,0-10.3c-0.1-3.8-0.7-7.5-0.7-11.2c0-3,0.5-6.2-0.5-9.1c0.1-0.3,0.1-0.7,0.2-1 c0.3-1.5-4.6-0.7-5.3,0.6c-0.5,0.4-0.7,0.9-0.5,1.3c0.1,0.1,0.1,0.2,0.1,0.4c-0.9,4.5-2.2,8.8-3.7,13.2c-0.6,1.7-1.2,3.3-1.8,4.9 c-0.8-1.5-1.6-3.1-2.3-4.7c-1.9-4.8-3.7-9.7-6-14.3c0.3-2.1-4.5-1.9-5.4,0c-1.1,2.4-1,4.8-0.6,7.3c0.4,2.9,0.5,5.7,0.5,8.6 c0.1,5.6,0.5,11.1,0.6,16.7c-0.5,0.6-0.6,1.2-0.1,1.9c0.2,0.3,0.5,0.5,0.8,0.8c1.3,1,4.9,0.2,4.9-1.8c0-5.8-0.4-11.5-0.6-17.3 c0-0.6,0-1.1,0-1.7c0.1,0.2,0.2,0.4,0.2,0.6c0.9,2.2,1.8,4.4,3.1,6.5c1.2,2.1,1.8,4.3,2.5,6.5c-0.3,0.3-0.4,0.6-0.3,1 c-0.1,0.3,0.1,0.4,0.4,0.5c0.9,0.8,2.6,0.4,3.5,0c0.4-0.2,0.8-0.4,1.2-0.6c0.5-0.3,1.2-1,1-1.6c0-0.1-0.1-0.3-0.1-0.4 c0.7-1.8,1-3.6,1.4-5.5c0.4-2,1.1-3.9,1.8-5.8c0.1,0.9,0.1,1.7,0.2,2.6c0.3,3.6,0,7.1,0,10.7c0,1.2,0.1,2.3,0.3,3.4 c0.1,0.5,0.5,2.5,0.4,2.6c-0.9,0.8-0.6,1.8,0.5,2c1.3,0.3,2.9-0.1,3.9-1C632.3,49.9,631.5,47.5,631.1,45.5z"/>
  </g>
  <g>
    <polygon fill="#231F20" points="42.5,1.4 41.1,0 32.3,8.8 23.4,0 22,1.4 30.8,10.3 22,19.1 23.4,20.5 32.3,11.7 41.1,20.5 42.5,19.1 33.7,10.3"/>
  </g>
  <g>
    <rect fill="#231F20" width="20" height="2"/>
    <rect y="6" fill="#231F20" width="20" height="2"/>
    <rect y="12" fill="#231F20" width="20" height="2"/>
  </g>
  <g>
    <g>
      <g>
        <path fill="#63D1BB" d="M945.9,18.3c0,0-0.9-7-3.8-10.1c-3.6-4-7.7-4.1-9.5-4.3c-13.3-1-33.2-1-33.2-1h-0.1c0,0-19.9,0-33.2,1 c-1.9,0.2-5.9,0.3-9.5,4.3c-2.8,3.1-3.8,10.1-3.8,10.1s-0.9,8.2-0.9,16.4v7.7c0,8.2,0.9,16.4,0.9,16.4s0.9,7,3.8,10.1 c3.6,4,8.3,3.9,10.5,4.3c7.6,0.8,32.3,1,32.3,1s20,0,33.3-1c1.9-0.2,5.9-0.3,9.5-4.3c2.8-3.1,3.8-10.1,3.8-10.1s0.9-8.2,0.9-16.4 v-7.7C946.9,26.5,945.9,18.3,945.9,18.3z"/>
        <path fill="#FFFFFF" d="M899.4,76.9L899.4,76.9c-1,0-25-0.3-32.7-1h-0.1h-0.1c-0.3-0.1-0.7-0.1-1.1-0.2c-2.5-0.3-7.2-0.9-10.9-5 c-3.4-3.6-4.4-10.8-4.5-11.6l0,0c0-0.3-1-8.5-1-16.8v-7.7c0-8.3,0.9-16.4,0.9-16.7v-0.1c0.1-0.8,1.2-7.9,4.5-11.6 c4-4.4,8.6-4.9,10.7-5.1c0.2,0,0.4,0,0.5-0.1h0.1c13.3-1,33.4-1,33.6-1h0.1c0.2,0,20.3,0,33.6,1h0.1c0.2,0,0.3,0,0.5,0.1 c2.2,0.2,6.7,0.7,10.7,5.1c3.4,3.6,4.4,10.8,4.5,11.6l0,0c0,0.3,1,8.5,1,16.8v7.7c0,8.3-0.9,16.4-1,16.8v0.1 c-0.1,0.8-1.2,8-4.5,11.6c-4,4.4-8.6,4.9-10.7,5.1c-0.2,0-0.4,0-0.5,0.1H933C919.7,76.9,899.6,76.9,899.4,76.9L899.4,76.9 L899.4,76.9z M867.8,70.8c7.5,0.7,31.3,1,32.1,1c0.7,0,20.2,0,33.2-1c0.2,0,0.4,0,0.6-0.1c1.8-0.2,4.6-0.5,7.2-3.3l0,0 c1.8-2,2.9-6.9,3.1-8.6c0.1-0.5,0.9-8.4,0.9-16.1V35c0-7.8-0.9-15.6-1-16.1c-0.3-2.4-1.4-6.8-3.1-8.5l0,0 c-2.6-2.9-5.4-3.1-7.2-3.3c-0.2,0-0.4,0-0.6-0.1c-13.1-1-33-1-33.2-1h-0.1c-0.2,0-20,0-33.2,1c-0.2,0-0.4,0-0.6,0.1 c-1.8,0.2-4.6,0.5-7.2,3.3l0,0c-1.8,2-2.9,6.9-3.1,8.6c-0.1,0.6-0.9,8.4-0.9,16.1v7.7c0,7.7,0.9,15.6,0.9,16.1 c0.3,2.4,1.4,6.8,3.1,8.5l0,0c2.3,2.6,5.3,3,7.5,3.3C866.9,70.7,867.4,70.7,867.8,70.8z"/>
      </g>
    </g>
    <g>
      <polygon fill="#FFFFFF" points="887.9,20.8 887.9,56.5 917.6,38.6"/>
    </g>
  </g>
  <g>
    <polygon points="532,11 574.3,11 566.2,2.8 569,0 582,13 582,13 582,13 569,26 566.2,23.2 574.3,15 532,15"/>
  </g>
  <g>
    <polygon points="984.7,1.4 983.3,0 963.3,19.9 953.4,10 952,11.4 961.9,21.3 961.9,21.3 963.3,22.7 963.3,22.7 963.3,22.7 964.8,21.3 964.8,21.3"/>
  </g>
  <g>
    <path fill="#149080" d="M173,43.6l27,15.7v-23l-27-15.7V43.6z M224,12.4v1.7c0,1.8-3.4,3.3-7.5,3.3s-7.5-1.5-7.5-3.3V10h-0.7 c0,0,3.6,3.9,7.7,3.9c4.3,0,7.7-1.5,7.7-3.3s-3.5-3.3-7.7-3.3c-0.3,0-0.7,0-1,0l-5-2.9v3.1c0,1.8-3.4,3.3-7.7,3.3 c-2.7,0-5-0.6-6.4-1.5c-0.2-0.2-0.4-0.4-0.7-0.6c-0.4-0.4-0.6-0.8-0.1-1.2v-3l-5.2,2.8c-0.3,0-0.7,0-1.1,0c-4.3,0-7.7,1.5-7.7,3.3 s3.5,3.3,7.7,3.3c4.1,0,7.7-2.9,7.7-2.9H196v4.1c0,1.8-3.4,3.3-7.5,3.3s-7.5-1.5-7.5-3.3v-2.6l-6,3.5l27.7,16l27.5-16L224,12.4z M210,23c0,1.8-3.4,3.2-7.5,3.2S195,24.8,195,23v-4l0,0c0.3,1.7,3.5,3,7.5,3s7.2-1.3,7.5-3l0,0V23L210,23z M205,36.5v22.8l27-15.7 V20.9L205,36.5z M202.3,6.6c4.3,0,7.7-1.5,7.7-3.3S206.5,0,202.3,0c-4.3,0-7.7,1.5-7.7,3.3S198,6.6,202.3,6.6"/>
  </g>
  <g>
    <g transform="translate(0 192)">
      <path fill="#63D1BB" d="M841-182.2l6-4v16l-6-4V-182.2z M839-182v8c0,2.2-1.8,4-4,4h-16c-2.2,0-4-1.8-4-4v-8c0-2.2,1.8-4,4-4h9.9 c0-1.1,1-2.1,2.1-2.1v-1.9h-11c-0.6,0-1-0.4-1-1s0.4-1,1-1h12c0.5,0,1,0.4,1,1v2.9c1.1,0.1,2,1,2,2.1C837.2-186,839-184.2,839-182 z M827-182h-8v8h8V-182z M834.9-181c0-0.6-0.4-1-1-1h-4c-0.6,0-1,0.4-1,1s0.4,1,1,1h4C834.5-180,834.9-180.4,834.9-181z"/>
    </g>
  </g>
  <g>
    <polygon points="974,29 973.1,28 959.6,42 952.9,35 952,36 958.7,43 958.7,43 959.6,44 959.6,44 959.6,44 960.6,43 960.6,43"/>
  </g>
  <path fill="#FFFFFF" d="M1259.4,210H767.3H0v-12.9c9.6,0,9.6-9.1,19.2-9.1s9.6,9.1,19.2,9.1S48,188,57.6,188s9.6,9.1,19.2,9.1	S86.4,188,96,188s9.6,9.1,19.2,9.1s9.6-9.1,19.2-9.1s9.6,9.1,19.2,9.1c9.6,0,9.6-9.1,19.2-9.1c9.6,0,9.6,9.1,19.2,9.1	c9.6,0,9.6-9.1,19.2-9.1c9.6,0,9.6,9.1,19.2,9.1c9.6,0,9.6-9.1,19.2-9.1c9.6,0,9.6,9.1,19.2,9.1s9.6-9.1,19.2-9.1s9.6,9.1,19.2,9.1	s9.6-9.1,19.2-9.1s9.6,9.1,19.2,9.1s9.6-9.1,19.2-9.1s9.6,9.1,19.2,9.1s9.6-9.1,19.2-9.1s9.6,9.1,19.2,9.1s9.6-9.1,19.2-9.1	s9.6,9.1,19.2,9.1s9.6-9.1,19.2-9.1s9.6,9.1,19.2,9.1s9.6-9.1,19.2-9.1c9.6,0,9.6,9.1,19.2,9.1c9.6,0,9.6-9.1,19.2-9.1	c9.6,0,9.6,9.1,19.2,9.1s9.6-9.1,19.2-9.1c9.6,0,9.6,9.1,19.2,9.1c9.6,0,9.6-9.1,19.2-9.1s9.6,9.1,19.2,9.1c9.6,0,9.6-9.1,19.2-9.1	c9.6,0,9.6,9.1,19.2,9.1s9.6-9.1,19.2-9.1c9.6,0,9.6,9.1,19.2,9.1s9.6-9.1,19.2-9.1s9.6,9.1,19.3,9.1c9.6,0,9.6-9.1,19.2-9.1	s9.6,9.1,19.2,9.1s9.6-9.1,19.2-9.1c9.6,0,9.6,9.1,19.2,9.1s9.6-9.1,19.2-9.1s9.6,9.1,19.2,9.1c9.6,0,9.6-9.1,19.2-9.1	s9.6,9.1,19.2,9.1s9.6-9.1,19.2-9.1s9.6,9.1,19.2,9.1s9.6-9.1,19.2-9.1s9.6,9.1,19.2,9.1s9.6-9.1,19.2-9.1c9.6,0,9.6,9.1,19.2,9.1	s9.6-9.1,19.2-9.1s9.6,9.1,19.2,9.1s9.6-9.1,19.2-9.1s9.6,9.1,19.2,9.1s9.6-9.1,19.2-9.1s9.6,9.1,19.2,9.1s9.6-9.1,19.2-9.1	s9.6,9.1,19.2,9.1s9.6-9.1,19.2-9.1s9.6,9.1,19.2,9.1s9.6-9.1,19.2-9.1c6.7,0,8.7,4.4,12.5,7.1V210H1259.4z"/>
  <path fill="#F1F1F1" d="M1260,103.5"/>
  <path fill="#F1F1F1" d="M1155,133.7c-3.6,0-5.1,1.5-7.5,3.8c-2.6,2.5-5.6,5.5-11.8,5.5c-6.2,0-9.2-3-11.8-5.5	c-2.3-2.3-3.9-3.8-7.4-3.8c-3.6,0-5.1,1.5-7.5,3.8c-2.6,2.5-5.6,5.5-11.8,5.5c-6.2,0-9.2-3-11.8-5.5c-2.3-2.3-3.9-3.8-7.4-3.8	c-3.6,0-5.1,1.5-7.5,3.8c-2.6,2.5-5.6,5.5-11.8,5.5c-6.2,0-9.2-3-11.8-5.5c-2.3-2.3-3.9-3.8-7.4-3.8c-3.6,0-5.1,1.5-7.5,3.8	c-2.6,2.5-5.6,5.5-11.8,5.5s-9.2-3-11.8-5.5c-2.3-2.3-3.9-3.8-7.4-3.8c-3.6,0-5.1,1.5-7.5,3.8c-2.6,2.5-5.6,5.5-11.8,5.5	s-9.2-3-11.8-5.5c-2.3-2.3-3.9-3.8-7.4-3.8c-3.6,0-5.1,1.5-7.5,3.8c-2.6,2.5-5.6,5.5-11.8,5.5s-9.2-3-11.8-5.5	c-2.3-2.3-3.9-3.8-7.4-3.8c-3.6,0-5.1,1.5-7.5,3.8c-2.6,2.5-5.6,5.5-11.8,5.5s-9.2-3-11.8-5.5c-2.3-2.3-3.9-3.8-7.4-3.8	c-3.6,0-5.1,1.5-7.5,3.8c-2.6,2.5-5.6,5.5-11.8,5.5s-9.2-3-11.8-5.5c-2.3-2.3-3.9-3.8-7.4-3.8c-3.6,0-5.1,1.5-7.5,3.8	c-2.6,2.5-5.6,5.5-11.8,5.5s-9.2-3-11.8-5.5c-2.3-2.3-3.9-3.8-7.4-3.8c-3.6,0-5.1,1.5-7.5,3.8c-2.6,2.5-5.6,5.5-11.8,5.5	s-9.2-3-11.8-5.5c-2.3-2.3-3.9-3.8-7.4-3.8c-3.6,0-5.1,1.5-7.5,3.8c-2.6,2.5-5.6,5.5-11.8,5.5s-9.2-3-11.8-5.5	c-2.3-2.3-3.9-3.8-7.4-3.8c-3.6,0-5.1,1.5-7.5,3.8c-2.6,2.5-5.6,5.5-11.8,5.5s-9.2-3-11.8-5.5c-2.3-2.3-3.9-3.8-7.4-3.8	c-3.6,0-5.1,1.5-7.5,3.8c-2.6,2.5-5.6,5.5-11.8,5.5s-9.2-3-11.8-5.5c-2.3-2.3-3.9-3.8-7.4-3.8c-3.6,0-5.1,1.5-7.5,3.8	c-2.6,2.5-5.6,5.5-11.8,5.5s-9.2-3-11.8-5.5c-2.3-2.3-3.9-3.8-7.4-3.8c-3.6,0-5.1,1.5-7.5,3.8c-2.6,2.5-5.6,5.5-11.8,5.5	s-9.2-3-11.8-5.5c-2.3-2.3-3.9-3.8-7.4-3.8c-3.6,0-5.1,1.5-7.5,3.8c-2.6,2.5-5.6,5.5-11.8,5.5s-9.2-3-11.8-5.5	c-2.3-2.3-3.9-3.8-7.4-3.8c-3.6,0-5.1,1.5-7.5,3.8c-2.6,2.5-5.6,5.5-11.8,5.5s-9.2-3-11.8-5.5c-2.3-2.3-3.9-3.8-7.4-3.8	c-3.6,0-5.1,1.5-7.5,3.8c-2.6,2.5-5.6,5.5-11.8,5.5c-6.2,0-9.2-3-11.8-5.5c-2.3-2.3-3.9-3.8-7.4-3.8c-3.6,0-5.1,1.5-7.5,3.8	c-2.6,2.5-5.6,5.5-11.8,5.5c-6.2,0-9.2-3-11.8-5.5c-2.3-2.3-3.9-3.8-7.4-3.8c-3.6,0-5.1,1.5-7.5,3.8c-2.6,2.5-5.6,5.5-11.8,5.5	c-6.2,0-9.2-3-11.8-5.5c-2.3-2.3-3.9-3.8-7.4-3.8c-3.6,0-5.1,1.5-7.5,3.8c-2.6,2.5-5.6,5.5-11.8,5.5c-6.2,0-9.2-3-11.8-5.5	c-2.3-2.3-3.9-3.8-7.4-3.8c-3.6,0-5.1,1.5-7.5,3.8c-2.6,2.5-5.6,5.5-11.8,5.5c-6.2,0-9.2-3-11.8-5.5c-2.3-2.3-3.9-3.8-7.4-3.8	c-3.6,0-5.1,1.5-7.5,3.8c-2.6,2.5-5.6,5.5-11.8,5.5s-9.2-3-11.8-5.5c-2.3-2.3-3.9-3.8-7.4-3.8c-3.6,0-5.1,1.5-7.5,3.8	c-2.6,2.5-5.6,5.5-11.8,5.5s-9.2-3-11.8-5.5c-2.3-2.3-3.9-3.8-7.4-3.8c-3.6,0-5.1,1.5-7.5,3.8c-2.6,2.5-5.6,5.5-11.8,5.5	s-9.2-3-11.8-5.5c-2.3-2.3-3.9-3.8-7.4-3.8c-3.6,0-5.1,1.5-7.5,3.8c-2.6,2.5-5.6,5.5-11.8,5.5s-9.2-3-11.8-5.5	c-2.3-2.3-3.9-3.8-7.4-3.8c-3.6,0-5.1,1.5-7.5,3.8c-2.6,2.5-5.6,5.5-11.8,5.5s-9.2-3-11.8-5.5c-2.3-2.3-3.9-3.8-7.4-3.8	c-3.6,0-5.1,1.5-7.5,3.8c-2.6,2.5-5.6,5.5-11.8,5.5s-9.2-3-11.8-5.5c-2.3-2.3-3.9-3.8-7.4-3.8c-3.6,0-5.1,1.5-7.5,3.8	c-2.6,2.5-5.6,5.5-11.8,5.5s-9.2-3-11.8-5.5c-2.3-2.3-3.9-3.8-7.4-3.8c-3.6,0-5.1,1.5-7.5,3.8c-2.6,2.5-5.6,5.5-11.8,5.5	s-9.2-3-11.8-5.5c-2.3-2.3-3.9-3.8-7.4-3.8V128c6.2,0,9.2,3,11.8,5.5c2.4,2.3,3.9,3.8,7.5,3.8s5.1-1.5,7.4-3.8	c2.6-2.5,5.6-5.5,11.8-5.5s9.2,3,11.8,5.5c2.4,2.3,3.9,3.8,7.5,3.8s5.1-1.5,7.4-3.8c2.6-2.5,5.6-5.5,11.8-5.5s9.2,3,11.8,5.5	c2.4,2.3,3.9,3.8,7.5,3.8s5.1-1.5,7.4-3.8c2.6-2.5,5.6-5.5,11.8-5.5s9.2,3,11.8,5.5c2.4,2.3,3.9,3.8,7.5,3.8c3.6,0,5.1-1.5,7.4-3.8	c2.6-2.5,5.6-5.5,11.8-5.5s9.2,3,11.8,5.5c2.4,2.3,3.9,3.8,7.5,3.8s5.1-1.5,7.4-3.8c2.6-2.5,5.6-5.5,11.8-5.5s9.2,3,11.8,5.5	c2.4,2.3,3.9,3.8,7.5,3.8s5.1-1.5,7.4-3.8c2.6-2.5,5.6-5.5,11.8-5.5s9.2,3,11.8,5.5c2.4,2.3,3.9,3.8,7.5,3.8s5.1-1.5,7.4-3.8	c2.6-2.5,5.6-5.5,11.8-5.5c6.2,0,9.2,3,11.8,5.5c2.4,2.3,3.9,3.8,7.5,3.8s5.1-1.5,7.4-3.8c2.6-2.5,5.6-5.5,11.8-5.5	c6.2,0,9.2,3,11.8,5.5c2.3,2.3,3.9,3.8,7.4,3.8c3.6,0,5.1-1.5,7.5-3.8c2.6-2.5,5.6-5.5,11.8-5.5c6.2,0,9.2,3,11.8,5.5	c2.3,2.3,3.9,3.8,7.4,3.8c3.6,0,5.1-1.5,7.5-3.8c2.6-2.5,5.6-5.5,11.8-5.5c6.2,0,9.2,3,11.8,5.5c2.3,2.3,3.9,3.8,7.4,3.8	c3.6,0,5.1-1.5,7.5-3.8c2.6-2.5,5.6-5.5,11.8-5.5c6.2,0,9.2,3,11.8,5.5c2.3,2.3,3.9,3.8,7.4,3.8c3.6,0,5.1-1.5,7.5-3.8	c2.6-2.5,5.6-5.5,11.8-5.5c6.2,0,9.2,3,11.8,5.5c2.3,2.3,3.9,3.8,7.4,3.8c3.6,0,5.1-1.5,7.5-3.8c2.6-2.5,5.6-5.5,11.8-5.5	c6.2,0,9.2,3,11.8,5.5c2.3,2.3,3.9,3.8,7.4,3.8c3.6,0,5.1-1.5,7.5-3.8c2.6-2.5,5.6-5.5,11.8-5.5s9.2,3,11.8,5.5	c2.3,2.3,3.9,3.8,7.4,3.8c3.6,0,5.1-1.5,7.5-3.8c2.6-2.5,5.6-5.5,11.8-5.5s9.2,3,11.8,5.5c2.3,2.3,3.9,3.8,7.4,3.8	c3.6,0,5.1-1.5,7.5-3.8c2.6-2.5,5.6-5.5,11.8-5.5s9.2,3,11.8,5.5c2.3,2.3,3.9,3.8,7.4,3.8c3.6,0,5.1-1.5,7.5-3.8	c2.6-2.5,5.6-5.5,11.8-5.5s9.2,3,11.8,5.5c2.4,2.3,3.9,3.8,7.5,3.8s5.1-1.5,7.4-3.8c2.6-2.5,5.6-5.5,11.8-5.5s9.2,3,11.8,5.5	c2.4,2.3,3.9,3.8,7.5,3.8s5.1-1.5,7.4-3.8c2.6-2.5,5.6-5.5,11.8-5.5s9.2,3,11.8,5.5c2.4,2.3,3.9,3.8,7.5,3.8s5.1-1.5,7.4-3.8	c2.6-2.5,5.6-5.5,11.8-5.5s9.2,3,11.8,5.5c2.4,2.3,3.9,3.8,7.5,3.8s5.1-1.5,7.4-3.8c2.6-2.5,5.6-5.5,11.8-5.5s9.2,3,11.8,5.5	c2.4,2.3,3.9,3.8,7.5,3.8s5.1-1.5,7.4-3.8c2.6-2.5,5.6-5.5,11.8-5.5s9.2,3,11.8,5.5c2.4,2.3,3.9,3.8,7.5,3.8s5.1-1.5,7.4-3.8	c2.6-2.5,5.6-5.5,11.8-5.5s9.2,3,11.8,5.5c2.4,2.3,3.9,3.8,7.5,3.8s5.1-1.5,7.4-3.8c2.6-2.5,5.6-5.5,11.8-5.5s9.2,3,11.8,5.5	c2.4,2.3,3.9,3.8,7.5,3.8s5.1-1.5,7.4-3.8c2.6-2.5,5.6-5.5,11.8-5.5s9.2,3,11.8,5.5c2.4,2.3,3.9,3.8,7.5,3.8s5.1-1.5,7.4-3.8	c2.6-2.5,5.6-5.5,11.8-5.5s9.2,3,11.8,5.5c2.4,2.3,3.9,3.8,7.5,3.8s5.1-1.5,7.4-3.8c2.6-2.5,5.6-5.5,11.8-5.5c6.2,0,9.2,3,11.8,5.5	c2.4,2.3,3.9,3.8,7.5,3.8s5.1-1.5,7.4-3.8c2.6-2.5,5.6-5.5,11.8-5.5c6.2,0,9.2,3,11.8,5.5c2.4,2.3,3.9,3.8,7.5,3.8s5.1-1.5,7.4-3.8	c2.6-2.5,5.6-5.5,11.8-5.5c6.2,0,9.2,3,11.8,5.5c2.4,2.3,3.9,3.8,7.5,3.8s5.1-1.5,7.4-3.8c2.6-2.5,5.6-5.5,11.8-5.5V133.7z"/>
  <path fill="#F1F1F1" d="M1143.5,124.2c-2.3,1.1-4.9,1.8-8.3,1.8c-8.4,0-12.7-4.6-16.2-8.4c-3.2-3.5-5.3-5.8-10.2-5.8	c-4.9,0-7.1,2.3-10.2,5.8c-3.5,3.8-7.7,8.4-16.2,8.4s-12.7-4.6-16.2-8.4c-3.2-3.5-5.3-5.8-10.2-5.8c-4.9,0-7.1,2.3-10.2,5.8	c-3.5,3.8-7.7,8.4-16.2,8.4s-12.7-4.6-16.2-8.4c-3.2-3.5-5.3-5.8-10.2-5.8s-7.1,2.3-10.2,5.8c-3.5,3.8-7.7,8.4-16.2,8.4	c-8.4,0-12.7-4.6-16.2-8.4c-3.2-3.5-5.3-5.8-10.2-5.8s-7.1,2.3-10.2,5.8c-3.5,3.8-7.7,8.4-16.2,8.4c-8.4,0-12.7-4.6-16.2-8.4	c-3.2-3.5-5.3-5.8-10.2-5.8s-7.1,2.3-10.2,5.8c-3.5,3.8-7.7,8.4-16.2,8.4c-8.4,0-12.7-4.6-16.2-8.4c-3.2-3.5-5.3-5.8-10.2-5.8	s-7.1,2.3-10.2,5.8c-3.5,3.8-7.7,8.4-16.2,8.4c-8.4,0-12.7-4.6-16.2-8.4c-3.2-3.5-5.3-5.8-10.2-5.8s-7.1,2.3-10.2,5.8	c-3.5,3.8-7.7,8.4-16.2,8.4c-8.4,0-12.7-4.6-16.2-8.4c-3.2-3.5-5.3-5.8-10.2-5.8s-7.1,2.3-10.2,5.8c-3.5,3.8-7.7,8.4-16.2,8.4	c-8.4,0-12.7-4.6-16.2-8.4c-3.2-3.5-5.3-5.8-10.2-5.8s-7.1,2.3-10.2,5.8c-3.5,3.8-7.7,8.4-16.2,8.4c-8.4,0-12.7-4.6-16.2-8.4	c-3.2-3.5-5.3-5.8-10.2-5.8s-7.1,2.3-10.2,5.8c-3.5,3.8-7.7,8.4-16.2,8.4c-8.4,0-12.7-4.6-16.2-8.4c-3.2-3.5-5.3-5.8-10.2-5.8	s-7.1,2.3-10.2,5.8c-3.5,3.8-7.7,8.4-16.2,8.4c-8.4,0-12.7-4.6-16.2-8.4c-3.2-3.5-5.3-5.8-10.2-5.8s-7.1,2.3-10.2,5.8	c-3.5,3.8-7.7,8.4-16.2,8.4s-12.7-4.6-16.2-8.4c-3.2-3.5-5.3-5.8-10.2-5.8s-7.1,2.3-10.2,5.8c-3.5,3.8-7.7,8.4-16.2,8.4	s-12.7-4.6-16.2-8.4c-3.2-3.5-5.3-5.8-10.2-5.8c-4.9,0-7.1,2.3-10.2,5.8c-3.5,3.8-7.7,8.4-16.2,8.4s-12.7-4.6-16.2-8.4	c-3.2-3.5-5.3-5.8-10.2-5.8c-4.9,0-7.1,2.3-10.2,5.8c-3.5,3.8-7.7,8.4-16.2,8.4s-12.7-4.6-16.2-8.4c-3.2-3.5-5.3-5.8-10.2-5.8	c-4.9,0-7.1,2.3-10.2,5.8c-3.5,3.8-7.7,8.4-16.2,8.4s-12.7-4.6-16.2-8.4c-3.2-3.5-5.3-5.8-10.2-5.8c-4.9,0-7.1,2.3-10.2,5.8	c-3.5,3.8-7.7,8.4-16.2,8.4c-8.4,0-12.7-4.6-16.2-8.4c-3.2-3.5-5.3-5.8-10.2-5.8s-7.1,2.3-10.2,5.8c-3.5,3.8-7.7,8.4-16.2,8.4	s-12.7-4.6-16.2-8.4c-3.2-3.5-5.3-5.8-10.2-5.8s-7.1,2.3-10.2,5.8c-3.5,3.8-7.7,8.4-16.2,8.4s-12.7-4.6-16.2-8.4	c-3.2-3.5-5.3-5.8-10.2-5.8c-4.9,0-7.1,2.3-10.2,5.8c-3.5,3.8-7.7,8.4-16.2,8.4s-12.7-4.6-16.2-8.4c-3.2-3.5-5.3-5.8-10.2-5.8	s-7.1,2.3-10.2,5.8c-3.5,3.8-7.7,8.4-16.2,8.4s-12.7-4.6-16.2-8.4c-3.2-3.5-5.3-5.8-10.2-5.8V103c8.4,0,12.7,4.6,16.2,8.4	c3.2,3.5,5.3,5.8,10.2,5.8s7.1-2.3,10.2-5.8c3.5-3.8,7.7-8.4,16.2-8.4s12.7,4.6,16.2,8.4c3.2,3.5,5.3,5.8,10.2,5.8	c4.9,0,7.1-2.3,10.2-5.8c3.5-3.8,7.7-8.4,16.2-8.4s12.7,4.6,16.2,8.4c3.2,3.5,5.3,5.8,10.2,5.8s7.1-2.3,10.2-5.8	c3.5-3.8,7.7-8.4,16.2-8.4s12.7,4.6,16.2,8.4c3.2,3.5,5.3,5.8,10.2,5.8s7.1-2.3,10.2-5.8c3.5-3.8,7.7-8.4,16.2-8.4	s12.7,4.6,16.2,8.4c3.2,3.5,5.3,5.8,10.2,5.8s7.1-2.3,10.2-5.8c3.5-3.8,7.7-8.4,16.2-8.4c8.4,0,12.7,4.6,16.2,8.4	c3.2,3.5,5.3,5.8,10.2,5.8c4.9,0,7.1-2.3,10.2-5.8c3.5-3.8,7.7-8.4,16.2-8.4s12.7,4.6,16.2,8.4c3.2,3.5,5.3,5.8,10.2,5.8	s7.1-2.3,10.2-5.8c3.5-3.8,7.7-8.4,16.2-8.4s12.7,4.6,16.2,8.4c3.2,3.5,5.3,5.8,10.2,5.8c4.9,0,7.1-2.3,10.2-5.8	c3.5-3.8,7.7-8.4,16.2-8.4s12.7,4.6,16.2,8.4c3.2,3.5,5.3,5.8,10.2,5.8c4.9,0,7.1-2.3,10.2-5.8c3.5-3.8,7.7-8.4,16.2-8.4	s12.7,4.6,16.2,8.4c3.2,3.5,5.3,5.8,10.2,5.8c4.9,0,7.1-2.3,10.2-5.8c3.5-3.8,7.7-8.4,16.2-8.4c8.4,0,12.7,4.6,16.2,8.4	c3.2,3.5,5.3,5.8,10.2,5.8s7.1-2.3,10.2-5.8c3.5-3.8,7.7-8.4,16.2-8.4c8.4,0,12.7,4.6,16.2,8.4c3.2,3.5,5.3,5.8,10.2,5.8	s7.1-2.3,10.2-5.8c3.5-3.8,7.7-8.4,16.2-8.4c8.4,0,12.7,4.6,16.2,8.4c3.2,3.5,5.3,5.8,10.2,5.8s7.1-2.3,10.2-5.8	c3.5-3.8,7.7-8.4,16.2-8.4c8.4,0,12.7,4.6,16.2,8.4c3.2,3.5,5.3,5.8,10.2,5.8s7.1-2.3,10.2-5.8c3.5-3.8,7.7-8.4,16.2-8.4	c8.4,0,12.7,4.6,16.2,8.4c3.2,3.5,5.3,5.8,10.2,5.8s7.1-2.3,10.2-5.8c3.5-3.8,7.7-8.4,16.2-8.4c8.4,0,12.7,4.6,16.2,8.4	c3.2,3.5,5.3,5.8,10.2,5.8s7.1-2.3,10.2-5.8c3.5-3.8,7.7-8.4,16.2-8.4c8.4,0,12.7,4.6,16.2,8.4c3.2,3.5,5.3,5.8,10.2,5.8	s7.1-2.3,10.2-5.8c3.5-3.8,7.7-8.4,16.2-8.4c8.4,0,12.7,4.6,16.2,8.4c3.2,3.5,5.3,5.8,10.2,5.8s7.1-2.3,10.2-5.8	c3.5-3.8,7.7-8.4,16.2-8.4s12.7,4.6,16.2,8.4c3.2,3.5,5.3,5.8,10.2,5.8s7.1-2.3,10.2-5.8c3.5-3.8,7.7-8.4,16.2-8.4	c8.4,0,12.7,4.6,16.2,8.4c3.2,3.5,5.3,5.8,10.2,5.8s7.1-2.3,10.2-5.8c3.5-3.8,7.7-8.4,16.2-8.4s12.7,4.6,16.2,8.4	c3.2,3.5,5.3,5.8,10.2,5.8s7.1-2.3,10.2-5.8c3.5-3.8,7.7-8.4,16.2-8.4c8.4,0,12.7,4.6,16.2,8.4c3.2,3.5,5.3,5.8,10.2,5.8	c3.8,0,6-1.4,8.3-3.7V124.2z"/>
  <path fill="#F1F1F1" d="M784,147.3c-1.5,0-2.1,0.6-3.1,1.5c-1.1,1-2.3,2.2-4.9,2.2s-3.8-1.2-4.9-2.2c-0.9-0.9-1.6-1.5-3.1-1.5	s-2.1,0.6-3.1,1.5c-1.1,1-2.3,2.2-4.9,2.2c-2.6,0-3.8-1.2-4.9-2.2c-0.9-0.9-1.6-1.5-3.1-1.5s-2.1,0.6-3.1,1.5	c-1.1,1-2.3,2.2-4.9,2.2s-3.8-1.2-4.9-2.2c-0.9-0.9-1.6-1.5-3.1-1.5s-2.1,0.6-3.1,1.5c-1.1,1-2.3,2.2-4.9,2.2s-3.8-1.2-4.9-2.2	c-0.9-0.9-1.6-1.5-3.1-1.5s-2.1,0.6-3.1,1.5c-1.1,1-2.3,2.2-4.9,2.2c-2.6,0-3.8-1.2-4.9-2.2c-0.9-0.9-1.6-1.5-3.1-1.5	s-2.1,0.6-3.1,1.5c-1.1,1-2.3,2.2-4.9,2.2s-3.8-1.2-4.9-2.2c-0.9-0.9-1.6-1.5-3.1-1.5s-2.1,0.6-3.1,1.5c-1.1,1-2.3,2.2-4.9,2.2	s-3.8-1.2-4.9-2.2c-0.9-0.9-1.6-1.5-3.1-1.5s-2.1,0.6-3.1,1.5c-1.1,1-2.3,2.2-4.9,2.2s-3.8-1.2-4.9-2.2c-0.9-0.9-1.6-1.5-3.1-1.5	s-2.1,0.6-3.1,1.5c-1.1,1-2.3,2.2-4.9,2.2s-3.8-1.2-4.9-2.2c-0.9-0.9-1.6-1.5-3.1-1.5s-2.1,0.6-3.1,1.5c-1.1,1-2.3,2.2-4.9,2.2	c-2.6,0-3.8-1.2-4.9-2.2c-0.9-0.9-1.6-1.5-3.1-1.5s-2.1,0.6-3.1,1.5c-1.1,1-2.3,2.2-4.9,2.2s-3.8-1.2-4.9-2.2	c-0.9-0.9-1.6-1.5-3.1-1.5s-2.1,0.6-3.1,1.5c-1.1,1-2.3,2.2-4.9,2.2s-3.8-1.2-4.9-2.2c-0.9-0.9-1.6-1.5-3.1-1.5s-2.1,0.6-3.1,1.5	c-1.1,1-2.3,2.2-4.9,2.2c-2.6,0-3.8-1.2-4.9-2.2c-0.9-0.9-1.6-1.5-3.1-1.5s-2.1,0.6-3.1,1.5c-1.1,1-2.3,2.2-4.9,2.2	s-3.8-1.2-4.9-2.2c-0.9-0.9-1.6-1.5-3.1-1.5s-2.1,0.6-3.1,1.5c-1.1,1-2.3,2.2-4.9,2.2s-3.8-1.2-4.9-2.2c-0.9-0.9-1.6-1.5-3.1-1.5	s-2.1,0.6-3.1,1.5c-1.1,1-2.3,2.2-4.9,2.2l0,0l0,0l0,0l0,0c-2.6,0-3.8-1.2-4.9-2.2c-0.9-0.9-1.6-1.5-3.1-1.5s-2.1,0.6-3.1,1.5	c-1.1,1-2.3,2.2-4.9,2.2s-3.8-1.2-4.9-2.2c-0.9-0.9-1.6-1.5-3.1-1.5s-2.1,0.6-3.1,1.5c-1.1,1-2.3,2.2-4.9,2.2s-3.8-1.2-4.9-2.2	c-0.9-0.9-1.6-1.5-3.1-1.5s-2.1,0.6-3.1,1.5c-1.1,1-2.3,2.2-4.9,2.2s-3.8-1.2-4.9-2.2c-0.9-0.9-1.6-1.5-3.1-1.5s-2.1,0.6-3.1,1.5	c-1.1,1-2.3,2.2-4.9,2.2s-3.8-1.2-4.9-2.2c-0.9-0.9-1.6-1.5-3.1-1.5s-2.1,0.6-3.1,1.5c-1.1,1-2.3,2.2-4.9,2.2s-3.8-1.2-4.9-2.2	c-0.9-0.9-1.6-1.5-3.1-1.5s-2.1,0.6-3.1,1.5c-1.1,1-2.3,2.2-4.9,2.2s-3.8-1.2-4.9-2.2c-0.9-0.9-1.6-1.5-3.1-1.5s-2.1,0.6-3.1,1.5	c-1.1,1-2.3,2.2-4.9,2.2s-3.8-1.2-4.9-2.2c-0.9-0.9-1.6-1.5-3.1-1.5s-2.1,0.6-3.1,1.5c-1.1,1-2.3,2.2-4.9,2.2s-3.8-1.2-4.9-2.2	c-0.9-0.9-1.6-1.5-3.1-1.5s-2.1,0.6-3.1,1.5c-1.1,1-2.3,2.2-4.9,2.2s-3.8-1.2-4.9-2.2c-0.9-0.9-1.6-1.5-3.1-1.5s-2.1,0.6-3.1,1.5	c-1.1,1-2.3,2.2-4.9,2.2s-3.8-1.2-4.9-2.2c-0.9-0.9-1.6-1.5-3.1-1.5s-2.1,0.6-3.1,1.5c-1.1,1-2.3,2.2-4.9,2.2s-3.8-1.2-4.9-2.2	c-0.9-0.9-1.6-1.5-3.1-1.5s-2.1,0.6-3.1,1.5c-1.1,1-2.3,2.2-4.9,2.2s-3.8-1.2-4.9-2.2c-0.9-0.9-1.6-1.5-3.1-1.5s-2.1,0.6-3.1,1.5	c-1.1,1-2.3,2.2-4.9,2.2s-3.8-1.2-4.9-2.2c-0.9-0.9-1.6-1.5-3.1-1.5s-2.1,0.6-3.1,1.5c-1.1,1-2.3,2.2-4.9,2.2s-3.8-1.2-4.9-2.2	c-0.9-0.9-1.6-1.5-3.1-1.5s-2.1,0.6-3.1,1.5c-1.1,1-2.3,2.2-4.9,2.2s-3.8-1.2-4.9-2.2c-0.9-0.9-1.6-1.5-3.1-1.5s-2.1,0.6-3.1,1.5	c-1.1,1-2.3,2.2-4.9,2.2s-3.8-1.2-4.9-2.2c-0.9-0.9-1.6-1.5-3.1-1.5s-2.1,0.6-3.1,1.5c-1.1,1-2.3,2.2-4.9,2.2s-3.8-1.2-4.9-2.2	c-0.9-0.9-1.6-1.5-3.1-1.5s-2.1,0.6-3.1,1.5c-1.1,1-2.3,2.2-4.9,2.2c-2.6,0-3.8-1.2-4.9-2.2c-0.9-0.9-1.6-1.5-3.1-1.5	s-2.1,0.6-3.1,1.5c-1.1,1-2.3,2.2-4.9,2.2s-3.8-1.2-4.9-2.2c-0.9-0.9-1.6-1.5-3.1-1.5s-2.1,0.6-3.1,1.5c-1.1,1-2.3,2.2-4.9,2.2	s-3.8-1.2-4.9-2.2c-0.9-0.9-1.6-1.5-3.1-1.5s-2.1,0.6-3.1,1.5c-1.1,1-2.3,2.2-4.9,2.2s-3.8-1.2-4.9-2.2c-0.9-0.9-1.6-1.5-3.1-1.5	s-2.1,0.6-3.1,1.5c-1.1,1-2.3,2.2-4.9,2.2s-3.8-1.2-4.9-2.2c-0.9-0.9-1.6-1.5-3.1-1.5s-2.1,0.6-3.1,1.5c-1.1,1-2.3,2.2-4.9,2.2	c-2.6,0-3.8-1.2-4.9-2.2c-0.9-0.9-1.6-1.5-3.1-1.5s-2.1,0.6-3.1,1.5c-1.1,1-2.3,2.2-4.9,2.2s-3.8-1.2-4.9-2.2	c-0.9-0.9-1.6-1.5-3.1-1.5s-2.1,0.6-3.1,1.5c-1.1,1-2.3,2.2-4.9,2.2s-3.8-1.2-4.9-2.2c-0.9-0.9-1.6-1.5-3.1-1.5s-2.1,0.6-3.1,1.5	c-1.1,1-2.3,2.2-4.9,2.2s-3.8-1.2-4.9-2.2c-0.9-0.9-1.6-1.5-3.1-1.5s-2.1,0.6-3.1,1.5c-1.1,1-2.3,2.2-4.9,2.2s-3.8-1.2-4.9-2.2	c-0.9-0.9-1.6-1.5-3.1-1.5s-2.1,0.6-3.1,1.5c-1.1,1-2.3,2.2-4.9,2.2s-3.8-1.2-4.9-2.2c-0.9-0.9-1.6-1.5-3.1-1.5s-2.1,0.6-3.1,1.5	c-1.1,1-2.3,2.2-4.9,2.2s-3.8-1.2-4.9-2.2c-0.9-0.9-1.6-1.5-3.1-1.5s-2.1,0.6-3.1,1.5c-1.1,1-2.3,2.2-4.9,2.2s-3.8-1.2-4.9-2.2	c-0.9-0.9-1.6-1.5-3.1-1.5s-2.1,0.6-3.1,1.5c-1.1,1-2.3,2.2-4.9,2.2c-2.6,0-3.8-1.2-4.9-2.2c-0.9-0.9-1.6-1.5-3.1-1.5	c-1.5,0-2.1,0.6-3.1,1.5c-1.1,1-2.3,2.2-4.9,2.2s-3.8-1.2-4.9-2.2c-0.9-0.9-1.6-1.5-3.1-1.5s-2.1,0.6-3.1,1.5	c-1.1,1-2.3,2.2-4.9,2.2s-3.8-1.2-4.9-2.2c-0.9-0.9-1.6-1.5-3.1-1.5V145c2.6,0,3.8,1.2,4.9,2.2c1,0.9,1.6,1.5,3.1,1.5	s2.1-0.6,3.1-1.5c1.1-1,2.3-2.2,4.9-2.2s3.8,1.2,4.9,2.2c1,0.9,1.6,1.5,3.1,1.5s2.1-0.6,3.1-1.5c1.1-1,2.3-2.2,4.9-2.2	s3.8,1.2,4.9,2.2c1,0.9,1.6,1.5,3.1,1.5s2.1-0.6,3.1-1.5c1.1-1,2.3-2.2,4.9-2.2s3.8,1.2,4.9,2.2c1,0.9,1.6,1.5,3.1,1.5	s2.1-0.6,3.1-1.5c1.1-1,2.3-2.2,4.9-2.2s3.8,1.2,4.9,2.2c1,0.9,1.6,1.5,3.1,1.5s2.1-0.6,3.1-1.5c1.1-1,2.3-2.2,4.9-2.2	s3.8,1.2,4.9,2.2c1,0.9,1.6,1.5,3.1,1.5s2.1-0.6,3.1-1.5c1.1-1,2.3-2.2,4.9-2.2s3.8,1.2,4.9,2.2c1,0.9,1.6,1.5,3.1,1.5	s2.1-0.6,3.1-1.5c1.1-1,2.3-2.2,4.9-2.2s3.8,1.2,4.9,2.2c1,0.9,1.6,1.5,3.1,1.5s2.1-0.6,3.1-1.5c1.1-1,2.3-2.2,4.9-2.2	c2.6,0,3.8,1.2,4.9,2.2c0.9,0.9,1.6,1.5,3.1,1.5s2.1-0.6,3.1-1.5c1.1-1,2.3-2.2,4.9-2.2s3.8,1.2,4.9,2.2c0.9,0.9,1.6,1.5,3.1,1.5	s2.1-0.6,3.1-1.5c1.1-1,2.3-2.2,4.9-2.2c2.6,0,3.8,1.2,4.9,2.2c0.9,0.9,1.6,1.5,3.1,1.5s2.1-0.6,3.1-1.5c1.1-1,2.3-2.2,4.9-2.2	s3.8,1.2,4.9,2.2c0.9,0.9,1.6,1.5,3.1,1.5s2.1-0.6,3.1-1.5c1.1-1,2.3-2.2,4.9-2.2s3.8,1.2,4.9,2.2c0.9,0.9,1.6,1.5,3.1,1.5	s2.1-0.6,3.1-1.5c1.1-1,2.3-2.2,4.9-2.2c2.6,0,3.8,1.2,4.9,2.2c0.9,0.9,1.6,1.5,3.1,1.5s2.1-0.6,3.1-1.5c1.1-1,2.3-2.2,4.9-2.2	s3.8,1.2,4.9,2.2c0.9,0.9,1.6,1.5,3.1,1.5s2.1-0.6,3.1-1.5c1.1-1,2.3-2.2,4.9-2.2s3.8,1.2,4.9,2.2c0.9,0.9,1.6,1.5,3.1,1.5	s2.1-0.6,3.1-1.5c1.1-1,2.3-2.2,4.9-2.2c2.6,0,3.8,1.2,4.9,2.2c0.9,0.9,1.6,1.5,3.1,1.5s2.1-0.6,3.1-1.5c1.1-1,2.3-2.2,4.9-2.2	s3.8,1.2,4.9,2.2c1,0.9,1.6,1.5,3.1,1.5s2.1-0.6,3.1-1.5c1.1-1,2.3-2.2,4.9-2.2s3.8,1.2,4.9,2.2c1,0.9,1.6,1.5,3.1,1.5	s2.1-0.6,3.1-1.5c1.1-1,2.3-2.2,4.9-2.2s3.8,1.2,4.9,2.2c1,0.9,1.6,1.5,3.1,1.5s2.1-0.6,3.1-1.5c1.1-1,2.3-2.2,4.9-2.2	s3.8,1.2,4.9,2.2c1,0.9,1.6,1.5,3.1,1.5s2.1-0.6,3.1-1.5c1.1-1,2.3-2.2,4.9-2.2s3.8,1.2,4.9,2.2c1,0.9,1.6,1.5,3.1,1.5	s2.1-0.6,3.1-1.5c1.1-1,2.3-2.2,4.9-2.2s3.8,1.2,4.9,2.2c1,0.9,1.6,1.5,3.1,1.5s2.1-0.6,3.1-1.5c1.1-1,2.3-2.2,4.9-2.2	s3.8,1.2,4.9,2.2c1,0.9,1.6,1.5,3.1,1.5s2.1-0.6,3.1-1.5c1.1-1,2.3-2.2,4.9-2.2s3.8,1.2,4.9,2.2c1,0.9,1.6,1.5,3.1,1.5	s2.1-0.6,3.1-1.5c1.1-1,2.3-2.2,4.9-2.2s3.8,1.2,4.9,2.2c1,0.9,1.6,1.5,3.1,1.5s2.1-0.6,3.1-1.5c1.1-1,2.3-2.2,4.9-2.2	s3.8,1.2,4.9,2.2c1,0.9,1.6,1.5,3.1,1.5s2.1-0.6,3.1-1.5c1.1-1,2.3-2.2,4.9-2.2s3.8,1.2,4.9,2.2c1,0.9,1.6,1.5,3.1,1.5	s2.1-0.6,3.1-1.5c1.1-1,2.3-2.2,4.9-2.2s3.8,1.2,4.9,2.2c1,0.9,1.6,1.5,3.1,1.5s2.1-0.6,3.1-1.5c1.1-1,2.3-2.2,4.9-2.2	s3.8,1.2,4.9,2.2c1,0.9,1.6,1.5,3.1,1.5s2.1-0.6,3.1-1.5c1.1-1,2.3-2.2,4.9-2.2s3.8,1.2,4.9,2.2c1,0.9,1.6,1.5,3.1,1.5	s2.1-0.6,3.1-1.5c1.1-1,2.3-2.2,4.9-2.2s3.8,1.2,4.9,2.2c1,0.9,1.6,1.5,3.1,1.5s2.1-0.6,3.1-1.5c1.1-1,2.3-2.2,4.9-2.2	s3.8,1.2,4.9,2.2c1,0.9,1.6,1.5,3.1,1.5s2.1-0.6,3.1-1.5c1.1-1,2.3-2.2,4.9-2.2s3.8,1.2,4.9,2.2c1,0.9,1.6,1.5,3.1,1.5	s2.1-0.6,3.1-1.5c1.1-1,2.3-2.2,4.9-2.2s3.8,1.2,4.9,2.2c1,0.9,1.6,1.5,3.1,1.5s2.1-0.6,3.1-1.5c1.1-1,2.3-2.2,4.9-2.2	s3.8,1.2,4.9,2.2c1,0.9,1.6,1.5,3.1,1.5s2.1-0.6,3.1-1.5c1.1-1,2.3-2.2,4.9-2.2s3.8,1.2,4.9,2.2c1,0.9,1.6,1.5,3.1,1.5	s2.1-0.6,3.1-1.5c1.1-1,2.3-2.2,4.9-2.2c2.6,0,3.8,1.2,4.9,2.2c1,0.9,1.6,1.5,3.1,1.5s2.1-0.6,3.1-1.5c1.1-1,2.3-2.2,4.9-2.2	s3.8,1.2,4.9,2.2c1,0.9,1.6,1.5,3.1,1.5s2.1-0.6,3.1-1.5c1.1-1,2.3-2.2,4.9-2.2s3.8,1.2,4.9,2.2c1,0.9,1.6,1.5,3.1,1.5	s2.1-0.6,3.1-1.5c1.1-1,2.3-2.2,4.9-2.2s3.8,1.2,4.9,2.2c1,0.9,1.6,1.5,3.1,1.5s2.1-0.6,3.1-1.5c1.1-1,2.3-2.2,4.9-2.2	s3.8,1.2,4.9,2.2c0.9,0.9,1.6,1.5,3.1,1.5s2.1-0.6,3.1-1.5c1.1-1,2.3-2.2,4.9-2.2c2.6,0,3.8,1.2,4.9,2.2c0.9,0.9,1.6,1.5,3.1,1.5	s2.1-0.6,3.1-1.5c1.1-1,2.3-2.2,4.9-2.2s3.8,1.2,4.9,2.2c0.9,0.9,1.6,1.5,3.1,1.5s2.1-0.6,3.1-1.5c1.1-1,2.3-2.2,4.9-2.2	s3.8,1.2,4.9,2.2c0.9,0.9,1.6,1.5,3.1,1.5s2.1-0.6,3.1-1.5c1.1-1,2.3-2.2,4.9-2.2s3.8,1.2,4.9,2.2c0.9,0.9,1.6,1.5,3.1,1.5	s2.1-0.6,3.1-1.5c1.1-1,2.3-2.2,4.9-2.2s3.8,1.2,4.9,2.2c0.9,0.9,1.6,1.5,3.1,1.5s2.1-0.6,3.1-1.5c1.1-1,2.3-2.2,4.9-2.2	c2.6,0,3.8,1.2,4.9,2.2c0.9,0.9,1.6,1.5,3.1,1.5s2.1-0.6,3.1-1.5c1.1-1,2.3-2.2,4.9-2.2s3.8,1.2,4.9,2.2c0.9,0.9,1.6,1.5,3.1,1.5	s2.1-0.6,3.1-1.5c1.1-1,2.3-2.2,4.9-2.2L784,147.3z"/>
  <path fill="#FFFFFF" d="M1259,187h-9H0v-20c15.6,0,15.6-14,31.3-14s15.6,14,31.3,14c15.6,0,15.6-14,31.3-14c15.6,0,15.6,14,31.3,14	c15.6,0,15.6-14,31.3-14c15.6,0,15.6,14,31.3,14c15.6,0,15.6-14,31.3-14c15.6,0,15.6,14,31.3,14c15.6,0,15.6-14,31.3-14	c15.6,0,15.6,14,31.3,14c15.6,0,15.6-14,31.3-14c15.6,0,15.6,14,31.3,14s15.6-14,31.3-14c15.6,0,15.6,14,31.3,14	c15.6,0,15.6-14,31.3-14c15.6,0,15.6,14,31.3,14c15.6,0,15.6-14,31.3-14c15.6,0,15.6,14,31.3,14c15.6,0,15.6-14,31.3-14	c15.6,0,15.6,14,31.3,14c15.6,0,15.6-14,31.3-14c15.6,0,15.6,14,31.3,14c15.6,0,15.6-14,31.3-14c15.6,0,15.6,14,31.3,14	c15.6,0,15.6-14,31.3-14s15.6,14,31.3,14c15.6,0,15.6-14,31.3-14c15.6,0,15.6,14,31.3,14c15.6,0,15.6-14,31.3-14	c15.6,0,15.6,14,31.3,14s15.6-14,31.3-14c15.6,0,15.6,14,31.3,14s15.6-14,31.3-14c15.6,0,15.6,14,31.3,14s15.6-14,31.3-14	c15.6,0,15.6,14,31.3,14c15.6,0,15.6-14,31.3-14s15.6,14,31.3,14c15.6,0,15.6-14,31.3-14c15.6,0,15.6,14,31.3,14c3.8,0,6,0.1,9,0.1	V187H1259z"/>
</svg>
