<svg xmlns="http://www.w3.org/2000/svg" width="1260" height="211"><g fill="#63D1BB"><path d="M352.3 14.1c-.4 2.1-.4 4.2 0 6.3l4.1-3.2-4.1-3.1zM376.4 1.6C371.6-.6 366-.5 361.1 2l7.5 5.6 7.8-6zM385.9 13.2l-4.8 3.7 4.9 3.7c.5-2.4.5-5-.1-7.4zM361.2 32.4c4.8 2.5 10.7 2.6 15.7.1l-8.1-6.1-7.6 6zM359.9 14.4l-6.2-4.7c-.3.7-.6 1.4-.8 2.1l5.3 4 1.7-1.4zM370.6 25.1l8.3 6.2c.3-.2.6-.4.8-.6.3-.2.6-.5.9-.8l-8.3-6.2-1.7 1.4zM363.4 11.7L356 6.2c-.5.6-.9 1.1-1.3 1.7l6.9 5.2 1.8-1.4zM374.1 22.4l8.1 6.1c.5-.5.9-1.1 1.3-1.7l-7.6-5.7-1.8 1.3zM366.9 9l-7.7-5.8c-.2.1-.4.3-.6.4-.4.3-.8.6-1.1 1l7.7 5.7 1.7-1.3zM377.6 19.6l7 5.2c.3-.7.6-1.3.9-2l-6.1-4.5-1.8 1.3zM378.4 2.7l-25.6 19.9c.2.7.5 1.4.8 2.1L380.2 4c-.5-.5-1.1-.9-1.8-1.3zM382.7 6.6c-.3-.4-.6-.8-.9-1.1l-27 21c.3.4.5.8.8 1.2.1.2.3.4.4.5l27.1-21.1c-.1-.1-.2-.3-.4-.5zM384.3 9l-26.7 20.8c.5.5 1.1 1 1.7 1.4l26-20.2c-.3-.7-.6-1.4-1-2z"/></g><path fill="#63D1BB" d="M250 37.2c8.8 0 16-7.2 16-16-8.9 0-16 7.2-16 16zm-11.4-20.9c0 2.5 2 4.4 4.4 4.4.9 0 1.8-.3 2.5-.8v.3c0 2.5 2 4.4 4.4 4.4s4.4-2 4.4-4.4v-.3a4.376 4.376 0 0 0 6.9-3.6c0-1.8-1-3.3-2.5-4 1.5-.7 2.5-2.2 2.5-4 0-2.5-2-4.4-4.4-4.4-.9 0-1.8.3-2.5.8v-.3c0-2.5-2-4.4-4.4-4.4-2.5 0-4.4 2-4.4 4.4v.3c-.6-.5-1.5-.8-2.4-.8-2.5 0-4.4 2-4.4 4.4 0 1.8 1 3.3 2.5 4-1.5.7-2.6 2.3-2.6 4zM250 7.9c2.5 0 4.4 2 4.4 4.4s-2 4.4-4.4 4.4c-2.5 0-4.4-2-4.4-4.4-.1-2.4 1.9-4.4 4.4-4.4zm-16 13.3c0 8.8 7.2 16 16 16 0-8.8-7.2-16-16-16zM448.1 31.8h13v-14h-13v14zm28-23h-7.3c.5-.3 1-.5 1.4-.8 1.6-1.1 2.4-2.6 2.4-4 0-1.2-.6-2.2-1.4-2.9s-1.9-1.1-3-1.1c-1.2 0-2.4.4-3.3 1.1-1.5 1-2.6 2.5-3.4 4.1 0 .1-.1.2-.1.2-.3-.6-.6-1.2-1-1.8-.7-1-1.5-1.9-2.5-2.5S455.8 0 454.6 0c-1.2 0-2.3.5-3.2 1.3-.8.8-1.4 1.9-1.4 3.1 0 .7.2 1.5.6 2.2.6.9 1.4 1.6 2.6 2.2h-6.6c-.9 0-1.6.7-1.6 1.6v5.4h15v-7h3v7h15v-5.7c0-.9-.7-1.6-1.6-1.6M453.9 6c-.6-.4-1-.8-1.2-1.1-.2-.4-.3-.7-.3-1 0-.5.2-1 .7-1.5.4-.4 1-.7 1.6-.7.7 0 1.4.2 2 .7 1 .7 2 1.9 2.6 3.2.3.7.6 1.4.8 2.1-3-.3-5-1-6.2-1.7m10.5-1.6c.6-.8 1.2-1.5 1.9-1.9.7-.5 1.4-.7 2-.7.6 0 1.1.2 1.5.6.4.3.6.7.6 1.2s-.3 1.3-1.5 2.1c-1.1.8-3.1 1.7-6.1 2.3.3-1.3.9-2.6 1.6-3.6m-2.3 27.4h13v-14h-13v14zM350 8.7c0-4.8-3.9-8.7-8.7-8.7-3.4 0-6.3 2-7.8 4.8-1.4-2.8-4.4-4.8-7.8-4.8-4.8 0-8.7 3.9-8.7 8.7 0 9.1 14.7 19.1 16.5 19.1 1.9.1 16.5-9.9 16.5-19.1z"/><g fill="#63D1BB"><path d="M311.1 0h-39.2c-2.2 0-3.9 1.7-3.9 3.9v19.2c0 2.2 1.7 3.9 3.9 3.9h39.2c2.2 0 3.9-1.7 3.9-3.9V3.9c0-2.2-1.7-3.9-3.9-3.9zM271 24V2h40v22h-40z"/><path d="M275 20h32V6h-32v14zm16.5-11.9c2.9 0 5.3 2.4 5.3 5.3s-2.4 5.3-5.3 5.3-5.3-2.4-5.3-5.3c0-3 2.3-5.3 5.3-5.3z"/></g><g fill="#63D1BB"><path d="M428.7 5.7c-3.6-1-7.8-1.7-12.3-1.7-2.9 0-5.4.2-7.6.6L402.1 0h-13l5.6 6h8.2c-4.4 1.5-6.6 3.4-6.6 3.4v4.2s2.2 1.9 6.7 3.4h-8.4l-5.6 6h13l6.8-4.7c2.2.4 4.8.6 7.6.6 4.5 0 8.6-.7 12.3-1.7-1.2-1.8-1.9-3.7-1.9-5.8 0-2 .8-4 1.9-5.7zM432.2 6.6c-1.3 1.6-2 3.2-2 4.8s.7 3.2 2 4.8c6.4-2.2 10.4-4.8 10.4-4.8s-3.9-2.6-10.4-4.8z"/></g><path fill="#63D1BB" d="M1116.2 4v38.4l39.8-19.3L1116.2 4zm-7.2 77V0h4.1v81h-4.1z"/><path fill="#231F20" d="M1109 0h4.1v81h-4.1z"/><g fill="#149080"><path d="M146.1 38.6c-.3 1-.3 2.2 0 3.7.5 2.7 1.7 6.2 2.4 9.9h5.2c.7-3.7 2-7.2 2.5-9.9.3-1.5.3-2.7 0-3.7-.3-.9-.9-1.7-2.1-2.4H148c-1.1.7-1.7 1.5-1.9 2.4zM158 58.2h-13.8c-1.3.1-2.3 1.1-1.8 2.4v1.6h18v-1.6c-.1-1.3-1.1-2.2-2.4-2.4zM165.1 2.2h-11.7c0-1.2-1-2.2-2.3-2.2s-2.3 1-2.3 2.2h-11.7L131 27.7c.8-.5 1.6-1 2.6-1 1.4 0 2.2.8 2.9 1.4s1.2.8 1.4.8c.3 0 .8-.3 1.5-.8s1.6-1.4 2.9-1.4 2.2.8 2.9 1.4c.7.5 1.2.8 1.5.8.1 0 .3-.1.6-.2s.5-.4.9-.6c.5-.4 1.1-1 2-1.2.3-.1.6-.1.9-.1 1.3 0 2.2.8 2.9 1.4.7.5 1.2.8 1.5.8s.8-.3 1.4-.9c.7-.6 1.6-1.4 2.9-1.4 1.4 0 2.2.8 2.9 1.4.3.3.6.5.9.6.2.1.4.2.6.2.3 0 .8-.3 1.4-.9.7-.6 1.6-1.4 2.9-1.4 1 0 1.8.5 2.6 1l-6-25.4zM154.5 54.2h-6.9c-.7-.3-1.1.2-1.1.8s.5 1.1 1.1 1.2h6.9c.7-.1 1.1-.6 1.1-1.2.1-.6-.4-1.1-1.1-.8zM151.1 29.4c-.1 0-.3.1-.6.2-.2.1-.4.3-.1.4v4.2h2V30c-.6-.3-1.1-.6-1.3-.6z"/></g><path d="M530 11h-42.3l8.1-8.2L493 0l-13 13 13 13 2.8-2.8-8.1-8.2H530z"/><path fill="#FFF" d="M640.4 9.2c-12.9-12.3-33.8-12.3-46.7 0s-12.9 32.2 0 44.5c0 0 23.3 21.8 23.3 47 0-25.2 23.3-47 23.3-47 13-12.2 13-32.2.1-44.5z"/><path fill="#6BC6B3" d="M631.1 45.5c-.6-3.3.1-6.9 0-10.3-.1-3.8-.7-7.5-.7-11.2 0-3 .5-6.2-.5-9.1.1-.3.1-.7.2-1 .3-1.5-4.6-.7-5.3.6-.5.4-.7.9-.5 1.3.1.1.1.2.1.4-.9 4.5-2.2 8.8-3.7 13.2-.6 1.7-1.2 3.3-1.8 4.9-.8-1.5-1.6-3.1-2.3-4.7-1.9-4.8-3.7-9.7-6-14.3.3-2.1-4.5-1.9-5.4 0-1.1 2.4-1 4.8-.6 7.3.4 2.9.5 5.7.5 8.6.1 5.6.5 11.1.6 16.7-.5.6-.6 1.2-.1 1.9.2.3.5.5.8.8 1.3 1 4.9.2 4.9-1.8 0-5.8-.4-11.5-.6-17.3v-1.7c.1.2.2.4.2.6.9 2.2 1.8 4.4 3.1 6.5 1.2 2.1 1.8 4.3 2.5 6.5-.3.3-.4.6-.3 1-.1.3.1.4.4.5.9.8 2.6.4 3.5 0l1.2-.6c.5-.3 1.2-1 1-1.6 0-.1-.1-.3-.1-.4.7-1.8 1-3.6 1.4-5.5.4-2 1.1-3.9 1.8-5.8.1.9.1 1.7.2 2.6.3 3.6 0 7.1 0 10.7 0 1.2.1 2.3.3 3.4.1.5.5 2.5.4 2.6-.9.8-.6 1.8.5 2 1.3.3 2.9-.1 3.9-1 1.6-1.4.8-3.8.4-5.8z"/><path fill="#231F20" d="M42.5 1.4L41.1 0l-8.8 8.8L23.4 0 22 1.4l8.8 8.9-8.8 8.8 1.4 1.4 8.9-8.8 8.8 8.8 1.4-1.4-8.8-8.8z"/><g fill="#231F20"><path d="M0 0h20v2H0zM0 6h20v2H0zM0 12h20v2H0z"/></g><path fill="#63D1BB" d="M945.9 18.3s-.9-7-3.8-10.1c-3.6-4-7.7-4.1-9.5-4.3-13.3-1-33.2-1-33.2-1h-.1s-19.9 0-33.2 1c-1.9.2-5.9.3-9.5 4.3-2.8 3.1-3.8 10.1-3.8 10.1s-.9 8.2-.9 16.4v7.7c0 8.2.9 16.4.9 16.4s.9 7 3.8 10.1c3.6 4 8.3 3.9 10.5 4.3 7.6.8 32.3 1 32.3 1s20 0 33.3-1c1.9-.2 5.9-.3 9.5-4.3 2.8-3.1 3.8-10.1 3.8-10.1s.9-8.2.9-16.4v-7.7c0-8.2-1-16.4-1-16.4z"/><path fill="#FFF" d="M899.4 76.9c-1 0-25-.3-32.7-1h-.2c-.3-.1-.7-.1-1.1-.2-2.5-.3-7.2-.9-10.9-5-3.4-3.6-4.4-10.8-4.5-11.6 0-.3-1-8.5-1-16.8v-7.7c0-8.3.9-16.4.9-16.7v-.1c.1-.8 1.2-7.9 4.5-11.6 4-4.4 8.6-4.9 10.7-5.1.2 0 .4 0 .5-.1h.1c13.3-1 33.4-1 33.6-1h.1c.2 0 20.3 0 33.6 1h.1c.2 0 .3 0 .5.1 2.2.2 6.7.7 10.7 5.1 3.4 3.6 4.4 10.8 4.5 11.6 0 .3 1 8.5 1 16.8v7.7c0 8.3-.9 16.4-1 16.8v.1c-.1.8-1.2 8-4.5 11.6-4 4.4-8.6 4.9-10.7 5.1-.2 0-.4 0-.5.1h-.1c-13.3.9-33.4.9-33.6.9zm-31.6-6.1c7.5.7 31.3 1 32.1 1 .7 0 20.2 0 33.2-1 .2 0 .4 0 .6-.1 1.8-.2 4.6-.5 7.2-3.3 1.8-2 2.9-6.9 3.1-8.6.1-.5.9-8.4.9-16.1V35c0-7.8-.9-15.6-1-16.1-.3-2.4-1.4-6.8-3.1-8.5-2.6-2.9-5.4-3.1-7.2-3.3-.2 0-.4 0-.6-.1-13.1-1-33-1-33.2-1h-.1c-.2 0-20 0-33.2 1-.2 0-.4 0-.6.1-1.8.2-4.6.5-7.2 3.3-1.8 2-2.9 6.9-3.1 8.6-.1.6-.9 8.4-.9 16.1v7.7c0 7.7.9 15.6.9 16.1.3 2.4 1.4 6.8 3.1 8.5 2.3 2.6 5.3 3 7.5 3.3.7 0 1.2 0 1.6.1z"/><path fill="#FFF" d="M887.9 20.8v35.7l29.7-17.9z"/><path d="M532 11h42.3l-8.1-8.2L569 0l13 13-13 13-2.8-2.8 8.1-8.2H532zM984.7 1.4L983.3 0l-20 19.9-9.9-9.9-1.4 1.4 9.9 9.9 1.4 1.4 1.5-1.4z"/><path fill="#149080" d="M173 43.6l27 15.7v-23l-27-15.7v23zm51-31.2v1.7c0 1.8-3.4 3.3-7.5 3.3s-7.5-1.5-7.5-3.3V10h-.7s3.6 3.9 7.7 3.9c4.3 0 7.7-1.5 7.7-3.3s-3.5-3.3-7.7-3.3h-1l-5-2.9v3.1c0 1.8-3.4 3.3-7.7 3.3-2.7 0-5-.6-6.4-1.5-.2-.2-.4-.4-.7-.6-.4-.4-.6-.8-.1-1.2v-3l-5.2 2.8h-1.1c-4.3 0-7.7 1.5-7.7 3.3s3.5 3.3 7.7 3.3c4.1 0 7.7-2.9 7.7-2.9h-.5v4.1c0 1.8-3.4 3.3-7.5 3.3s-7.5-1.5-7.5-3.3v-2.6l-6 3.5 27.7 16 27.5-16-6.2-3.6zM210 23c0 1.8-3.4 3.2-7.5 3.2S195 24.8 195 23v-4c.3 1.7 3.5 3 7.5 3s7.2-1.3 7.5-3v4zm-5 13.5v22.8l27-15.7V20.9l-27 15.6zm-2.7-29.9c4.3 0 7.7-1.5 7.7-3.3S206.5 0 202.3 0c-4.3 0-7.7 1.5-7.7 3.3s3.4 3.3 7.7 3.3"/><path fill="#63D1BB" d="M841 9.8l6-4v16l-6-4v-8zm-2 .2v8c0 2.2-1.8 4-4 4h-16c-2.2 0-4-1.8-4-4v-8c0-2.2 1.8-4 4-4h9.9c0-1.1 1-2.1 2.1-2.1V2h-11c-.6 0-1-.4-1-1s.4-1 1-1h12c.5 0 1 .4 1 1v2.9c1.1.1 2 1 2 2.1 2.2 0 4 1.8 4 4zm-12 0h-8v8h8v-8zm7.9 1c0-.6-.4-1-1-1h-4c-.6 0-1 .4-1 1s.4 1 1 1h4c.6 0 1-.4 1-1z"/><path d="M974 29l-.9-1-13.5 14-6.7-7-.9 1 6.7 7 .9 1 1-1z"/><path fill="#FFF" d="M1259.4 210H0v-12.9c9.6 0 9.6-9.1 19.2-9.1s9.6 9.1 19.2 9.1S48 188 57.6 188s9.6 9.1 19.2 9.1S86.4 188 96 188s9.6 9.1 19.2 9.1 9.6-9.1 19.2-9.1 9.6 9.1 19.2 9.1 9.6-9.1 19.2-9.1 9.6 9.1 19.2 9.1 9.6-9.1 19.2-9.1 9.6 9.1 19.2 9.1 9.6-9.1 19.2-9.1 9.6 9.1 19.2 9.1 9.6-9.1 19.2-9.1 9.6 9.1 19.2 9.1 9.6-9.1 19.2-9.1 9.6 9.1 19.2 9.1 9.6-9.1 19.2-9.1 9.6 9.1 19.2 9.1 9.6-9.1 19.2-9.1 9.6 9.1 19.2 9.1 9.6-9.1 19.2-9.1 9.6 9.1 19.2 9.1 9.6-9.1 19.2-9.1 9.6 9.1 19.2 9.1 9.6-9.1 19.2-9.1 9.6 9.1 19.2 9.1 9.6-9.1 19.2-9.1 9.6 9.1 19.2 9.1 9.6-9.1 19.2-9.1 9.6 9.1 19.2 9.1 9.6-9.1 19.2-9.1 9.6 9.1 19.2 9.1 9.6-9.1 19.2-9.1 9.6 9.1 19.2 9.1 9.6-9.1 19.2-9.1 9.6 9.1 19.2 9.1 9.6-9.1 19.2-9.1 9.6 9.1 19.3 9.1c9.6 0 9.6-9.1 19.2-9.1s9.6 9.1 19.2 9.1 9.6-9.1 19.2-9.1 9.6 9.1 19.2 9.1 9.6-9.1 19.2-9.1 9.6 9.1 19.2 9.1 9.6-9.1 19.2-9.1 9.6 9.1 19.2 9.1 9.6-9.1 19.2-9.1 9.6 9.1 19.2 9.1 9.6-9.1 19.2-9.1 9.6 9.1 19.2 9.1 9.6-9.1 19.2-9.1 9.6 9.1 19.2 9.1 9.6-9.1 19.2-9.1 9.6 9.1 19.2 9.1 9.6-9.1 19.2-9.1 9.6 9.1 19.2 9.1 9.6-9.1 19.2-9.1 9.6 9.1 19.2 9.1 9.6-9.1 19.2-9.1 9.6 9.1 19.2 9.1 9.6-9.1 19.2-9.1 9.6 9.1 19.2 9.1 9.6-9.1 19.2-9.1c6.7 0 8.7 4.4 12.5 7.1V210h-1.2z"/><path fill="#F1F1F1" d="M1155 133.7c-3.6 0-5.1 1.5-7.5 3.8-2.6 2.5-5.6 5.5-11.8 5.5-6.2 0-9.2-3-11.8-5.5-2.3-2.3-3.9-3.8-7.4-3.8-3.6 0-5.1 1.5-7.5 3.8-2.6 2.5-5.6 5.5-11.8 5.5-6.2 0-9.2-3-11.8-5.5-2.3-2.3-3.9-3.8-7.4-3.8-3.6 0-5.1 1.5-7.5 3.8-2.6 2.5-5.6 5.5-11.8 5.5-6.2 0-9.2-3-11.8-5.5-2.3-2.3-3.9-3.8-7.4-3.8-3.6 0-5.1 1.5-7.5 3.8-2.6 2.5-5.6 5.5-11.8 5.5s-9.2-3-11.8-5.5c-2.3-2.3-3.9-3.8-7.4-3.8-3.6 0-5.1 1.5-7.5 3.8-2.6 2.5-5.6 5.5-11.8 5.5s-9.2-3-11.8-5.5c-2.3-2.3-3.9-3.8-7.4-3.8-3.6 0-5.1 1.5-7.5 3.8-2.6 2.5-5.6 5.5-11.8 5.5s-9.2-3-11.8-5.5c-2.3-2.3-3.9-3.8-7.4-3.8-3.6 0-5.1 1.5-7.5 3.8-2.6 2.5-5.6 5.5-11.8 5.5s-9.2-3-11.8-5.5c-2.3-2.3-3.9-3.8-7.4-3.8-3.6 0-5.1 1.5-7.5 3.8-2.6 2.5-5.6 5.5-11.8 5.5s-9.2-3-11.8-5.5c-2.3-2.3-3.9-3.8-7.4-3.8-3.6 0-5.1 1.5-7.5 3.8-2.6 2.5-5.6 5.5-11.8 5.5s-9.2-3-11.8-5.5c-2.3-2.3-3.9-3.8-7.4-3.8-3.6 0-5.1 1.5-7.5 3.8-2.6 2.5-5.6 5.5-11.8 5.5s-9.2-3-11.8-5.5c-2.3-2.3-3.9-3.8-7.4-3.8-3.6 0-5.1 1.5-7.5 3.8-2.6 2.5-5.6 5.5-11.8 5.5s-9.2-3-11.8-5.5c-2.3-2.3-3.9-3.8-7.4-3.8-3.6 0-5.1 1.5-7.5 3.8-2.6 2.5-5.6 5.5-11.8 5.5s-9.2-3-11.8-5.5c-2.3-2.3-3.9-3.8-7.4-3.8-3.6 0-5.1 1.5-7.5 3.8-2.6 2.5-5.6 5.5-11.8 5.5s-9.2-3-11.8-5.5c-2.3-2.3-3.9-3.8-7.4-3.8-3.6 0-5.1 1.5-7.5 3.8-2.6 2.5-5.6 5.5-11.8 5.5s-9.2-3-11.8-5.5c-2.3-2.3-3.9-3.8-7.4-3.8-3.6 0-5.1 1.5-7.5 3.8-2.6 2.5-5.6 5.5-11.8 5.5s-9.2-3-11.8-5.5c-2.3-2.3-3.9-3.8-7.4-3.8-3.6 0-5.1 1.5-7.5 3.8-2.6 2.5-5.6 5.5-11.8 5.5s-9.2-3-11.8-5.5c-2.3-2.3-3.9-3.8-7.4-3.8-3.6 0-5.1 1.5-7.5 3.8-2.6 2.5-5.6 5.5-11.8 5.5s-9.2-3-11.8-5.5c-2.3-2.3-3.9-3.8-7.4-3.8-3.6 0-5.1 1.5-7.5 3.8-2.6 2.5-5.6 5.5-11.8 5.5-6.2 0-9.2-3-11.8-5.5-2.3-2.3-3.9-3.8-7.4-3.8-3.6 0-5.1 1.5-7.5 3.8-2.6 2.5-5.6 5.5-11.8 5.5-6.2 0-9.2-3-11.8-5.5-2.3-2.3-3.9-3.8-7.4-3.8-3.6 0-5.1 1.5-7.5 3.8-2.6 2.5-5.6 5.5-11.8 5.5-6.2 0-9.2-3-11.8-5.5-2.3-2.3-3.9-3.8-7.4-3.8-3.6 0-5.1 1.5-7.5 3.8-2.6 2.5-5.6 5.5-11.8 5.5-6.2 0-9.2-3-11.8-5.5-2.3-2.3-3.9-3.8-7.4-3.8-3.6 0-5.1 1.5-7.5 3.8-2.6 2.5-5.6 5.5-11.8 5.5-6.2 0-9.2-3-11.8-5.5-2.3-2.3-3.9-3.8-7.4-3.8-3.6 0-5.1 1.5-7.5 3.8-2.6 2.5-5.6 5.5-11.8 5.5s-9.2-3-11.8-5.5c-2.3-2.3-3.9-3.8-7.4-3.8-3.6 0-5.1 1.5-7.5 3.8-2.6 2.5-5.6 5.5-11.8 5.5s-9.2-3-11.8-5.5c-2.3-2.3-3.9-3.8-7.4-3.8-3.6 0-5.1 1.5-7.5 3.8-2.6 2.5-5.6 5.5-11.8 5.5s-9.2-3-11.8-5.5c-2.3-2.3-3.9-3.8-7.4-3.8-3.6 0-5.1 1.5-7.5 3.8-2.6 2.5-5.6 5.5-11.8 5.5s-9.2-3-11.8-5.5c-2.3-2.3-3.9-3.8-7.4-3.8-3.6 0-5.1 1.5-7.5 3.8-2.6 2.5-5.6 5.5-11.8 5.5s-9.2-3-11.8-5.5c-2.3-2.3-3.9-3.8-7.4-3.8-3.6 0-5.1 1.5-7.5 3.8-2.6 2.5-5.6 5.5-11.8 5.5s-9.2-3-11.8-5.5c-2.3-2.3-3.9-3.8-7.4-3.8-3.6 0-5.1 1.5-7.5 3.8-2.6 2.5-5.6 5.5-11.8 5.5s-9.2-3-11.8-5.5c-2.3-2.3-3.9-3.8-7.4-3.8-3.6 0-5.1 1.5-7.5 3.8-2.6 2.5-5.6 5.5-11.8 5.5s-9.2-3-11.8-5.5c-2.3-2.3-3.9-3.8-7.4-3.8V128c6.2 0 9.2 3 11.8 5.5 2.4 2.3 3.9 3.8 7.5 3.8s5.1-1.5 7.4-3.8c2.6-2.5 5.6-5.5 11.8-5.5s9.2 3 11.8 5.5c2.4 2.3 3.9 3.8 7.5 3.8s5.1-1.5 7.4-3.8c2.6-2.5 5.6-5.5 11.8-5.5s9.2 3 11.8 5.5c2.4 2.3 3.9 3.8 7.5 3.8s5.1-1.5 7.4-3.8c2.6-2.5 5.6-5.5 11.8-5.5s9.2 3 11.8 5.5c2.4 2.3 3.9 3.8 7.5 3.8s5.1-1.5 7.4-3.8c2.6-2.5 5.6-5.5 11.8-5.5s9.2 3 11.8 5.5c2.4 2.3 3.9 3.8 7.5 3.8s5.1-1.5 7.4-3.8c2.6-2.5 5.6-5.5 11.8-5.5s9.2 3 11.8 5.5c2.4 2.3 3.9 3.8 7.5 3.8s5.1-1.5 7.4-3.8c2.6-2.5 5.6-5.5 11.8-5.5s9.2 3 11.8 5.5c2.4 2.3 3.9 3.8 7.5 3.8s5.1-1.5 7.4-3.8c2.6-2.5 5.6-5.5 11.8-5.5 6.2 0 9.2 3 11.8 5.5 2.4 2.3 3.9 3.8 7.5 3.8s5.1-1.5 7.4-3.8c2.6-2.5 5.6-5.5 11.8-5.5 6.2 0 9.2 3 11.8 5.5 2.3 2.3 3.9 3.8 7.4 3.8 3.6 0 5.1-1.5 7.5-3.8 2.6-2.5 5.6-5.5 11.8-5.5 6.2 0 9.2 3 11.8 5.5 2.3 2.3 3.9 3.8 7.4 3.8 3.6 0 5.1-1.5 7.5-3.8 2.6-2.5 5.6-5.5 11.8-5.5 6.2 0 9.2 3 11.8 5.5 2.3 2.3 3.9 3.8 7.4 3.8 3.6 0 5.1-1.5 7.5-3.8 2.6-2.5 5.6-5.5 11.8-5.5 6.2 0 9.2 3 11.8 5.5 2.3 2.3 3.9 3.8 7.4 3.8 3.6 0 5.1-1.5 7.5-3.8 2.6-2.5 5.6-5.5 11.8-5.5 6.2 0 9.2 3 11.8 5.5 2.3 2.3 3.9 3.8 7.4 3.8 3.6 0 5.1-1.5 7.5-3.8 2.6-2.5 5.6-5.5 11.8-5.5 6.2 0 9.2 3 11.8 5.5 2.3 2.3 3.9 3.8 7.4 3.8 3.6 0 5.1-1.5 7.5-3.8 2.6-2.5 5.6-5.5 11.8-5.5s9.2 3 11.8 5.5c2.3 2.3 3.9 3.8 7.4 3.8 3.6 0 5.1-1.5 7.5-3.8 2.6-2.5 5.6-5.5 11.8-5.5s9.2 3 11.8 5.5c2.3 2.3 3.9 3.8 7.4 3.8 3.6 0 5.1-1.5 7.5-3.8 2.6-2.5 5.6-5.5 11.8-5.5s9.2 3 11.8 5.5c2.3 2.3 3.9 3.8 7.4 3.8 3.6 0 5.1-1.5 7.5-3.8 2.6-2.5 5.6-5.5 11.8-5.5s9.2 3 11.8 5.5c2.4 2.3 3.9 3.8 7.5 3.8s5.1-1.5 7.4-3.8c2.6-2.5 5.6-5.5 11.8-5.5s9.2 3 11.8 5.5c2.4 2.3 3.9 3.8 7.5 3.8s5.1-1.5 7.4-3.8c2.6-2.5 5.6-5.5 11.8-5.5s9.2 3 11.8 5.5c2.4 2.3 3.9 3.8 7.5 3.8s5.1-1.5 7.4-3.8c2.6-2.5 5.6-5.5 11.8-5.5s9.2 3 11.8 5.5c2.4 2.3 3.9 3.8 7.5 3.8s5.1-1.5 7.4-3.8c2.6-2.5 5.6-5.5 11.8-5.5s9.2 3 11.8 5.5c2.4 2.3 3.9 3.8 7.5 3.8s5.1-1.5 7.4-3.8c2.6-2.5 5.6-5.5 11.8-5.5s9.2 3 11.8 5.5c2.4 2.3 3.9 3.8 7.5 3.8s5.1-1.5 7.4-3.8c2.6-2.5 5.6-5.5 11.8-5.5s9.2 3 11.8 5.5c2.4 2.3 3.9 3.8 7.5 3.8s5.1-1.5 7.4-3.8c2.6-2.5 5.6-5.5 11.8-5.5s9.2 3 11.8 5.5c2.4 2.3 3.9 3.8 7.5 3.8s5.1-1.5 7.4-3.8c2.6-2.5 5.6-5.5 11.8-5.5s9.2 3 11.8 5.5c2.4 2.3 3.9 3.8 7.5 3.8s5.1-1.5 7.4-3.8c2.6-2.5 5.6-5.5 11.8-5.5s9.2 3 11.8 5.5c2.4 2.3 3.9 3.8 7.5 3.8s5.1-1.5 7.4-3.8c2.6-2.5 5.6-5.5 11.8-5.5 6.2 0 9.2 3 11.8 5.5 2.4 2.3 3.9 3.8 7.5 3.8s5.1-1.5 7.4-3.8c2.6-2.5 5.6-5.5 11.8-5.5 6.2 0 9.2 3 11.8 5.5 2.4 2.3 3.9 3.8 7.5 3.8s5.1-1.5 7.4-3.8c2.6-2.5 5.6-5.5 11.8-5.5 6.2 0 9.2 3 11.8 5.5 2.4 2.3 3.9 3.8 7.5 3.8s5.1-1.5 7.4-3.8c2.6-2.5 5.6-5.5 11.8-5.5v5.7zM1143.5 124.2c-2.3 1.1-4.9 1.8-8.3 1.8-8.4 0-12.7-4.6-16.2-8.4-3.2-3.5-5.3-5.8-10.2-5.8-4.9 0-7.1 2.3-10.2 5.8-3.5 3.8-7.7 8.4-16.2 8.4s-12.7-4.6-16.2-8.4c-3.2-3.5-5.3-5.8-10.2-5.8-4.9 0-7.1 2.3-10.2 5.8-3.5 3.8-7.7 8.4-16.2 8.4s-12.7-4.6-16.2-8.4c-3.2-3.5-5.3-5.8-10.2-5.8s-7.1 2.3-10.2 5.8c-3.5 3.8-7.7 8.4-16.2 8.4-8.4 0-12.7-4.6-16.2-8.4-3.2-3.5-5.3-5.8-10.2-5.8s-7.1 2.3-10.2 5.8c-3.5 3.8-7.7 8.4-16.2 8.4-8.4 0-12.7-4.6-16.2-8.4-3.2-3.5-5.3-5.8-10.2-5.8s-7.1 2.3-10.2 5.8c-3.5 3.8-7.7 8.4-16.2 8.4-8.4 0-12.7-4.6-16.2-8.4-3.2-3.5-5.3-5.8-10.2-5.8s-7.1 2.3-10.2 5.8c-3.5 3.8-7.7 8.4-16.2 8.4-8.4 0-12.7-4.6-16.2-8.4-3.2-3.5-5.3-5.8-10.2-5.8s-7.1 2.3-10.2 5.8c-3.5 3.8-7.7 8.4-16.2 8.4-8.4 0-12.7-4.6-16.2-8.4-3.2-3.5-5.3-5.8-10.2-5.8s-7.1 2.3-10.2 5.8c-3.5 3.8-7.7 8.4-16.2 8.4-8.4 0-12.7-4.6-16.2-8.4-3.2-3.5-5.3-5.8-10.2-5.8s-7.1 2.3-10.2 5.8c-3.5 3.8-7.7 8.4-16.2 8.4-8.4 0-12.7-4.6-16.2-8.4-3.2-3.5-5.3-5.8-10.2-5.8s-7.1 2.3-10.2 5.8c-3.5 3.8-7.7 8.4-16.2 8.4-8.4 0-12.7-4.6-16.2-8.4-3.2-3.5-5.3-5.8-10.2-5.8s-7.1 2.3-10.2 5.8c-3.5 3.8-7.7 8.4-16.2 8.4-8.4 0-12.7-4.6-16.2-8.4-3.2-3.5-5.3-5.8-10.2-5.8s-7.1 2.3-10.2 5.8c-3.5 3.8-7.7 8.4-16.2 8.4s-12.7-4.6-16.2-8.4c-3.2-3.5-5.3-5.8-10.2-5.8s-7.1 2.3-10.2 5.8c-3.5 3.8-7.7 8.4-16.2 8.4s-12.7-4.6-16.2-8.4c-3.2-3.5-5.3-5.8-10.2-5.8-4.9 0-7.1 2.3-10.2 5.8-3.5 3.8-7.7 8.4-16.2 8.4s-12.7-4.6-16.2-8.4c-3.2-3.5-5.3-5.8-10.2-5.8-4.9 0-7.1 2.3-10.2 5.8-3.5 3.8-7.7 8.4-16.2 8.4s-12.7-4.6-16.2-8.4c-3.2-3.5-5.3-5.8-10.2-5.8-4.9 0-7.1 2.3-10.2 5.8-3.5 3.8-7.7 8.4-16.2 8.4s-12.7-4.6-16.2-8.4c-3.2-3.5-5.3-5.8-10.2-5.8-4.9 0-7.1 2.3-10.2 5.8-3.5 3.8-7.7 8.4-16.2 8.4-8.4 0-12.7-4.6-16.2-8.4-3.2-3.5-5.3-5.8-10.2-5.8s-7.1 2.3-10.2 5.8c-3.5 3.8-7.7 8.4-16.2 8.4s-12.7-4.6-16.2-8.4c-3.2-3.5-5.3-5.8-10.2-5.8s-7.1 2.3-10.2 5.8c-3.5 3.8-7.7 8.4-16.2 8.4s-12.7-4.6-16.2-8.4c-3.2-3.5-5.3-5.8-10.2-5.8-4.9 0-7.1 2.3-10.2 5.8-3.5 3.8-7.7 8.4-16.2 8.4s-12.7-4.6-16.2-8.4c-3.2-3.5-5.3-5.8-10.2-5.8s-7.1 2.3-10.2 5.8c-3.5 3.8-7.7 8.4-16.2 8.4s-12.7-4.6-16.2-8.4c-3.2-3.5-5.3-5.8-10.2-5.8V103c8.4 0 12.7 4.6 16.2 8.4 3.2 3.5 5.3 5.8 10.2 5.8s7.1-2.3 10.2-5.8c3.5-3.8 7.7-8.4 16.2-8.4s12.7 4.6 16.2 8.4c3.2 3.5 5.3 5.8 10.2 5.8 4.9 0 7.1-2.3 10.2-5.8 3.5-3.8 7.7-8.4 16.2-8.4s12.7 4.6 16.2 8.4c3.2 3.5 5.3 5.8 10.2 5.8s7.1-2.3 10.2-5.8c3.5-3.8 7.7-8.4 16.2-8.4s12.7 4.6 16.2 8.4c3.2 3.5 5.3 5.8 10.2 5.8s7.1-2.3 10.2-5.8c3.5-3.8 7.7-8.4 16.2-8.4s12.7 4.6 16.2 8.4c3.2 3.5 5.3 5.8 10.2 5.8s7.1-2.3 10.2-5.8c3.5-3.8 7.7-8.4 16.2-8.4 8.4 0 12.7 4.6 16.2 8.4 3.2 3.5 5.3 5.8 10.2 5.8 4.9 0 7.1-2.3 10.2-5.8 3.5-3.8 7.7-8.4 16.2-8.4s12.7 4.6 16.2 8.4c3.2 3.5 5.3 5.8 10.2 5.8s7.1-2.3 10.2-5.8c3.5-3.8 7.7-8.4 16.2-8.4s12.7 4.6 16.2 8.4c3.2 3.5 5.3 5.8 10.2 5.8 4.9 0 7.1-2.3 10.2-5.8 3.5-3.8 7.7-8.4 16.2-8.4s12.7 4.6 16.2 8.4c3.2 3.5 5.3 5.8 10.2 5.8 4.9 0 7.1-2.3 10.2-5.8 3.5-3.8 7.7-8.4 16.2-8.4s12.7 4.6 16.2 8.4c3.2 3.5 5.3 5.8 10.2 5.8 4.9 0 7.1-2.3 10.2-5.8 3.5-3.8 7.7-8.4 16.2-8.4 8.4 0 12.7 4.6 16.2 8.4 3.2 3.5 5.3 5.8 10.2 5.8s7.1-2.3 10.2-5.8c3.5-3.8 7.7-8.4 16.2-8.4 8.4 0 12.7 4.6 16.2 8.4 3.2 3.5 5.3 5.8 10.2 5.8s7.1-2.3 10.2-5.8c3.5-3.8 7.7-8.4 16.2-8.4 8.4 0 12.7 4.6 16.2 8.4 3.2 3.5 5.3 5.8 10.2 5.8s7.1-2.3 10.2-5.8c3.5-3.8 7.7-8.4 16.2-8.4 8.4 0 12.7 4.6 16.2 8.4 3.2 3.5 5.3 5.8 10.2 5.8s7.1-2.3 10.2-5.8c3.5-3.8 7.7-8.4 16.2-8.4 8.4 0 12.7 4.6 16.2 8.4 3.2 3.5 5.3 5.8 10.2 5.8s7.1-2.3 10.2-5.8c3.5-3.8 7.7-8.4 16.2-8.4 8.4 0 12.7 4.6 16.2 8.4 3.2 3.5 5.3 5.8 10.2 5.8s7.1-2.3 10.2-5.8c3.5-3.8 7.7-8.4 16.2-8.4 8.4 0 12.7 4.6 16.2 8.4 3.2 3.5 5.3 5.8 10.2 5.8s7.1-2.3 10.2-5.8c3.5-3.8 7.7-8.4 16.2-8.4 8.4 0 12.7 4.6 16.2 8.4 3.2 3.5 5.3 5.8 10.2 5.8s7.1-2.3 10.2-5.8c3.5-3.8 7.7-8.4 16.2-8.4s12.7 4.6 16.2 8.4c3.2 3.5 5.3 5.8 10.2 5.8s7.1-2.3 10.2-5.8c3.5-3.8 7.7-8.4 16.2-8.4 8.4 0 12.7 4.6 16.2 8.4 3.2 3.5 5.3 5.8 10.2 5.8s7.1-2.3 10.2-5.8c3.5-3.8 7.7-8.4 16.2-8.4s12.7 4.6 16.2 8.4c3.2 3.5 5.3 5.8 10.2 5.8s7.1-2.3 10.2-5.8c3.5-3.8 7.7-8.4 16.2-8.4 8.4 0 12.7 4.6 16.2 8.4 3.2 3.5 5.3 5.8 10.2 5.8 3.8 0 6-1.4 8.3-3.7v10.7zM784 147.3c-1.5 0-2.1.6-3.1 1.5-1.1 1-2.3 2.2-4.9 2.2s-3.8-1.2-4.9-2.2c-.9-.9-1.6-1.5-3.1-1.5s-2.1.6-3.1 1.5c-1.1 1-2.3 2.2-4.9 2.2-2.6 0-3.8-1.2-4.9-2.2-.9-.9-1.6-1.5-3.1-1.5s-2.1.6-3.1 1.5c-1.1 1-2.3 2.2-4.9 2.2s-3.8-1.2-4.9-2.2c-.9-.9-1.6-1.5-3.1-1.5s-2.1.6-3.1 1.5c-1.1 1-2.3 2.2-4.9 2.2s-3.8-1.2-4.9-2.2c-.9-.9-1.6-1.5-3.1-1.5s-2.1.6-3.1 1.5c-1.1 1-2.3 2.2-4.9 2.2-2.6 0-3.8-1.2-4.9-2.2-.9-.9-1.6-1.5-3.1-1.5s-2.1.6-3.1 1.5c-1.1 1-2.3 2.2-4.9 2.2s-3.8-1.2-4.9-2.2c-.9-.9-1.6-1.5-3.1-1.5s-2.1.6-3.1 1.5c-1.1 1-2.3 2.2-4.9 2.2s-3.8-1.2-4.9-2.2c-.9-.9-1.6-1.5-3.1-1.5s-2.1.6-3.1 1.5c-1.1 1-2.3 2.2-4.9 2.2s-3.8-1.2-4.9-2.2c-.9-.9-1.6-1.5-3.1-1.5s-2.1.6-3.1 1.5c-1.1 1-2.3 2.2-4.9 2.2s-3.8-1.2-4.9-2.2c-.9-.9-1.6-1.5-3.1-1.5s-2.1.6-3.1 1.5c-1.1 1-2.3 2.2-4.9 2.2-2.6 0-3.8-1.2-4.9-2.2-.9-.9-1.6-1.5-3.1-1.5s-2.1.6-3.1 1.5c-1.1 1-2.3 2.2-4.9 2.2s-3.8-1.2-4.9-2.2c-.9-.9-1.6-1.5-3.1-1.5s-2.1.6-3.1 1.5c-1.1 1-2.3 2.2-4.9 2.2s-3.8-1.2-4.9-2.2c-.9-.9-1.6-1.5-3.1-1.5s-2.1.6-3.1 1.5c-1.1 1-2.3 2.2-4.9 2.2-2.6 0-3.8-1.2-4.9-2.2-.9-.9-1.6-1.5-3.1-1.5s-2.1.6-3.1 1.5c-1.1 1-2.3 2.2-4.9 2.2s-3.8-1.2-4.9-2.2c-.9-.9-1.6-1.5-3.1-1.5s-2.1.6-3.1 1.5c-1.1 1-2.3 2.2-4.9 2.2s-3.8-1.2-4.9-2.2c-.9-.9-1.6-1.5-3.1-1.5s-2.1.6-3.1 1.5c-1.1 1-2.3 2.2-4.9 2.2-2.6 0-3.8-1.2-4.9-2.2-.9-.9-1.6-1.5-3.1-1.5s-2.1.6-3.1 1.5c-1.1 1-2.3 2.2-4.9 2.2s-3.8-1.2-4.9-2.2c-.9-.9-1.6-1.5-3.1-1.5s-2.1.6-3.1 1.5c-1.1 1-2.3 2.2-4.9 2.2s-3.8-1.2-4.9-2.2c-.9-.9-1.6-1.5-3.1-1.5s-2.1.6-3.1 1.5c-1.1 1-2.3 2.2-4.9 2.2s-3.8-1.2-4.9-2.2c-.9-.9-1.6-1.5-3.1-1.5s-2.1.6-3.1 1.5c-1.1 1-2.3 2.2-4.9 2.2s-3.8-1.2-4.9-2.2c-.9-.9-1.6-1.5-3.1-1.5s-2.1.6-3.1 1.5c-1.1 1-2.3 2.2-4.9 2.2s-3.8-1.2-4.9-2.2c-.9-.9-1.6-1.5-3.1-1.5s-2.1.6-3.1 1.5c-1.1 1-2.3 2.2-4.9 2.2s-3.8-1.2-4.9-2.2c-.9-.9-1.6-1.5-3.1-1.5s-2.1.6-3.1 1.5c-1.1 1-2.3 2.2-4.9 2.2s-3.8-1.2-4.9-2.2c-.9-.9-1.6-1.5-3.1-1.5s-2.1.6-3.1 1.5c-1.1 1-2.3 2.2-4.9 2.2s-3.8-1.2-4.9-2.2c-.9-.9-1.6-1.5-3.1-1.5s-2.1.6-3.1 1.5c-1.1 1-2.3 2.2-4.9 2.2s-3.8-1.2-4.9-2.2c-.9-.9-1.6-1.5-3.1-1.5s-2.1.6-3.1 1.5c-1.1 1-2.3 2.2-4.9 2.2s-3.8-1.2-4.9-2.2c-.9-.9-1.6-1.5-3.1-1.5s-2.1.6-3.1 1.5c-1.1 1-2.3 2.2-4.9 2.2s-3.8-1.2-4.9-2.2c-.9-.9-1.6-1.5-3.1-1.5s-2.1.6-3.1 1.5c-1.1 1-2.3 2.2-4.9 2.2s-3.8-1.2-4.9-2.2c-.9-.9-1.6-1.5-3.1-1.5s-2.1.6-3.1 1.5c-1.1 1-2.3 2.2-4.9 2.2s-3.8-1.2-4.9-2.2c-.9-.9-1.6-1.5-3.1-1.5s-2.1.6-3.1 1.5c-1.1 1-2.3 2.2-4.9 2.2s-3.8-1.2-4.9-2.2c-.9-.9-1.6-1.5-3.1-1.5s-2.1.6-3.1 1.5c-1.1 1-2.3 2.2-4.9 2.2s-3.8-1.2-4.9-2.2c-.9-.9-1.6-1.5-3.1-1.5s-2.1.6-3.1 1.5c-1.1 1-2.3 2.2-4.9 2.2s-3.8-1.2-4.9-2.2c-.9-.9-1.6-1.5-3.1-1.5s-2.1.6-3.1 1.5c-1.1 1-2.3 2.2-4.9 2.2s-3.8-1.2-4.9-2.2c-.9-.9-1.6-1.5-3.1-1.5s-2.1.6-3.1 1.5c-1.1 1-2.3 2.2-4.9 2.2-2.6 0-3.8-1.2-4.9-2.2-.9-.9-1.6-1.5-3.1-1.5s-2.1.6-3.1 1.5c-1.1 1-2.3 2.2-4.9 2.2s-3.8-1.2-4.9-2.2c-.9-.9-1.6-1.5-3.1-1.5s-2.1.6-3.1 1.5c-1.1 1-2.3 2.2-4.9 2.2s-3.8-1.2-4.9-2.2c-.9-.9-1.6-1.5-3.1-1.5s-2.1.6-3.1 1.5c-1.1 1-2.3 2.2-4.9 2.2s-3.8-1.2-4.9-2.2c-.9-.9-1.6-1.5-3.1-1.5s-2.1.6-3.1 1.5c-1.1 1-2.3 2.2-4.9 2.2s-3.8-1.2-4.9-2.2c-.9-.9-1.6-1.5-3.1-1.5s-2.1.6-3.1 1.5c-1.1 1-2.3 2.2-4.9 2.2-2.6 0-3.8-1.2-4.9-2.2-.9-.9-1.6-1.5-3.1-1.5s-2.1.6-3.1 1.5c-1.1 1-2.3 2.2-4.9 2.2s-3.8-1.2-4.9-2.2c-.9-.9-1.6-1.5-3.1-1.5s-2.1.6-3.1 1.5c-1.1 1-2.3 2.2-4.9 2.2s-3.8-1.2-4.9-2.2c-.9-.9-1.6-1.5-3.1-1.5s-2.1.6-3.1 1.5c-1.1 1-2.3 2.2-4.9 2.2s-3.8-1.2-4.9-2.2c-.9-.9-1.6-1.5-3.1-1.5s-2.1.6-3.1 1.5c-1.1 1-2.3 2.2-4.9 2.2s-3.8-1.2-4.9-2.2c-.9-.9-1.6-1.5-3.1-1.5s-2.1.6-3.1 1.5c-1.1 1-2.3 2.2-4.9 2.2s-3.8-1.2-4.9-2.2c-.9-.9-1.6-1.5-3.1-1.5s-2.1.6-3.1 1.5c-1.1 1-2.3 2.2-4.9 2.2s-3.8-1.2-4.9-2.2c-.9-.9-1.6-1.5-3.1-1.5s-2.1.6-3.1 1.5c-1.1 1-2.3 2.2-4.9 2.2s-3.8-1.2-4.9-2.2c-.9-.9-1.6-1.5-3.1-1.5s-2.1.6-3.1 1.5c-1.1 1-2.3 2.2-4.9 2.2-2.6 0-3.8-1.2-4.9-2.2-.9-.9-1.6-1.5-3.1-1.5s-2.1.6-3.1 1.5c-1.1 1-2.3 2.2-4.9 2.2s-3.8-1.2-4.9-2.2c-.9-.9-1.6-1.5-3.1-1.5s-2.1.6-3.1 1.5c-1.1 1-2.3 2.2-4.9 2.2s-3.8-1.2-4.9-2.2c-.9-.9-1.6-1.5-3.1-1.5V145c2.6 0 3.8 1.2 4.9 2.2 1 .9 1.6 1.5 3.1 1.5s2.1-.6 3.1-1.5c1.1-1 2.3-2.2 4.9-2.2s3.8 1.2 4.9 2.2c1 .9 1.6 1.5 3.1 1.5s2.1-.6 3.1-1.5c1.1-1 2.3-2.2 4.9-2.2s3.8 1.2 4.9 2.2c1 .9 1.6 1.5 3.1 1.5s2.1-.6 3.1-1.5c1.1-1 2.3-2.2 4.9-2.2s3.8 1.2 4.9 2.2c1 .9 1.6 1.5 3.1 1.5s2.1-.6 3.1-1.5c1.1-1 2.3-2.2 4.9-2.2s3.8 1.2 4.9 2.2c1 .9 1.6 1.5 3.1 1.5s2.1-.6 3.1-1.5c1.1-1 2.3-2.2 4.9-2.2s3.8 1.2 4.9 2.2c1 .9 1.6 1.5 3.1 1.5s2.1-.6 3.1-1.5c1.1-1 2.3-2.2 4.9-2.2s3.8 1.2 4.9 2.2c1 .9 1.6 1.5 3.1 1.5s2.1-.6 3.1-1.5c1.1-1 2.3-2.2 4.9-2.2s3.8 1.2 4.9 2.2c1 .9 1.6 1.5 3.1 1.5s2.1-.6 3.1-1.5c1.1-1 2.3-2.2 4.9-2.2 2.6 0 3.8 1.2 4.9 2.2.9.9 1.6 1.5 3.1 1.5s2.1-.6 3.1-1.5c1.1-1 2.3-2.2 4.9-2.2s3.8 1.2 4.9 2.2c.9.9 1.6 1.5 3.1 1.5s2.1-.6 3.1-1.5c1.1-1 2.3-2.2 4.9-2.2 2.6 0 3.8 1.2 4.9 2.2.9.9 1.6 1.5 3.1 1.5s2.1-.6 3.1-1.5c1.1-1 2.3-2.2 4.9-2.2s3.8 1.2 4.9 2.2c.9.9 1.6 1.5 3.1 1.5s2.1-.6 3.1-1.5c1.1-1 2.3-2.2 4.9-2.2s3.8 1.2 4.9 2.2c.9.9 1.6 1.5 3.1 1.5s2.1-.6 3.1-1.5c1.1-1 2.3-2.2 4.9-2.2 2.6 0 3.8 1.2 4.9 2.2.9.9 1.6 1.5 3.1 1.5s2.1-.6 3.1-1.5c1.1-1 2.3-2.2 4.9-2.2s3.8 1.2 4.9 2.2c.9.9 1.6 1.5 3.1 1.5s2.1-.6 3.1-1.5c1.1-1 2.3-2.2 4.9-2.2s3.8 1.2 4.9 2.2c.9.9 1.6 1.5 3.1 1.5s2.1-.6 3.1-1.5c1.1-1 2.3-2.2 4.9-2.2 2.6 0 3.8 1.2 4.9 2.2.9.9 1.6 1.5 3.1 1.5s2.1-.6 3.1-1.5c1.1-1 2.3-2.2 4.9-2.2s3.8 1.2 4.9 2.2c1 .9 1.6 1.5 3.1 1.5s2.1-.6 3.1-1.5c1.1-1 2.3-2.2 4.9-2.2s3.8 1.2 4.9 2.2c1 .9 1.6 1.5 3.1 1.5s2.1-.6 3.1-1.5c1.1-1 2.3-2.2 4.9-2.2s3.8 1.2 4.9 2.2c1 .9 1.6 1.5 3.1 1.5s2.1-.6 3.1-1.5c1.1-1 2.3-2.2 4.9-2.2s3.8 1.2 4.9 2.2c1 .9 1.6 1.5 3.1 1.5s2.1-.6 3.1-1.5c1.1-1 2.3-2.2 4.9-2.2s3.8 1.2 4.9 2.2c1 .9 1.6 1.5 3.1 1.5s2.1-.6 3.1-1.5c1.1-1 2.3-2.2 4.9-2.2s3.8 1.2 4.9 2.2c1 .9 1.6 1.5 3.1 1.5s2.1-.6 3.1-1.5c1.1-1 2.3-2.2 4.9-2.2s3.8 1.2 4.9 2.2c1 .9 1.6 1.5 3.1 1.5s2.1-.6 3.1-1.5c1.1-1 2.3-2.2 4.9-2.2s3.8 1.2 4.9 2.2c1 .9 1.6 1.5 3.1 1.5s2.1-.6 3.1-1.5c1.1-1 2.3-2.2 4.9-2.2s3.8 1.2 4.9 2.2c1 .9 1.6 1.5 3.1 1.5s2.1-.6 3.1-1.5c1.1-1 2.3-2.2 4.9-2.2s3.8 1.2 4.9 2.2c1 .9 1.6 1.5 3.1 1.5s2.1-.6 3.1-1.5c1.1-1 2.3-2.2 4.9-2.2s3.8 1.2 4.9 2.2c1 .9 1.6 1.5 3.1 1.5s2.1-.6 3.1-1.5c1.1-1 2.3-2.2 4.9-2.2s3.8 1.2 4.9 2.2c1 .9 1.6 1.5 3.1 1.5s2.1-.6 3.1-1.5c1.1-1 2.3-2.2 4.9-2.2s3.8 1.2 4.9 2.2c1 .9 1.6 1.5 3.1 1.5s2.1-.6 3.1-1.5c1.1-1 2.3-2.2 4.9-2.2s3.8 1.2 4.9 2.2c1 .9 1.6 1.5 3.1 1.5s2.1-.6 3.1-1.5c1.1-1 2.3-2.2 4.9-2.2s3.8 1.2 4.9 2.2c1 .9 1.6 1.5 3.1 1.5s2.1-.6 3.1-1.5c1.1-1 2.3-2.2 4.9-2.2s3.8 1.2 4.9 2.2c1 .9 1.6 1.5 3.1 1.5s2.1-.6 3.1-1.5c1.1-1 2.3-2.2 4.9-2.2s3.8 1.2 4.9 2.2c1 .9 1.6 1.5 3.1 1.5s2.1-.6 3.1-1.5c1.1-1 2.3-2.2 4.9-2.2s3.8 1.2 4.9 2.2c1 .9 1.6 1.5 3.1 1.5s2.1-.6 3.1-1.5c1.1-1 2.3-2.2 4.9-2.2s3.8 1.2 4.9 2.2c1 .9 1.6 1.5 3.1 1.5s2.1-.6 3.1-1.5c1.1-1 2.3-2.2 4.9-2.2s3.8 1.2 4.9 2.2c1 .9 1.6 1.5 3.1 1.5s2.1-.6 3.1-1.5c1.1-1 2.3-2.2 4.9-2.2 2.6 0 3.8 1.2 4.9 2.2 1 .9 1.6 1.5 3.1 1.5s2.1-.6 3.1-1.5c1.1-1 2.3-2.2 4.9-2.2s3.8 1.2 4.9 2.2c1 .9 1.6 1.5 3.1 1.5s2.1-.6 3.1-1.5c1.1-1 2.3-2.2 4.9-2.2s3.8 1.2 4.9 2.2c1 .9 1.6 1.5 3.1 1.5s2.1-.6 3.1-1.5c1.1-1 2.3-2.2 4.9-2.2s3.8 1.2 4.9 2.2c1 .9 1.6 1.5 3.1 1.5s2.1-.6 3.1-1.5c1.1-1 2.3-2.2 4.9-2.2s3.8 1.2 4.9 2.2c.9.9 1.6 1.5 3.1 1.5s2.1-.6 3.1-1.5c1.1-1 2.3-2.2 4.9-2.2 2.6 0 3.8 1.2 4.9 2.2.9.9 1.6 1.5 3.1 1.5s2.1-.6 3.1-1.5c1.1-1 2.3-2.2 4.9-2.2s3.8 1.2 4.9 2.2c.9.9 1.6 1.5 3.1 1.5s2.1-.6 3.1-1.5c1.1-1 2.3-2.2 4.9-2.2s3.8 1.2 4.9 2.2c.9.9 1.6 1.5 3.1 1.5s2.1-.6 3.1-1.5c1.1-1 2.3-2.2 4.9-2.2s3.8 1.2 4.9 2.2c.9.9 1.6 1.5 3.1 1.5s2.1-.6 3.1-1.5c1.1-1 2.3-2.2 4.9-2.2s3.8 1.2 4.9 2.2c.9.9 1.6 1.5 3.1 1.5s2.1-.6 3.1-1.5c1.1-1 2.3-2.2 4.9-2.2 2.6 0 3.8 1.2 4.9 2.2.9.9 1.6 1.5 3.1 1.5s2.1-.6 3.1-1.5c1.1-1 2.3-2.2 4.9-2.2s3.8 1.2 4.9 2.2c.9.9 1.6 1.5 3.1 1.5s2.1-.6 3.1-1.5c1.1-1 2.3-2.2 4.9-2.2v2.3z"/><path fill="#FFF" d="M1259 187H0v-20c15.6 0 15.6-14 31.3-14s15.6 14 31.3 14c15.6 0 15.6-14 31.3-14 15.6 0 15.6 14 31.3 14 15.6 0 15.6-14 31.3-14 15.6 0 15.6 14 31.3 14 15.6 0 15.6-14 31.3-14 15.6 0 15.6 14 31.3 14 15.6 0 15.6-14 31.3-14 15.6 0 15.6 14 31.3 14 15.6 0 15.6-14 31.3-14 15.6 0 15.6 14 31.3 14s15.6-14 31.3-14c15.6 0 15.6 14 31.3 14 15.6 0 15.6-14 31.3-14 15.6 0 15.6 14 31.3 14 15.6 0 15.6-14 31.3-14 15.6 0 15.6 14 31.3 14 15.6 0 15.6-14 31.3-14 15.6 0 15.6 14 31.3 14 15.6 0 15.6-14 31.3-14 15.6 0 15.6 14 31.3 14 15.6 0 15.6-14 31.3-14 15.6 0 15.6 14 31.3 14 15.6 0 15.6-14 31.3-14s15.6 14 31.3 14c15.6 0 15.6-14 31.3-14 15.6 0 15.6 14 31.3 14 15.6 0 15.6-14 31.3-14 15.6 0 15.6 14 31.3 14s15.6-14 31.3-14c15.6 0 15.6 14 31.3 14s15.6-14 31.3-14c15.6 0 15.6 14 31.3 14s15.6-14 31.3-14c15.6 0 15.6 14 31.3 14 15.6 0 15.6-14 31.3-14s15.6 14 31.3 14c15.6 0 15.6-14 31.3-14 15.6 0 15.6 14 31.3 14 3.8 0 6 .1 9 .1V187h-2z"/></svg>