<svg xmlns="http://www.w3.org/2000/svg"><style>display: none;</style><symbol id="icon-search" viewBox="0 0 17.6 17.6"><path d="M17.3 15.7l-3.4-3.4c1-1.3 1.5-2.9 1.5-4.6C15.4 3.4 12 0 7.7 0S0 3.4 0 7.7s3.4 7.7 7.7 7.7c1.7 0 3.3-.6 4.6-1.5l3.4 3.4c.2.2.4.3.8.3.6 0 1.1-.5 1.1-1.1 0-.2-.1-.5-.3-.8zm-15.1-8c0-3 2.5-5.5 5.5-5.5s5.5 2.5 5.5 5.5-2.5 5.5-5.5 5.5-5.5-2.5-5.5-5.5z"/></symbol><symbol id="icon-cart" viewBox="0 0 20.3 18.8"><path d="M19.5 7.2h-3.2L13 .4c-.2-.4-.6-.5-1-.3s-.5.6-.3 1l3.1 6.1H5.6l3.1-6.1c.2-.4 0-.8-.3-1s-.8 0-1 .3L3.9 7.2H.8c-.5 0-.8.4-.8.8s.3.7.8.7H1l.9 3c-.2.1-.3.3-.3.6 0 .4.3.7.7.7L4 18.8h12.7l1.7-5.8c.4 0 .7-.3.7-.7 0-.2-.1-.5-.3-.6l.9-3h.2c.4 0 .8-.3.8-.7-.4-.4-.7-.8-1.2-.8zm-4.1 10.1H4.9L3.7 13h12.9l-1.2 4.3zm1.6-5.7H3.3l-.8-2.9h15.4l-.9 2.9z"/></symbol><symbol id="icon-instagram" viewBox="0 0 21.8 21.3"><path d="M21.8 12.1c0-2.4-.3-4.8-.3-7.1 0-.8-.1-1.5-.2-2.3-.1-.3-.1-.7-.2-1.1-.3-.2-.2-.6-.5-.8-.4-.2-1.2-.1-1.7-.2-.7 0-1.3-.1-1.9-.2-1.9-.1-4-.1-6-.1S7 .2 5.3-.1H3.2c-.1.1-.1.2-.3.2-.6 0-1.1.2-1.6.3L.7.7C.5.9.1.8.1 1.1c-.2.2.2.5 0 .6v.9c.2.1 0 .6.1.8v1c0 1.3.1 2.4.1 3.7.5 2.8.4 6.5.1 9.4.2.6.4 1.1.5 1.7.3.5.3 1.1.7 1.5.3.3 1.1.3 1.7.3.4.1.7.3 1.1.3 2.8-.2 5.5-.2 8.4-.2 2.7.2 5.8.2 8.3-.2.2-.1.1-.5.2-.8-.1-.4.2-.4.2-.8.2-2.3.3-4.7.3-7.2zm-13-6.2c.8-.2 1.5-.3 2.4-.3.7.1 1.3.3 1.9.5.1.2-.2.5.2.7v.1c.1 0 .1 0 .2.1.4 0 .8.2 1.1.4.4.1.5.5 1.1.3-.1.2-.1.5-.1.8.3 1.2.5 2.8.3 4.3-.2.2-.2.4-.3.7-.3.3-.5.8-.8 1.1-.1.2-.3.4-.5.5-.1.2-.2.5-.5.5-.3.2-.6 0-.8-.1-.4.2-.9.3-1.2.6l-2.4-.3c-.2-.1-.5-.3-.8-.3-.3-.3-.6-.5-1-.6-.1-.1-.3-.1-.5-.2-.2 0-.2-.2-.5-.2-.1-.4-.4-.6-.5-1.1-.2-.3-.3-.8-.5-1.2 0-1.4.1-2.7.4-3.8.3-.6.8-1.1 1.1-1.7.2 0 .4-.1.4-.3.3.1.4-.1.7-.1.4.1.4-.2.6-.4zM7.1 3.2C7 2.9 7 2.5 7 2.1c0-.3.3-.3.3-.5 0-.1-.1-.1-.2-.1.1-.1.7-.1.8 0 .3.5-.2.5-.4.7 0 .2.3 0 .5.1 0 .9-.1 1.5 0 2.2h-.5c0 .2.2.2.5.2-.1.3 0 .4 0 .6-.2.2-.7 0-1 .1-.1-.6.2-1.4.1-2.2zm-.7-1.6c.1 0 .1 0 .2.1.2.3 0 .7-.1.9-.2-.2 0-.7-.1-1zm.2 1.8c-.2-.1-.2-.2-.2-.4.2 0 .2.2.2.4zm0 1.4c-.1.1-.1 0-.1-.2.1-.1.1.1.1.2zm-.2.2c.2 0 .1.2.2.2 0 .2-.3.2-.4.1.1-.1.2-.2.2-.3zM4.1 3.8c0-.1 0-.2-.1-.2-.1-.7.1-1.4 0-2 .3-.2.8 0 1.1-.1v1.1c0 .1-.2.1-.3.1-.1.3.3.2.3.3 0 .9-.1 1.8.2 2.4-.6 0-.9.2-1.5.1.1-.6 0-1.4.5-1.6.1-.1-.2 0-.2-.1zm-.6 0c-.2 0-.2-.5-.1-.6.4 0 .3.5.1.6zm-.1 1c.1-.3 0-.3.1-.7.2 0 .2.8-.1.7zm.2-2.1c-.2.1-.3-.2-.1-.4.2 0 .2.3.1.4zm0-1.1c0 .2-.1.2-.1.3-.2 0-.1-.2-.2-.2 0-.1.2-.1.3-.1zm-.2 3.7c.1 0 .1.3-.1.2.1 0 .1-.1.1-.2zm-.7-3.7c0 .3-.4.3-.4 0h.4zm-1 .1c0 .2-.3.2-.4.4-.2-.2.1-.5.4-.4zm-.4.7c.2-.2.4-.4.7-.6-.1-.1 0-.1 0-.2h.2c.2.4-.2.3-.2.5 0 .1-.1.1-.1.2 0 .3.1.6.1 1-.3 0-.3.3-.6.2 0-.4-.2-.6-.1-1.1zm0 3.3V4.1c.2-.2.4-.4.6-.5.3.4.2 1.4.5 1.9-.3.1-.7.1-1.1.2zm18.3 11.1c-.1 1-.2 2-.4 2.8-2.9.1-6 0-8.9.2-.2 0-.3 0-.2-.2-.3 0-.3.2-.5.2.2-.3.4-.9.2-1.3-.8 0-.8.8-1.1 1.3-.7-.1-1.1.1-1.8.1.2-.7.8-1 .9-1.7-.4-.6-1 .1-1.2.5-.2.5-.6.8-.8 1.3h-1c.2-.5.5-.9.8-1.4.2-.5.6-.7.7-1.4-.2-.3-.4 0-.7 0-.1.2-.3.3-.4.5-.2.4-.5.7-.7 1.1-.3.2-.5-.1-.7.2-.4.3-.6.7-1 1-.2-.1 0-.4.2-.4 0-.2-.1-.6.1-.6.1-.4.2-.6.4-.9.1-.7.5-1.2.7-1.9-.6.1-.7.6-1 1-.2.4-.5.8-.7 1.3-.2-.1 0-.6-.1-.8.1-.6.3-1.1.4-1.7.1-.4.2-.7.2-1 .2-.2 0-.6-.1-.8-.2 0-.4.1-.5.3-.2 0-.2.5-.3.3 0-2.6-.5-4.8-.5-7.4 0-.3-.2-.4-.2-.7 1.6 0 3.1.1 4.8.2 0 .2-.1.3-.2.5-.2 0-.3.1-.4.3-.6 1.7-1 4-.6 6.2.2.6.6 1 1 1.4.9.5 1.6 1.1 2.5 1.7 1.7.4 3.8.4 5.5 0 .2-.1.5-.2.7-.4 1.4-1.2 2.8-2.5 3-4.9v-1.4c-.2-1.6-.7-2.9-1.7-3.6.3-.2 1.1 0 1.7.1h.7c.4 0 .9-.1 1.4 0 .1.2.1.5.2.8-.1 1.7-.2 3.3-.2 5.1.1.5.1 1 .2 1.4-.1.9-.2 1.8-.4 2.7zm.3-11.2c-.6-.1-1.2-.3-1.9-.4.1-.3.8 0 1-.2.4-.2.3-.9.3-1.5 0-.3.1-.6.1-1.1-.4-.9-1.8-.4-2.9-.4-.2.7-.5 1.8-.3 2.7.2.5 1 .3 1.5.5-.1.3-.7.1-1 .1-.3-.1-.7-.1-1-.2-2.3.1-4.3 0-6.5.2.1-1.2.1-2.5-.1-3.6h3.1c-.3.2-.8.3-1.2.7-.4.2-.9.5-1.1.9.2.1.5-.2.8-.4.4-.1.5-.4.8-.5.4-.4 1.1-.6 1.7-.9.4 0 .7 0 1 .1 1.3 0 2.5.1 3.8.1.6.1 1.4.1 2 .3l.3.9c-.1 1-.3 1.8-.4 2.7zm-5.8-3.7c.1-.1 0-.1 0 0zm0 0c-.5.2-1 .3-1.4.7.5-.2 1.1-.3 1.4-.7zm1.1.6c.1 0 0-.1 0 0zm-1.8.9c.7-.2 1.2-.6 1.7-.9-.4 0-.6.3-1 .4-.1.2-.5.2-.7.5zm-.7-.8c-.1 0 0 .1 0 0zm-.7.6c.2-.1 0-.1 0 0zm0 .1s0-.1 0 0c0-.1 0-.1 0 0zm-.1 0c.1 0 .1 0 0 0 0-.1 0 0 0 0zm-.8.6c.3-.1.6-.3.8-.6-.4.2-.6.4-.8.6zm2.2 1c.5 0 .7-.4 1.2-.5.3-.3.8-.4 1-.8-.6 0-.8.4-1.2.5-.3.4-.7.5-1 .8zm-2.2-1c-.4 0-.1.3 0 0zm-.6.4s.1 0 0 0c.1-.1 0 0 0 0zm2.8.6c-.1.1 0 .1 0 0zm-1.1 1.8c-.2-.2-.7-.2-1-.4-.7 0-1.2.1-1.7.2l-.9.6c-.3.1-.5.4-.8.5-.2.2-.4.5-.7.6 0 .2-.2.3-.3.4-.1.1-.1.3-.2.4 0 .1 0 .3-.1.3.1 1.5.3 2.9.7 4.2.3.6 1 .8 1.4 1.3.6.3 1.3.4 2.1.5.3-.1.6-.1.9-.1 1.2-.2 2.1-.7 2.8-1.4.1-.3.3-.5.5-.7-.3-.7.3-1.1.5-1.6 0-1.3-.2-2.5-.6-3.4-.3-.6-.9-.8-1.4-1.1-.1 0-.2 0-.2-.1-.2-.2-.7-.3-1-.2zm-3.4 4.4c-.1-.1-.1-.2-.2-.4.3-.1.1.2.2.4zm.1.3c0-.1 0 0 0 0 0 .2 0 .1 0 0zm.4-2.1c0-.1.1 0 0 0 .1.1 0 .1 0 0zM11 7.2c-.2.3 0 .6.1.8-.3 0-.6-.8-.1-.8zm.4 4c-.1-.1 0-.1 0 0 .1-.1 0 0 0 0zm.7 2.8c0-.1.1 0 .2 0 0 .1-.2.1-.2 0zm2.2-2.5c-.2-.1-.1.2-.4.2.1-.2.1-.3.2-.5.2 0 .2.1.2.3zm-1.1-3.8c.2.1.4.2.6.4.1.2.2.4.4.5.1.8.2 1.5.2 2.4-.3.1-.4.3-.7.4-.8 0-1.4-.2-1.9-.5-.2-.3-.4-.5-.5-.8V9c.2-.2.3-.4.5-.6.2-.1.5-.2.5-.6 0-.1-.1-.1-.1-.2.2 0 .2.2.4.2.1 0 .2-.2.6-.1z"/></symbol><symbol id="icon-facebook" viewBox="0 0 15 27.7"><path d="M11.7 5.2c1 0 2 0 2.7-.3.4-.8.6-1.9.6-3-.2 0-.1-.3-.2-.4 0-.2-.3-.2-.3-.4-.3-.2-.5-.4-.7-.6-.8-.2-1.5-.3-2.2-.5-.8 0-1.9-.1-2.6.1-2.6 0-4 1.1-5.3 2.4 0 .1 0 .2-.1.2-.6 1.6-.1 3.6-.2 5.6.1.4.1 1 .2 1.4-1 .3-2.2.4-3.4.5-.3.3-.2 1.1-.2 1.7.1.6.3 1.1.4 1.6.2.2.6.4.8.5.1 0 .1.1.1.1.5.3 1.5 0 2.3.1-.1 2 .3 3.9 0 5.7 0 .3.3.4.2.8 0 1-.1 2 .2 2.7-.3.5-.5 1-.4 1.8.1 0 .1.2.1.3-.1.5.6.2.5.7.2.5-.4.2-.4.5v.9c.5.3 1.5.2 2.3.2.9-.4 2.2-.5 2.8-1.2.5.2.9 0 1.2-.2 0-.3.3-.3.2-.7 0-.3-.2-.5-.1-.9v-2.9c-.2-2.3 0-4.9-.3-7.2.9-.1 1.9-.1 2.6-.4.4-.5.4-1.2.5-1.9.2-.2.2-.6.2-1 .2-.2.1-.7.1-1.1-.1-.6-.2-1.3-.8-1.4-.9-.2-2 .6-3 .3 0-1.1-.3-2.3 0-3.4.7-.2 1.4-.4 2.2-.6zM7.8 10c.1.3.3.5.4.7.1 0 .2 0 .2.1 1.2.1 2.2-.1 3.1-.3 0 1-.3 1.7-.5 2.5-.7 0-1.5.3-2 .2-.3.2-.4.5-.6.7 0 .4.1.5 0 .8-.2.1-.1.6-.2.8V17c.1.3-.1.3-.1.5V21c-.1.3.1.3.1.5v3c.1.3-.1.8.1.9-.1.4-.4 0-.8.1-.5 0-.9.3-1.5.3.1-.4.3-.6.3-1.1 0-.4-.4-.3-.5-.5.2-.6.6-1.1.7-1.8.2-.5.7-1.3.3-1.8-.5-.1-.5.3-.8.4 0 .1 0 .2-.1.2 0 .1 0 .2-.1.2 0 .1-.2.1 0 0 0-.1 0-.2.1-.2 0-.1 0-.2.1-.2v-.3c.4-.6.7-1.2.8-2 .2-.3.3-.7.4-1 .2-.3.3-.9.1-1.2-.5 0-.8.3-.9.7-.3-.2.2-.4.1-.7.1-.2.2-.6.3-.8.2-.4.6-1.3 0-1.6-.4 0-.6.2-.7.5-.2.2-.4.4-.5.7-.4-.1-.1-.7-.2-1.1-.1-.5.1-.9 0-1.2-.6-.8-2-.1-3.2-.3-.1-.3-.2-1-.1-1.2 1-.1 2.5.2 3.2-.2 0-.1 0-.2.1-.2.1-.7-.3-1-.5-1.4.2-.8 0-2 .1-3 .2-.1.3-.4.5-.6.1-1 .7-1.5.7-2.5-.3 0-.6-.1-.6.2-.3 0-.4.6-.5.3-.1-.5.2-.6.3-1l1.8-1.2c1.7-.2 4.6-.4 6.1.2.1.6-.3.9-.2 1.5h-1.5c-1.1.2-2 .7-3 1-.3.1-.3.3-.5.4 0 .4-.2.6-.3 1-.1 1.4.1 2.6 0 4z"/></symbol><symbol id="icon-twitter" viewBox="0 0 23.5 20.2"><path d="M23.5 4.1c-.2-.4-.9-.3-1.4-.4H21c.1-.4.3-.6.5-1 .1-.4.3-.7.2-1.3l.3-.6c.1-.1.2-.5.1-.7-.1-.1-.4-.1-.6-.1-.1 0-.2.1-.2.1-.4.4-.8 1-1.3 1.4h-.1c-.1 0 0 0-.1.1s-.3.2-.4.2c-.3.2-.5.4-.9.5-.5-.1-1.1-.2-1.8-.3-1.2.1-2.3.2-3 .7-.9.3-1.5 1-2.1 1.6 0 .3-.3.4-.4.7 0 0 0 .1-.1.1 0 .2-.1.3-.1.5 0 .1.2.4 0 .5-.8-.1-1.5-.6-2.1-1-.8-.2-1.5-.4-2.1-.9-.7-.4-1.3-.9-1.8-1.4-.2-.3-.5-.5-.7-.9-.3-.1-.1-.9-.7-.9-.3 0-.4.2-.4.4-.1.2-.4.2-.4.5 0 0 0 .1-.1.1-.2 1.1-.5 2-.5 3.3.1.4.3.7.6 1-.4.1-.7.2-.9.5-.1 1.1.4 1.7.7 2.3.1.4.4.7.6 1 0 .2.2.3.3.4 0 .1.1.1.1.2s.3.2.1.2c-.4.1-1 .1-1.3.4-.1.3-.1.8 0 1.1 0 .2.3.3.3.5.5.4 1.1.7 1.6 1.1.6.2 1.2.3 1.9.4-.1.3-.3.6-.6.7-.8.4-1.8.5-2.7.7-.6 0-1 .2-1.6.2-.3.1-.9.1-1.1.2l-.2.2c-.1.4.1.7.4.9 0 .3.2.3.4.4.1.2.3.3.4.4.5.5 1.3.8 1.9 1.1.8.2 1.6.4 2.5.5 1 .3 2 .3 3 .4h1c.5.1 1.2.1 1.9.1.1-.1.3-.1.5-.1.5-.3 1.2-.4 1.6-.7.6-.2 1-.6 1.6-.9.9-.8 1.9-1.3 2.5-2.4.2-.2.4-.4.4-.7.3-.2.4-.5.6-.7.4-.4.7-.9 1-1.4.3-.5.6-1.1.9-1.6 0-.4.3-.5.3-.9.2-.2.2-.7.4-.9 0-.3 0-.4.1-.6 0-1.3 0-2.4-.3-3.4.6-.2 1.2-.3 1.6-.6.5-.1.9-.5.8-1.2zM20 8.2c-.2.9-.6 1.4-1 2 .1.4-.1.5-.1.9-.2.3-.3.7-.4 1-.2.3-.3.6-.5.9-.4.5-.8 1.1-1.2 1.6-.4.6-.9 1-1.3 1.5s-.9.9-1.4 1.3c-.5.2-.9.4-1.3.7-.2.1-.5.2-.7.3-.2.1-.5.1-.7.3-1.1.1-2.3.2-3.6.1-1-.1-2.1-.2-3-.4-.9-.2-1.5-.7-2.3-1 .2-.2.6-.2 1-.2.1-.2.5-.1.5-.2.3.1.3-.1.5-.1.6-.2 1.2-.3 1.7-.6.3-.1.4-.4.7-.6 0-.2.1-.3.2-.4 0-.3.2-.4.1-.8.1-.2.3-.3.3-.7-.1-.1-.1-.3-.3-.4 0-.2-.4-.1-.4-.2-.3 0-.4 0-.6-.1-.2 0-.5.1-.5-.1-.8 0-1.3-.4-1.9-.7.4-.3 1-.4 1.3-.7.5-.1 1.1-.1 1.1-.7 0-.7-.8-.7-1.3-.8-.7-.7-1.1-1.7-1.7-2.5.3-.2.6-.3.8-.5.5.1.5-.3.7-.5-.1-.5-.4-.6-.7-.8-.2-.2-.4-.5-.6-.8 0-.8 0-1.7.1-2.4.1 0 .1 0 .1.1.2.4.6.8.8 1.2.5.4.9.9 1.5 1.1.5.4 1.1.6 1.6 1 .5.3 1.1.7 1.6 1 .7.2 1.1.7 2 .6l.6-.3c.3-.5-.1-1.1.1-1.6.3-.7.8-1 1.3-1.5l.9-.6c.3-.1.7-.2 1-.4.4 0 .7-.1 1-.1h1.3c.2.1.5.1.7.1.2.1.4.3.7.4.8.7 1.3 1.7 1.4 3-.2.6 0 1-.1 1.6zm.3-5.7c-.1.3-.2.7-.6.8 0-.1-.1-.1-.1-.2 0-.2.2-.2.3-.3.2-.1.2-.2.4-.3 0-.1.1 0 0 0zm-5.4 3.1c.2.1.3.3.5.4.1.2.3.3.6.4 0-.2.3 0 .4-.2.2 0 .2-.2.3-.3 0-.5-.1-1-.4-1.3-.8-.6-1.7-.1-1.4 1z"/></symbol><symbol id="icon-htmlacademy" viewBox="0 0 26.9 34"><path d="M13.62.017L13.472 0 0 1.412v24.661l13.473 8.017 13.43-7.99.042-.025V1.412L13.62.017zm11.399 12.11L13.495 5.334l-.001-.104-.087.05-.088-.056v.109L1.925 12.118V3.147l11.548-1.212L25.02 3.147v8.98zm-11.614-5.34L24.923 13.5l-4.479 2.64-7.093-4.221-.014 1.415 5.904 3.513-.86.507-5.03-2.992-.014 1.415 3.827 2.275-.782.523-3.031-1.787-.014 1.413 1.853 1.091-1.8 1.081-11.356-6.751 11.371-6.835zm-11.48 8.34l11.411 6.791.016 1.044-7.942-4.728-.015 1.416 7.979 4.795.018 1.076-7.973-4.74-.013 1.414 8.021 4.822.046.025 8.143-4.872-.011-5.177 3.415-2.036v10.021L13.472 31.85 1.925 24.979v-9.852z"/></symbol><symbol id="icon-logo-footer" viewBox="0 0 101.6 34.1"><path d="M19.135 21.495c-.083-2.683-.51-5.347-.475-8.035.028-2.174.389-4.41-.36-6.495.047-.237.096-.473.14-.711.193-1.045-3.271-.492-3.813.464-.343.28-.519.615-.375.957.037.086.069.174.102.261-.656 3.204-1.57 6.306-2.621 9.412-.402 1.188-.888 2.349-1.298 3.533-.582-1.104-1.169-2.194-1.643-3.377-1.374-3.433-2.612-6.902-4.287-10.206.19-1.528-3.204-1.368-3.873.032-.809 1.694-.705 3.403-.438 5.214.3 2.042.353 4.05.377 6.111.047 3.976.358 7.943.417 11.919-.354.395-.461.881-.091 1.375.162.216.361.382.571.549.904.724 3.5.107 3.496-1.271-.014-4.123-.312-8.238-.42-12.358a98.054 98.054 0 0 1-.024-1.21l.171.434c.64 1.604 1.31 3.163 2.185 4.654.868 1.478 1.303 3.064 1.803 4.677-.189.217-.303.462-.233.708-.039.18.07.292.251.36.639.548 1.841.274 2.509-.007a6.07 6.07 0 0 0 .826-.424c.345-.212.883-.679.729-1.159l-.087-.279c.47-1.27.709-2.589.965-3.93.272-1.428.782-2.78 1.295-4.133.052.619.106 1.238.156 1.855.204 2.554.033 5.072.007 7.626-.008.847.054 1.633.219 2.461.068.343.367 1.808.281 1.887-.611.564-.433 1.257.385 1.437.915.201 2.081-.105 2.77-.742 1.198-1.106.632-2.845.361-4.241-.452-2.342.095-4.964.022-7.348zM27.499 22.17c-.074-1.988-.765-3.862-.774-5.872-.011-2.305.181-4.593-.155-6.886-.106-.725-4.056.1-3.917 1.05.309 2.11.197 4.229.159 6.354-.037 2.044.468 3.898.73 5.904.269 2.054-.084 4.157.149 6.213.109.962.75 2.743.089 3.58-.42.532 1.469.342 1.553.326.769-.142 1.793-.392 2.304-1.038.653-.828.196-2.426.053-3.357-.316-2.059-.114-4.195-.191-6.274zM43.828 18.851c-2.062-2.784-5.889-.78-8.561-1.54-1.377-.392-1.395-2.271-1.392-3.396.004-1.426-.114-2.732-.273-4.146-.119-1.052-.024-2.121.746-2.904.142-.144.859-.336.81-.339a8.132 8.132 0 0 1 1.067-.093c1.549-.066 4.613.232 4.019 2.483-.266 1.01 3.596.431 3.877-.637 1.213-4.598-7.284-3.714-9.686-3.078-2.21.588-4.648 1.846-4.775 4.399-.061 1.219.273 2.379.325 3.587.061 1.39-.198 2.776.289 4.118 1.082 2.982 5.52 1.576 7.778 1.745 3.845.287 2.697 5.469 2.748 7.883.027 1.288 1.181 3.429.211 4.507-.595.662-1.982.699-2.792.768-.813.068-2.201.312-2.742-.461-.993-1.418.091-3.799-.121-5.425-.121-.924-4.066-.095-3.917 1.05.342 2.627-1.399 6.145 2.402 6.596 2.441.289 5.191-.161 7.5-.928 1.196-.396 2.307-.942 3.243-1.793 1.035-.941.694-2.348.417-3.547-.677-2.918.731-6.279-1.173-8.849zM61.155 18.662c-.122-3.777-.69-7.513-.706-11.297-.008-1.971-3.963-1.305-3.957.343.015 3.608.497 7.167.682 10.764l.013.221c-1.949-.018-3.899.177-5.853.246.201-4.633-.611-9.227-.435-13.857.022-.582-3.874-.09-3.917 1.049-.171 4.475.587 8.915.453 13.392-.064 2.136-.245 4.264-.259 6.402-.007 1.095.171 2.183.329 3.263.146.999.484 2.331.182 3.318-.237.772 3.561.29 3.862-.694.544-1.778-.222-4.039-.405-5.839-.175-1.725-.039-3.499.083-5.248 2.03-.13 4.059-.297 6.08-.012.09 1.378.196 2.754.322 4.134a45.83 45.83 0 0 1 .196 3.475c.015 1.019.142 2.496-.221 3.461-.773 2.057 3.15 1.889 3.723.364.703-1.87.502-4.199.383-6.164-.148-2.443-.477-4.874-.555-7.321zM78.087 23.136c-.939-2.758-2.373-5.177-3.616-7.797 1.001-1.949 2.018-3.898 2.932-5.888.831-1.808 1.446-3.819 3.08-5.092.574-.447.55-.896-.255-.951-.875-.061-2.064.192-2.77.742-1.485 1.158-2.427 2.563-3.201 4.268a160.304 160.304 0 0 1-2.914 6.075l-.224.443c-.49.315-.785.762-.639 1.266-.792 1.563-1.6 3.117-2.499 4.61-.299-5.534-.955-11.061-1.15-16.6-.045-1.27-3.971-.479-3.917 1.049.243 6.868 1.219 13.719 1.286 20.587l-.047.051c-.301.308-.19.494.051.602a60.756 60.756 0 0 1-.209 5.254c-.472.745.463 1.139 1.084 1.139h.096c.739 0 2.626-.35 2.718-1.364.191-2.1.251-4.196.232-6.291 1.59-1.715 2.89-3.63 4.055-5.635.759 1.48 1.482 2.972 1.989 4.582.861 2.741 2.299 5.261 3.131 8.014.544 1.806 4.457.738 3.917-1.049-.829-2.753-2.204-5.297-3.13-8.015zM101.59 18.501c-.21-.832-1.372-.849-2.271-.77-.012-.335-.02-.671-.036-1.006-.125-2.661-.165-5.379-.392-8.032-.209-2.458-1.585-3.337-3.972-3.247-2.416.092-5.229.527-7.482 1.403-2.607 1.014-4.058 2.935-4.559 5.681-.549 3.014.24 6.219.373 9.246.154 3.503.066 7.014.062 10.519 0 .573 3.916.031 3.917-1.049.003-2.776.042-5.551 0-8.327a52.196 52.196 0 0 0-.102-2.444c1.369-.593 3.687.012 5.05.141 1.107.104 2.169-.166 3.244-.292.021 2.312.107 4.635.202 6.944.049 1.184.477 3.53-.354 4.511-.437.516 1.48.343 1.555.33.793-.146 1.761-.401 2.303-1.041.949-1.12.456-3.79.401-5.126-.078-1.91-.102-3.824-.141-5.737 1.154-.147 2.417-.854 2.202-1.704zm-14.618-.15c-.103-1.245-.217-2.49-.303-3.743-.16-2.331.117-5.583 2.29-6.999.58-.379 1.675-.315 2.354-.438.97-.176 1.956-.389 2.829.19 1.21.802.912 3.657.911 4.869-.003 2.005.207 4.001.31 6.003-.552.055-1.111.089-1.683.076-2.286-.053-4.544-.413-6.708.042zM24.108 6.7a3.157 3.157 0 0 0 1.477-.524l.256-.216c.52-.335.972-.827.728-1.361-.504-1.105-.423-2.231-.416-3.414.006-.958-.963-1.246-1.781-1.174-.723.063-2.168.581-2.175 1.52-.006.993-.071 2.016.109 2.992-.047.113-.074.239-.104.355-.055.212.016.42.142.59l.002.134.015.335a.901.901 0 0 0 .429.53c.388.233.878.275 1.318.233z"/></symbol><symbol id="icon-telephone" viewBox="0 0 24.8 24.3"><path d="M17.321 24.333h-1.115c-4.904-.58-8.497-2.857-11.11-5.772C2.473 15.637.402 11.875 0 6.817V5.459c.091-.921.544-1.55 1.067-2.086.65-.666 1.63-1.522 2.522-1.553.659-.022 1.78.451 2.232 1.066.388.53.595 1.59.775 2.378.185.797.6 1.95.485 2.717-.176 1.196-1.764 1.703-2.231 2.572 1.551 3.721 4.089 6.456 7.472 8.345.847-.465 1.595-1.864 2.767-1.892.428-.012.972.209 1.406.34.477.143.891.326 1.311.484.705.266 1.957.621 2.378 1.213.433.61.681 1.608.581 2.231-.194 1.234-2.227 2.603-3.444 3.059z" id="UrwUhy_2_"/><path d="M12.529 1.528c5.949 0 10.771 4.822 10.771 10.771h1.529C24.829 5.507 19.323 0 12.529 0v1.528zM12.529 9.327v1.552a1.42 1.42 0 0 1 1.421 1.42h1.553a2.973 2.973 0 0 0-2.974-2.972z"/><path d="M12.529 6.246a6.054 6.054 0 0 1 6.056 6.054h1.588a7.642 7.642 0 0 0-7.644-7.641v1.587z"/></symbol><symbol id="icon-e-mail" viewBox="0 0 32 21"><path d="M28 0H4C1.8 0 0 1.8 0 4v13c0 2.2 1.8 4 4 4h24c2.2 0 4-1.8 4-4V4c0-2.2-1.8-4-4-4zM2 5.3l7 5.3-7 5.3V5.3zM30 17c0 1.1-.9 2-2 2H4c-1.1 0-2-.9-2-2l7.8-5.9 4.4 3.3c.5.4 1.2.6 1.8.6.6 0 1.3-.2 1.8-.6l4.4-3.3L30 17zm0-1.2l-7-5.3 7-5.3v10.6zm-12.8-2.2c-.4.3-.8.4-1.2.4s-.9-.1-1.2-.4l-4.1-3.1-.9-.6L2 4c0-1.1.9-2 2-2h24c1.1 0 2 .9 2 2l-12.8 9.6z"/></symbol></svg>