<svg version="1.1" id="Слой_1" xmlns="http://www.w3.org/2000/svg" xmlns:xlink="http://www.w3.org/1999/xlink" x="0px" y="0px" width="1260px" height="247px" viewBox="0 0 1260 247" style="enable-background:new 0 0 1260 247" xml:space="preserve">
  <style type="text/css">
    .st0{fill:#63D1BB;} .st1{fill:#231F20;} .st2{fill:#149080;} .st3{fill:#FFFFFF;} .st4{fill:#6BC6B3;} .st5{fill:#333333;} .st6{fill:#46C1AE;} .st7{fill:#F1F1F1;}
  </style>
  <g>
    <g>
      <path class="st0" d="M352.3,14.1c-0.4,2.1-0.4,4.2,0,6.3l4.1-3.2L352.3,14.1z"/>
      <path class="st0" d="M376.4,1.6C371.6-0.6,366-0.5,361.1,2l7.5,5.6L376.4,1.6z"/>
      <path class="st0" d="M385.9,13.2l-4.8,3.7l4.9,3.7C386.5,18.2,386.5,15.6,385.9,13.2z"/>
      <path class="st0" d="M361.2,32.4c4.8,2.5,10.7,2.6,15.7,0.1l-8.1-6.1L361.2,32.4z"/>
      <path class="st0" d="M359.9,14.4l-6.2-4.7c-0.3,0.7-0.6,1.4-0.8,2.1l5.3,4L359.9,14.4z"/>
      <path class="st0" d="M370.6,25.1l8.3,6.2c0.3-0.2,0.6-0.4,0.8-0.6c0.3-0.2,0.6-0.5,0.9-0.8l-8.3-6.2L370.6,25.1z"/>
      <path class="st0" d="M363.4,11.7L356,6.2c-0.5,0.6-0.9,1.1-1.3,1.7l6.9,5.2L363.4,11.7z"/>
      <path class="st0" d="M374.1,22.4l8.1,6.1c0.5-0.5,0.9-1.1,1.3-1.7l-7.6-5.7L374.1,22.4z"/>
      <path class="st0" d="M366.9,9l-7.7-5.8c-0.2,0.1-0.4,0.3-0.6,0.4c-0.4,0.3-0.8,0.6-1.1,1l7.7,5.7L366.9,9z"/>
      <path class="st0" d="M377.6,19.6l7,5.2c0.3-0.7,0.6-1.3,0.9-2l-6.1-4.5L377.6,19.6z"/>
      <path class="st0" d="M378.4,2.7l-25.6,19.9c0.2,0.7,0.5,1.4,0.8,2.1L380.2,4C379.7,3.5,379.1,3.1,378.4,2.7z"/>
      <path class="st0" d="M382.7,6.6c-0.3-0.4-0.6-0.8-0.9-1.1l-27,21c0.3,0.4,0.5,0.8,0.8,1.2c0.1,0.2,0.3,0.4,0.4,0.5l27.1-21.1 C383,7,382.9,6.8,382.7,6.6z"/>
      <path class="st0" d="M384.3,9l-26.7,20.8c0.5,0.5,1.1,1,1.7,1.4l26-20.2C385,10.3,384.7,9.6,384.3,9z"/>
    </g>
  </g>
  <g>
    <path class="st0" d="M250,37.2c8.8,0,16-7.2,16-16C257.1,21.2,250,28.4,250,37.2z M238.6,16.3c0,2.5,2,4.4,4.4,4.4 c0.9,0,1.8-0.3,2.5-0.8v0.3c0,2.5,2,4.4,4.4,4.4s4.4-2,4.4-4.4v-0.3c0.7,0.5,1.6,0.8,2.5,0.8c2.5,0,4.4-2,4.4-4.4 c0-1.8-1-3.3-2.5-4c1.5-0.7,2.5-2.2,2.5-4c0-2.5-2-4.4-4.4-4.4c-0.9,0-1.8,0.3-2.5,0.8V4.4c0-2.5-2-4.4-4.4-4.4 c-2.5,0-4.4,2-4.4,4.4v0.3c-0.6-0.5-1.5-0.8-2.4-0.8c-2.5,0-4.4,2-4.4,4.4c0,1.8,1,3.3,2.5,4C239.7,13,238.6,14.6,238.6,16.3z M250,7.9c2.5,0,4.4,2,4.4,4.4s-2,4.4-4.4,4.4c-2.5,0-4.4-2-4.4-4.4C245.5,9.9,247.5,7.9,250,7.9z M234,21.2c0,8.8,7.2,16,16,16 C250,28.4,242.8,21.2,234,21.2z"/>
  </g>
  <g>
    <path class="st0" d="M448.1,31.8h13v-14h-13V31.8z M476.1,8.8h-7.3c0.5-0.3,1-0.5,1.4-0.8c1.6-1.1,2.4-2.6,2.4-4 c0-1.2-0.6-2.2-1.4-2.9s-1.9-1.1-3-1.1c-1.2,0-2.4,0.4-3.3,1.1c-1.5,1-2.6,2.5-3.4,4.1c0,0.1-0.1,0.2-0.1,0.2 c-0.3-0.6-0.6-1.2-1-1.8c-0.7-1-1.5-1.9-2.5-2.5S455.8,0,454.6,0c-1.2,0-2.3,0.5-3.2,1.3c-0.8,0.8-1.4,1.9-1.4,3.1 c0,0.7,0.2,1.5,0.6,2.2c0.6,0.9,1.4,1.6,2.6,2.2h-6.6c-0.9,0-1.6,0.7-1.6,1.6v5.4h15v-7h3v7h15v-5.7c0-0.9-0.7-1.6-1.6-1.6 M453.9,6c-0.6-0.4-1-0.8-1.2-1.1c-0.2-0.4-0.3-0.7-0.3-1c0-0.5,0.2-1,0.7-1.5c0.4-0.4,1-0.7,1.6-0.7l0,0c0.7,0,1.4,0.2,2,0.7 c1,0.7,2,1.9,2.6,3.2c0.3,0.7,0.6,1.4,0.8,2.1C457.1,7.4,455.1,6.7,453.9,6 M464.4,4.4c0.6-0.8,1.2-1.5,1.9-1.9 c0.7-0.5,1.4-0.7,2-0.7l0,0c0.6,0,1.1,0.2,1.5,0.6c0.4,0.3,0.6,0.7,0.6,1.2s-0.3,1.3-1.5,2.1c-1.1,0.8-3.1,1.7-6.1,2.3 C463.1,6.7,463.7,5.4,464.4,4.4 M462.1,31.8h13v-14h-13V31.8z"/>
  </g>
  <g>
    <path class="st0" d="M350,8.7c0-4.8-3.9-8.7-8.7-8.7c-3.4,0-6.3,2-7.8,4.8C332.1,2,329.1,0,325.7,0c-4.8,0-8.7,3.9-8.7,8.7 c0,9.1,14.7,19.1,16.5,19.1C335.4,27.9,350,17.9,350,8.7z"/>
  </g>
  <g>
    <path class="st0" d="M311.1,0h-39.2c-2.2,0-3.9,1.7-3.9,3.9v19.2c0,2.2,1.7,3.9,3.9,3.9h39.2c2.2,0,3.9-1.7,3.9-3.9V3.9 C315,1.7,313.3,0,311.1,0z M271,24V2h40v22H271z"/>
    <path class="st0" d="M275,20h32V6h-32V20z M291.5,8.1c2.9,0,5.3,2.4,5.3,5.3s-2.4,5.3-5.3,5.3s-5.3-2.4-5.3-5.3 C286.2,10.4,288.5,8.1,291.5,8.1z"/>
  </g>
  <g>
    <g>
      <path class="st0" d="M428.7,5.7c-3.6-1-7.8-1.7-12.3-1.7c-2.9,0-5.4,0.2-7.6,0.6L402.1,0h-13l5.6,6h8.2c-4.4,1.5-6.6,3.4-6.6,3.4 v4.2c0,0,2.2,1.9,6.7,3.4h-8.4l-5.6,6h13l6.8-4.7c2.2,0.4,4.8,0.6,7.6,0.6c4.5,0,8.6-0.7,12.3-1.7c-1.2-1.8-1.9-3.7-1.9-5.8 C426.8,9.4,427.6,7.4,428.7,5.7z"/>
      <path class="st0" d="M432.2,6.6c-1.3,1.6-2,3.2-2,4.8s0.7,3.2,2,4.8c6.4-2.2,10.4-4.8,10.4-4.8S438.7,8.8,432.2,6.6z"/>
    </g>
  </g>
  <g>
    <g>
      <g transform="translate(-755.000000, -443.000000)">
        <g>
          <path class="st0" d="M1871.2,447v38.4l39.8-19.3L1871.2,447z M1864,524v-81h4.1v81H1864z"/>
        </g>
      </g>
    </g>
    <g>
      <rect x="1109" class="st1" width="4.1" height="81"/>
    </g>
  </g>
  <g>
    <g>
      <path class="st2" d="M146.1,38.6c-0.3,1-0.3,2.2,0,3.7c0.5,2.7,1.7,6.2,2.4,9.9h5.2c0.7-3.7,2-7.2,2.5-9.9c0.3-1.5,0.3-2.7,0-3.7 c-0.3-0.9-0.9-1.7-2.1-2.4H148C146.9,36.9,146.3,37.7,146.1,38.6z"/>
      <path class="st2" d="M158,58.2h-13.8c-1.3,0.1-2.3,1.1-1.8,2.4v1.6h1.8H158h2.4v-1.6C160.3,59.3,159.3,58.4,158,58.2z"/>
      <path class="st2" d="M165.1,2.2h-11.7c0-1.2-1-2.2-2.3-2.2s-2.3,1-2.3,2.2h-11.7L131,27.7c0.8-0.5,1.6-1,2.6-1 c1.4,0,2.2,0.8,2.9,1.4s1.2,0.8,1.4,0.8c0.3,0,0.8-0.3,1.5-0.8s1.6-1.4,2.9-1.4s2.2,0.8,2.9,1.4c0.7,0.5,1.2,0.8,1.5,0.8 c0.1,0,0.3-0.1,0.6-0.2s0.5-0.4,0.9-0.6c0.5-0.4,1.1-1,2-1.2c0.3-0.1,0.6-0.1,0.9-0.1c1.3,0,2.2,0.8,2.9,1.4 c0.7,0.5,1.2,0.8,1.5,0.8s0.8-0.3,1.4-0.9c0.7-0.6,1.6-1.4,2.9-1.4c1.4,0,2.2,0.8,2.9,1.4c0.3,0.3,0.6,0.5,0.9,0.6 c0.2,0.1,0.4,0.2,0.6,0.2c0.3,0,0.8-0.3,1.4-0.9c0.7-0.6,1.6-1.4,2.9-1.4c1,0,1.8,0.5,2.6,1L165.1,2.2z"/>
      <path class="st2" d="M154.5,54.2h-6.9c-0.7-0.3-1.1,0.2-1.1,0.8s0.5,1.1,1.1,1.2h6.9c0.7-0.1,1.1-0.6,1.1-1.2 C155.7,54.4,155.2,53.9,154.5,54.2L154.5,54.2z"/>
      <path class="st2" d="M151.1,29.4c-0.1,0-0.3,0.1-0.6,0.2c-0.2,0.1-0.4,0.3-0.1,0.4v4.2h2V30C151.8,29.7,151.3,29.4,151.1,29.4z"/>
    </g>
  </g>
  <g>
    <polygon points="530,11 487.7,11 495.8,2.8 493,0 480,13 480,13 480,13 493,26 495.8,23.2 487.7,15 530,15"/>
  </g>
  <g>
    <path class="st3" d="M640.4,9.2c-12.9-12.3-33.8-12.3-46.7,0s-12.9,32.2,0,44.5c0,0,23.3,21.8,23.3,47c0-25.2,23.3-47,23.3-47 C653.3,41.5,653.3,21.5,640.4,9.2z"/>
    <path class="st4" d="M631.1,45.5c-0.6-3.3,0.1-6.9,0-10.3c-0.1-3.8-0.7-7.5-0.7-11.2c0-3,0.5-6.2-0.5-9.1c0.1-0.3,0.1-0.7,0.2-1 c0.3-1.5-4.6-0.7-5.3,0.6c-0.5,0.4-0.7,0.9-0.5,1.3c0.1,0.1,0.1,0.2,0.1,0.4c-0.9,4.5-2.2,8.8-3.7,13.2c-0.6,1.7-1.2,3.3-1.8,4.9 c-0.8-1.5-1.6-3.1-2.3-4.7c-1.9-4.8-3.7-9.7-6-14.3c0.3-2.1-4.5-1.9-5.4,0c-1.1,2.4-1,4.8-0.6,7.3c0.4,2.9,0.5,5.7,0.5,8.6 c0.1,5.6,0.5,11.1,0.6,16.7c-0.5,0.6-0.6,1.2-0.1,1.9c0.2,0.3,0.5,0.5,0.8,0.8c1.3,1,4.9,0.2,4.9-1.8c0-5.8-0.4-11.5-0.6-17.3 c0-0.6,0-1.1,0-1.7c0.1,0.2,0.2,0.4,0.2,0.6c0.9,2.2,1.8,4.4,3.1,6.5c1.2,2.1,1.8,4.3,2.5,6.5c-0.3,0.3-0.4,0.6-0.3,1 c-0.1,0.3,0.1,0.4,0.4,0.5c0.9,0.8,2.6,0.4,3.5,0c0.4-0.2,0.8-0.4,1.2-0.6c0.5-0.3,1.2-1,1-1.6c0-0.1-0.1-0.3-0.1-0.4 c0.7-1.8,1-3.6,1.4-5.5c0.4-2,1.1-3.9,1.8-5.8c0.1,0.9,0.1,1.7,0.2,2.6c0.3,3.6,0,7.1,0,10.7c0,1.2,0.1,2.3,0.3,3.4 c0.1,0.5,0.5,2.5,0.4,2.6c-0.9,0.8-0.6,1.8,0.5,2c1.3,0.3,2.9-0.1,3.9-1C632.3,49.9,631.5,47.5,631.1,45.5z"/>
  </g>
  <g>
    <polygon class="st1" points="42.5,1.4 41.1,0 32.3,8.8 23.4,0 22,1.4 30.8,10.3 22,19.1 23.4,20.5 32.3,11.7 41.1,20.5 42.5,19.1 33.7,10.3"/>
  </g>
  <g>
    <rect class="st1" width="20" height="2"/>
    <rect y="6" class="st1" width="20" height="2"/>
    <rect y="12" class="st1" width="20" height="2"/>
  </g>
  <g>
    <g>
      <g>
        <path class="st0" d="M945.9,18.3c0,0-0.9-7-3.8-10.1c-3.6-4-7.7-4.1-9.5-4.3c-13.3-1-33.2-1-33.2-1h-0.1c0,0-19.9,0-33.2,1 c-1.9,0.2-5.9,0.3-9.5,4.3c-2.8,3.1-3.8,10.1-3.8,10.1s-0.9,8.2-0.9,16.4v7.7c0,8.2,0.9,16.4,0.9,16.4s0.9,7,3.8,10.1 c3.6,4,8.3,3.9,10.5,4.3c7.6,0.8,32.3,1,32.3,1s20,0,33.3-1c1.9-0.2,5.9-0.3,9.5-4.3c2.8-3.1,3.8-10.1,3.8-10.1s0.9-8.2,0.9-16.4 v-7.7C946.9,26.5,945.9,18.3,945.9,18.3z"/>
        <path class="st3" d="M899.4,76.9L899.4,76.9c-1,0-25-0.3-32.7-1h-0.1h-0.1c-0.3-0.1-0.7-0.1-1.1-0.2c-2.5-0.3-7.2-0.9-10.9-5 c-3.4-3.6-4.4-10.8-4.5-11.6l0,0c0-0.3-1-8.5-1-16.8v-7.7c0-8.3,0.9-16.4,0.9-16.7v-0.1c0.1-0.8,1.2-7.9,4.5-11.6 c4-4.4,8.6-4.9,10.7-5.1c0.2,0,0.4,0,0.5-0.1h0.1c13.3-1,33.4-1,33.6-1h0.1c0.2,0,20.3,0,33.6,1h0.1c0.2,0,0.3,0,0.5,0.1 c2.2,0.2,6.7,0.7,10.7,5.1c3.4,3.6,4.4,10.8,4.5,11.6l0,0c0,0.3,1,8.5,1,16.8v7.7c0,8.3-0.9,16.4-1,16.8v0.1 c-0.1,0.8-1.2,8-4.5,11.6c-4,4.4-8.6,4.9-10.7,5.1c-0.2,0-0.4,0-0.5,0.1H933C919.7,76.9,899.6,76.9,899.4,76.9L899.4,76.9 L899.4,76.9z M867.8,70.8c7.5,0.7,31.3,1,32.1,1c0.7,0,20.2,0,33.2-1c0.2,0,0.4,0,0.6-0.1c1.8-0.2,4.6-0.5,7.2-3.3l0,0 c1.8-2,2.9-6.9,3.1-8.6c0.1-0.5,0.9-8.4,0.9-16.1V35c0-7.8-0.9-15.6-1-16.1c-0.3-2.4-1.4-6.8-3.1-8.5l0,0 c-2.6-2.9-5.4-3.1-7.2-3.3c-0.2,0-0.4,0-0.6-0.1c-13.1-1-33-1-33.2-1h-0.1c-0.2,0-20,0-33.2,1c-0.2,0-0.4,0-0.6,0.1 c-1.8,0.2-4.6,0.5-7.2,3.3l0,0c-1.8,2-2.9,6.9-3.1,8.6c-0.1,0.6-0.9,8.4-0.9,16.1v7.7c0,7.7,0.9,15.6,0.9,16.1 c0.3,2.4,1.4,6.8,3.1,8.5l0,0c2.3,2.6,5.3,3,7.5,3.3C866.9,70.7,867.4,70.7,867.8,70.8z"/>
      </g>
    </g>
    <g>
      <polygon class="st3" points="887.9,20.8 887.9,56.5 917.6,38.6"/>
    </g>
  </g>
  <g>
    <polygon points="532,11 574.3,11 566.2,2.8 569,0 582,13 582,13 582,13 569,26 566.2,23.2 574.3,15 532,15"/>
  </g>
  <g>
    <polygon points="984.7,1.4 983.3,0 963.3,19.9 953.4,10 952,11.4 961.9,21.3 961.9,21.3 963.3,22.7 963.3,22.7 963.3,22.7 964.8,21.3 964.8,21.3"/>
  </g>
  <g>
    <path class="st2" d="M173,43.6l27,15.7v-23l-27-15.7V43.6z M224,12.4v1.7c0,1.8-3.4,3.3-7.5,3.3s-7.5-1.5-7.5-3.3V10h-0.7 c0,0,3.6,3.9,7.7,3.9c4.3,0,7.7-1.5,7.7-3.3s-3.5-3.3-7.7-3.3c-0.3,0-0.7,0-1,0l-5-2.9v3.1c0,1.8-3.4,3.3-7.7,3.3 c-2.7,0-5-0.6-6.4-1.5c-0.2-0.2-0.4-0.4-0.7-0.6c-0.4-0.4-0.6-0.8-0.1-1.2v-3l-5.2,2.8c-0.3,0-0.7,0-1.1,0c-4.3,0-7.7,1.5-7.7,3.3 s3.5,3.3,7.7,3.3c4.1,0,7.7-2.9,7.7-2.9H196v4.1c0,1.8-3.4,3.3-7.5,3.3s-7.5-1.5-7.5-3.3v-2.6l-6,3.5l27.7,16l27.5-16L224,12.4z M210,23c0,1.8-3.4,3.2-7.5,3.2S195,24.8,195,23v-4l0,0c0.3,1.7,3.5,3,7.5,3s7.2-1.3,7.5-3l0,0V23L210,23z M205,36.5v22.8l27-15.7 V20.9L205,36.5z M202.3,6.6c4.3,0,7.7-1.5,7.7-3.3S206.5,0,202.3,0c-4.3,0-7.7,1.5-7.7,3.3S198,6.6,202.3,6.6"/>
  </g>
  <g>
    <g transform="translate(0 192)">
      <path class="st0" d="M841-182.2l6-4v16l-6-4V-182.2z M839-182v8c0,2.2-1.8,4-4,4h-16c-2.2,0-4-1.8-4-4v-8c0-2.2,1.8-4,4-4h9.9 c0-1.1,1-2.1,2.1-2.1v-1.9h-11c-0.6,0-1-0.4-1-1s0.4-1,1-1h12c0.5,0,1,0.4,1,1v2.9c1.1,0.1,2,1,2,2.1C837.2-186,839-184.2,839-182 z M827-182h-8v8h8V-182z M834.9-181c0-0.6-0.4-1-1-1h-4c-0.6,0-1,0.4-1,1s0.4,1,1,1h4C834.5-180,834.9-180.4,834.9-181z"/>
    </g>
  </g>
  <g>
    <path class="st0" d="M799.6,0L799.6,0L786,1.4v24.7l13.5,8l13.5-8l0,0V1.4L799.6,0z M810.7,12.4l-11.7-7V5.3h0.1l0.9-0.1V5.1 l-12,7.2V3.4l11.5-1.2L811,3.5v9L810.7,12.4L810.7,12.4z M799.1,6.8l11.5,6.7l-4.5,2.6L799,12v1.4l5.9,3.5l-0.9,0.5l-5-3v1.4 l3.8,2.3l-0.8,0.5l-3-1.8v1.4l1.9,1.1l-1.9,1.1l-11.3-6.7L799.1,6.8z M788,15.3l11,6.5V23l-8-4.8v1.4l8,4.8v1.1l-8-4.8V22l8.4,5.1 l0,0l8.5-5.1v-5l3-2v10l-11.5,6.8L788,25V15.3z"/>
  </g>
  <g>
    <path class="st1" d="M62.3,15.7l-3.4-3.4c1-1.3,1.5-2.9,1.5-4.6C60.4,3.4,57,0,52.7,0S45,3.4,45,7.7s3.4,7.7,7.7,7.7 c1.7,0,3.3-0.6,4.6-1.5l3.4,3.4c0.2,0.2,0.4,0.3,0.8,0.3c0.6,0,1.1-0.5,1.1-1.1C62.6,16.3,62.5,16,62.3,15.7z M47.2,7.7 c0-3,2.5-5.5,5.5-5.5s5.5,2.5,5.5,5.5s-2.5,5.5-5.5,5.5S47.2,10.7,47.2,7.7z"/>
  </g>
  <g>
    <path class="st1" d="M104.5,7.2h-3.2L98,0.4c-0.2-0.4-0.6-0.5-1-0.3s-0.5,0.6-0.3,1l3.1,6.1h-9.1l3.1-6.1c0.2-0.4,0-0.8-0.3-1 s-0.8,0-1,0.3l-3.4,6.8h-3.2C85.3,7.2,85,7.6,85,8c0,0.4,0.3,0.7,0.8,0.7H86l0.9,3c-0.2,0.1-0.3,0.3-0.3,0.6c0,0.4,0.3,0.7,0.7,0.7 l1.7,5.8h12.7l1.7-5.8c0.4,0,0.7-0.3,0.7-0.7c0-0.2-0.1-0.5-0.3-0.6l0.9-3h0.2c0.4,0,0.8-0.3,0.8-0.7C105.3,7.6,105,7.2,104.5,7.2z M100.4,17.3H89.9L88.7,13h12.9L100.4,17.3z M102,11.6H88.3l-0.8-2.8h15.4L102,11.6z"/>
  </g>
  <g>
    <g>
      <g>
        <path class="st1" d="M711.7,5.2c1,0,2,0,2.7-0.3c0.4-0.8,0.6-1.9,0.6-3c-0.2,0-0.1-0.3-0.2-0.4c0-0.2-0.3-0.2-0.3-0.4 c-0.3-0.2-0.5-0.4-0.7-0.6c-0.7-0.2-1.4-0.3-2.2-0.5c-0.8,0-1.9-0.1-2.6,0.1c-2.6,0-4,1.1-5.3,2.4c0,0.1,0,0.2-0.1,0.2 c-0.6,1.6-0.1,3.6-0.2,5.6c0.1,0.4,0.1,1,0.2,1.4c-1,0.3-2.2,0.4-3.4,0.5c-0.3,0.3-0.2,1.1-0.2,1.7c0.1,0.6,0.3,1.1,0.4,1.6 c0.2,0.2,0.6,0.4,0.8,0.5c0.1,0,0.1,0.1,0.1,0.1c0.5,0.3,1.5,0,2.3,0.1c-0.1,2,0.3,3.9,0,5.7c0,0.3,0.3,0.4,0.2,0.8 c0,1-0.1,2,0.2,2.7c-0.3,0.5-0.5,1-0.4,1.8c0.1,0,0.1,0.2,0.1,0.3c-0.1,0.5,0.6,0.2,0.5,0.7c0.2,0.5-0.4,0.2-0.4,0.5v0.9 c0.5,0.3,1.5,0.2,2.3,0.2c0.9-0.4,2.2-0.5,2.8-1.2c0.5,0.2,0.9,0,1.2-0.2c0-0.3,0.3-0.3,0.2-0.7c0-0.3-0.2-0.5-0.1-0.9v-2.9 c-0.2-2.3,0-4.9-0.3-7.2c0.9-0.1,1.9-0.1,2.6-0.4c0.4-0.5,0.4-1.2,0.5-1.9c0.2-0.2,0.2-0.6,0.2-1c0.2-0.2,0.1-0.7,0.1-1.1 c-0.1-0.6-0.2-1.3-0.8-1.4c-0.9-0.2-2,0.6-3,0.3c0-1.1-0.3-2.3,0-3.4C710.2,5.6,710.9,5.4,711.7,5.2z M707.8,10 c0.1,0.3,0.3,0.5,0.4,0.7c0.1,0,0.2,0,0.2,0.1c1.2,0.1,2.2-0.1,3.1-0.3c0,1-0.3,1.7-0.5,2.5c-0.7,0-1.5,0.3-2,0.2 c-0.3,0.2-0.4,0.5-0.6,0.7c0,0.4,0.1,0.5,0,0.8c-0.2,0.1-0.1,0.6-0.2,0.8V17c0.1,0.3-0.1,0.3-0.1,0.5V21 c-0.1,0.3,0.1,0.3,0.1,0.5v3c0.1,0.3-0.1,0.8,0.1,0.9c-0.1,0.4-0.4,0-0.8,0.1c-0.5,0.1-0.9,0.4-1.5,0.4c0.1-0.4,0.3-0.6,0.3-1.1 c0-0.4-0.4-0.3-0.5-0.5c0.2-0.6,0.6-1.1,0.7-1.8c0.2-0.5,0.7-1.3,0.3-1.8c-0.5-0.1-0.5,0.3-0.8,0.4c0,0.1,0,0.2-0.1,0.2 c0,0.1,0,0.2-0.1,0.2c0,0.1-0.2,0.1,0,0c0-0.1,0-0.2,0.1-0.2c0-0.1,0-0.2,0.1-0.2v-0.3c0.4-0.6,0.7-1.2,0.8-2 c0.2-0.3,0.3-0.7,0.4-1c0.2-0.3,0.3-0.9,0.1-1.2c-0.5,0-0.8,0.3-0.9,0.7c-0.3-0.2,0.2-0.4,0.1-0.7c0.1-0.2,0.2-0.6,0.3-0.8 c0.2-0.4,0.6-1.3,0-1.6c-0.4,0-0.6,0.2-0.7,0.5c-0.2,0.2-0.4,0.4-0.5,0.7c-0.4-0.1-0.1-0.7-0.2-1.1c-0.1-0.5,0.1-0.9,0-1.2 c-0.6-0.8-2-0.1-3.2-0.3c-0.1-0.3-0.2-1-0.1-1.2c1-0.1,2.5,0.2,3.2-0.2c0-0.1,0-0.2,0.1-0.2c0.1-0.7-0.3-1-0.5-1.4 c0.2-0.8,0-2,0.1-3c0.2-0.1,0.3-0.4,0.5-0.6c0.1-1,0.7-1.5,0.7-2.5c-0.3,0-0.6-0.1-0.6,0.2c-0.3-0.1-0.4,0.5-0.5,0.2 c-0.1-0.5,0.2-0.6,0.3-1c0.6-0.4,1.2-0.8,1.9-1.2c1.7-0.2,4.6-0.4,6.1,0.2c0.1,0.6-0.3,0.9-0.2,1.5h-1.5c-1.1,0.2-2,0.7-3,1 c-0.2,0.1-0.3,0.3-0.5,0.4c0,0.4-0.2,0.6-0.3,1C707.7,7.4,707.9,8.6,707.8,10z"/>
      </g>
    </g>
  </g>
  <g>
    <g>
      <g>
        <path class="st1" d="M673.9,12.2c0-2.4-0.3-4.8-0.3-7.1c0-0.8-0.1-1.5-0.2-2.3c-0.1-0.3-0.1-0.7-0.2-1.1 c-0.3-0.2-0.2-0.6-0.5-0.8c-0.4-0.2-1.2-0.1-1.7-0.2c-0.7,0-1.3-0.1-1.9-0.2c-1.9-0.1-4-0.1-6-0.1s-4-0.1-5.7-0.4h-2.2 c-0.1,0-0.1,0.1-0.2,0.1c-0.6,0-1.1,0.2-1.6,0.3c-0.2,0.1-0.4,0.2-0.7,0.3c-0.1,0.2-0.5,0.1-0.6,0.4c-0.2,0.2,0.2,0.5,0,0.6v0.9 c0.2,0.1,0,0.6,0.1,0.8v1c0,1.3,0.1,2.4,0.1,3.7c0.5,2.8,0.4,6.5,0.1,9.4c0.2,0.6,0.4,1.1,0.5,1.7c0.3,0.5,0.3,1.1,0.7,1.5 c0.5,0.2,1.2,0.2,1.9,0.2c0.4,0.1,0.7,0.3,1.1,0.3c2.8-0.2,5.5-0.2,8.4-0.2c2.7,0.2,5.8,0.2,8.3-0.2c0.2-0.1,0.1-0.5,0.2-0.8 c-0.1-0.4,0.2-0.4,0.2-0.8C673.8,17.1,673.9,14.7,673.9,12.2z M660.9,6c0.8-0.2,1.5-0.3,2.4-0.3c0.7,0.1,1.3,0.3,1.9,0.5 c0.1,0.2-0.2,0.5,0.2,0.7V7c0.1,0,0.1,0,0.2,0.1c0.4,0,0.8,0.2,1.1,0.4c0.5,0.1,0.5,0.5,1.1,0.3c-0.1,0.2-0.1,0.5-0.1,0.8 c0.3,1.2,0.5,2.8,0.3,4.3c-0.2,0.2-0.2,0.4-0.3,0.7c-0.3,0.3-0.5,0.8-0.8,1.1c-0.1,0.2-0.3,0.4-0.5,0.5c-0.1,0.2-0.2,0.5-0.5,0.5 c-0.3,0.2-0.6,0-0.8-0.1c-0.4,0.2-0.9,0.3-1.2,0.6c-0.8-0.1-1.6-0.2-2.4-0.3c-0.2-0.1-0.5-0.3-0.8-0.3c-0.2-0.2-0.5-0.4-0.8-0.5 c-0.1-0.1-0.3-0.1-0.5-0.2c-0.2,0-0.2-0.2-0.5-0.2c-0.1-0.4-0.4-0.6-0.5-1.1c-0.2-0.3-0.3-0.8-0.5-1.2c0-1.4,0.1-2.7,0.4-3.8 c0.3-0.6,0.8-1.1,1.1-1.7c0.2,0,0.4-0.1,0.4-0.3c0.3,0.1,0.4-0.1,0.7-0.1C660.7,6.5,660.7,6.2,660.9,6z M659.2,3.3 c-0.1-0.3-0.1-0.7-0.1-1.1c0-0.3,0.3-0.3,0.3-0.5c0-0.1-0.1-0.1-0.2-0.1c0.1-0.1,0.7-0.1,0.8,0c0.1,0.5-0.4,0.5-0.5,0.7 c0,0.2,0.3,0,0.5,0.1c0,0.9-0.1,1.5,0,2.2h-0.5c0,0.2,0.2,0.2,0.5,0.2c0,0.3,0.1,0.4,0.1,0.6c-0.2,0.2-0.7,0-1.1,0.1 C659,4.9,659.3,4.1,659.2,3.3z M658.5,1.7c0.1,0,0.1,0,0.2,0.1c0.2,0.3,0,0.7-0.1,0.9C658.4,2.5,658.6,2,658.5,1.7z M658.7,3.5 c-0.1-0.1-0.2-0.2-0.2-0.5C658.7,3.1,658.7,3.3,658.7,3.5z M658.7,4.9c-0.1,0.1-0.1,0-0.1-0.2C658.7,4.6,658.7,4.8,658.7,4.9z M658.5,5.1c0.2,0,0.1,0.2,0.2,0.2c0,0.2-0.3,0.2-0.4,0.1C658.4,5.3,658.5,5.2,658.5,5.1z M656.2,3.9c0-0.1,0-0.2-0.1-0.2 c-0.1-0.7,0.1-1.4,0-2c0.3-0.2,0.8,0,1.1-0.1v1.1c-0.1,0.1-0.2,0.1-0.4,0.1c-0.1,0.3,0.3,0.1,0.4,0.3c0,0.9-0.1,1.8,0.2,2.4 c-0.6-0.1-0.9,0.1-1.4,0.1c0.1-0.6,0-1.4,0.5-1.6C656.5,3.9,656.2,4,656.2,3.9z M655.6,3.9c-0.2,0-0.2-0.5-0.1-0.6 C655.9,3.3,655.8,3.8,655.6,3.9z M655.5,4.9c0.1-0.3,0-0.3,0.1-0.7C655.8,4.2,655.8,5,655.5,4.9z M655.7,2.8 c-0.3,0.1-0.3-0.3-0.2-0.4C655.8,2.4,655.8,2.7,655.7,2.8z M655.7,1.7c0,0.2-0.1,0.2-0.1,0.3c-0.2,0-0.1-0.2-0.2-0.2 C655.4,1.7,655.6,1.7,655.7,1.7z M655.5,5.4c0.1,0,0.1,0.3-0.1,0.2C655.5,5.6,655.5,5.5,655.5,5.4z M654.8,1.7 c0,0.3-0.4,0.3-0.4,0H654.8z M653.8,1.8c0,0.2-0.3,0.2-0.4,0.4C653.2,2,653.5,1.7,653.8,1.8z M653.4,2.5c0.2-0.2,0.5-0.4,0.7-0.6 c0-0.1,0.1-0.1,0.1-0.2h0.2c0.1,0.4-0.3,0.3-0.3,0.5c0,0.1-0.1,0.1-0.1,0.2c0,0.3,0.1,0.6,0.1,1c-0.3,0-0.3,0.3-0.6,0.2 C653.5,3.2,653.3,3,653.4,2.5z M653.4,5.8V4.2c0.2-0.2,0.4-0.4,0.6-0.5c0.3,0.5,0.2,1.4,0.5,1.9C654.2,5.7,653.8,5.7,653.4,5.8z M671.7,16.9c-0.1,1-0.2,2-0.4,2.8c-2.9,0.1-6,0-8.9,0.2c-0.2,0-0.3,0-0.2-0.2c-0.3,0-0.3,0.2-0.5,0.2c0.2-0.3,0.4-0.9,0.2-1.3 c-0.8,0-0.8,0.8-1.1,1.3c-0.7-0.1-1.1,0.1-1.8,0.1c0.2-0.7,0.8-1,0.9-1.7c-0.4-0.6-1,0.1-1.2,0.5c-0.2,0.5-0.6,0.8-0.8,1.3h-1 c0.2-0.5,0.5-0.9,0.8-1.4c0.2-0.5,0.6-0.7,0.7-1.4c-0.2-0.3-0.4,0-0.7,0c-0.1,0.2-0.3,0.3-0.4,0.5c-0.2,0.4-0.5,0.7-0.7,1.1 c-0.2,0.2-0.3,0-0.5,0.2c-0.4,0.3-0.6,0.7-1,1c-0.2-0.1,0-0.4,0.2-0.4c0-0.2-0.1-0.6,0.1-0.6c0.1-0.4,0.2-0.6,0.4-0.9 c0.1-0.7,0.5-1.2,0.7-1.9c-0.6,0.1-0.7,0.6-1,1c-0.2,0.4-0.5,0.8-0.7,1.3c-0.2-0.1,0-0.6-0.1-0.8c0.1-0.6,0.3-1.1,0.4-1.7 c0.1-0.2,0.2-0.5,0.2-0.8c0.2-0.2,0-0.6-0.1-0.8c-0.2,0-0.4,0.1-0.5,0.3c-0.2,0-0.2,0.5-0.3,0.3c0-2.6-0.5-4.8-0.5-7.4 c0-0.3-0.2-0.4-0.2-0.7c1.6,0,3.1,0.1,4.8,0.2c-0.1,0.1-0.2,0.3-0.3,0.4s-0.2,0.2-0.4,0.3c-0.6,1.7-1,4-0.6,6.2 c0.2,0.6,0.6,1,1,1.4c0.9,0.5,1.6,1.1,2.5,1.7c1.7,0.4,3.8,0.4,5.5,0c0.2-0.1,0.5-0.2,0.7-0.4c1.4-1.2,2.8-2.5,3-4.9v-1.4 c-0.2-1.6-0.7-2.9-1.7-3.6c0.3-0.2,1.1,0,1.7,0.1c0.2,0,0.4,0,0.7,0c0.4,0,0.9-0.1,1.4,0c0.1,0.2,0.1,0.5,0.2,0.8 c-0.1,1.7-0.2,3.3-0.2,5.1c0.1,0.5,0.1,1,0.2,1.4C672,15.1,671.9,16,671.7,16.9z M672,5.7c-0.6-0.1-1.2-0.3-1.9-0.4 c0.1-0.3,0.8,0,1-0.2c0.4-0.2,0.3-0.9,0.3-1.5c0-0.3,0.1-0.6,0.1-1.1c-0.4-1-1.8-0.4-2.9-0.5c-0.2,0.7-0.5,1.8-0.3,2.7 c0.2,0.5,1,0.3,1.5,0.5c-0.1,0.3-0.7,0.1-1,0.1c-0.3-0.1-0.7-0.1-1-0.2c-2.3,0.1-4.3,0-6.5,0.2c0.1-1.2,0.1-2.5-0.1-3.6h3.1 c-0.3,0.4-0.9,0.5-1.3,0.8c-0.4,0.2-0.9,0.5-1.1,0.9c0.2,0.1,0.5-0.2,0.8-0.4c0.4-0.1,0.5-0.4,0.8-0.5c0.4-0.4,1.1-0.6,1.7-0.9 c0.4,0,0.7,0,1,0.1c1.3,0,2.5,0.1,3.8,0.1c0.6,0.1,1.5,0.1,2,0.3c0.1,0.3,0.2,0.6,0.3,0.9C672.3,4,672.1,4.8,672,5.7z M666.2,2 C666.3,1.9,666.2,1.9,666.2,2L666.2,2z M666.2,2c-0.5,0.2-1,0.3-1.4,0.7C665.3,2.5,665.9,2.4,666.2,2z M667.3,2.6 C667.4,2.6,667.3,2.5,667.3,2.6L667.3,2.6z M665.5,3.5c0.7-0.2,1.2-0.6,1.7-0.9c-0.4,0-0.6,0.3-1,0.4 C666.1,3.2,665.7,3.2,665.5,3.5z M664.8,2.7C664.7,2.7,664.8,2.8,664.8,2.7L664.8,2.7z M664.1,3.3C664.3,3.2,664.1,3.2,664.1,3.3 L664.1,3.3z M664.1,3.4C664.1,3.4,664.1,3.3,664.1,3.4C664.1,3.3,664.1,3.3,664.1,3.4z M664,3.4C664.1,3.4,664.1,3.4,664,3.4 C664,3.3,664,3.4,664,3.4z M663.2,4c0.3-0.1,0.6-0.3,0.8-0.6C663.6,3.6,663.4,3.8,663.2,4z M665.4,5c0.5,0,0.7-0.4,1.2-0.5 c0.3-0.3,0.8-0.4,1-0.8c-0.6,0-0.8,0.4-1.2,0.5C666.1,4.6,665.7,4.7,665.4,5z M663.2,4C662.8,4,663.1,4.3,663.2,4L663.2,4z M662.6,4.4C662.6,4.4,662.7,4.4,662.6,4.4C662.7,4.3,662.6,4.4,662.6,4.4z M665.4,5C665.3,5.1,665.4,5.1,665.4,5L665.4,5z M664.3,6.8c-0.2-0.2-0.7-0.2-1-0.4c-0.7,0-1.2,0.1-1.7,0.2c-0.3,0.2-0.6,0.3-0.9,0.5c-0.3,0.2-0.4,0.4-0.8,0.5 c-0.2,0.2-0.4,0.5-0.7,0.6c0,0.2-0.2,0.3-0.3,0.4c-0.1,0.1-0.1,0.3-0.2,0.4c0,0.1,0,0.3-0.1,0.3c0.1,1.5,0.3,2.9,0.7,4.2 c0.3,0.6,1,0.8,1.4,1.3c0.6,0.3,1.3,0.4,2.1,0.5c0.3-0.1,0.6-0.1,0.9-0.1c1.2-0.2,2.1-0.7,2.8-1.4c0.1-0.3,0.3-0.5,0.5-0.7 c-0.3-0.7,0.3-1.1,0.5-1.6c0-1.3-0.2-2.5-0.6-3.4c-0.3-0.6-0.9-0.8-1.4-1.1c-0.1,0-0.2,0-0.2-0.1C665.1,6.8,664.6,6.7,664.3,6.8z M660.9,11.2c-0.1-0.1-0.1-0.2-0.2-0.4C661,10.7,660.8,11,660.9,11.2z M661,11.5C661,11.4,661,11.5,661,11.5 C661,11.7,661,11.6,661,11.5z M661.4,9.4C661.4,9.3,661.5,9.4,661.4,9.4C661.5,9.5,661.4,9.5,661.4,9.4z M663.1,7.3 c-0.2,0.3,0,0.6,0.1,0.8C662.9,8.1,662.6,7.3,663.1,7.3z M663.5,11.3C663.4,11.2,663.5,11.2,663.5,11.3 C663.6,11.2,663.5,11.3,663.5,11.3z M664.2,14.1c0-0.1,0.1,0,0.2,0C664.4,14.2,664.2,14.2,664.2,14.1z M666.4,11.6 c-0.2-0.1-0.1,0.2-0.4,0.2c0.1-0.2,0.1-0.3,0.2-0.5C666.4,11.3,666.4,11.4,666.4,11.6z M665.3,7.8c0.2,0.1,0.4,0.2,0.6,0.4 c0.1,0.2,0.2,0.4,0.4,0.5c0.1,0.8,0.2,1.5,0.2,2.4c-0.3,0.1-0.4,0.3-0.7,0.4c-0.8,0-1.4-0.2-1.9-0.5c-0.2-0.3-0.4-0.5-0.5-0.8 V9.1c0.2-0.2,0.3-0.4,0.5-0.6c0.2-0.1,0.5-0.2,0.5-0.6c0-0.1-0.1-0.1-0.1-0.2c0.2,0,0.2,0.2,0.4,0.2 C664.8,7.9,664.9,7.7,665.3,7.8z"/>
      </g>
    </g>
  </g>
  <g>
    <g>
      <g>
        <path class="st1" d="M757.5,4.1c-0.2-0.4-0.9-0.3-1.4-0.4H755c0.1-0.4,0.3-0.6,0.5-1c0.1-0.4,0.3-0.7,0.2-1.3 c0.1-0.2,0.2-0.4,0.3-0.6c0.1-0.1,0.2-0.5,0.1-0.7C756,0,755.7,0,755.5,0c-0.1,0-0.2,0.1-0.2,0.1c-0.4,0.4-0.8,1-1.3,1.4h-0.1 c-0.1,0,0,0-0.1,0.1s-0.3,0.2-0.4,0.2c-0.3,0.2-0.5,0.4-0.9,0.5c-0.5-0.2-1.2-0.3-1.9-0.4c-1.2,0.1-2.3,0.2-3,0.7 c-0.9,0.3-1.5,1-2.1,1.6c0,0.3-0.3,0.4-0.4,0.7c0,0,0,0.1-0.1,0.1c0,0.2-0.1,0.3-0.1,0.5c0,0.1,0.2,0.4,0,0.5 c-0.8-0.1-1.5-0.6-2.1-1c-0.7-0.4-1.5-0.6-2.1-1.1c-0.7-0.3-1.3-0.8-1.8-1.3c-0.2-0.3-0.5-0.5-0.7-0.9c-0.2,0.1,0-0.7-0.6-0.7 c-0.3,0-0.3,0.2-0.4,0.4c-0.1,0.2-0.4,0.2-0.4,0.5c0,0,0,0.1-0.1,0.1c-0.2,1.1-0.5,2-0.5,3.3c0.1,0.4,0.3,0.7,0.6,1 c-0.4,0.1-0.7,0.2-0.9,0.5c-0.1,1.1,0.4,1.6,0.7,2.3c0.1,0.4,0.4,0.7,0.6,1c0,0.2,0.2,0.3,0.3,0.4c0,0.1,0.1,0.1,0.1,0.2 c0,0.1,0.3,0.2,0.1,0.2c-0.4,0.1-1,0.1-1.3,0.4c-0.1,0.3-0.1,0.8,0,1.1c0,0.2,0.3,0.3,0.3,0.5c0.5,0.4,1.1,0.7,1.6,1.1 c0.6,0.2,1.2,0.3,1.9,0.4c-0.1,0.3-0.3,0.6-0.6,0.7c-0.8,0.4-1.8,0.5-2.7,0.7c-0.6,0-1,0.2-1.6,0.2c-0.3,0.1-0.9,0.1-1.1,0.2 c-0.1,0.1-0.1,0.1-0.2,0.2c-0.1,0.4,0.1,0.7,0.4,0.9c0,0.3,0.2,0.3,0.4,0.4c0.1,0.2,0.3,0.3,0.4,0.4c0.5,0.5,1.3,0.8,1.9,1.1 c0.8,0.2,1.6,0.4,2.5,0.5s1.9,0.1,2.8,0.2h1c0.5,0.1,1.2,0.1,1.9,0.1c0.1-0.1,0.3-0.1,0.5-0.1c0.5-0.3,1.2-0.4,1.6-0.7 c0.6-0.2,1-0.6,1.6-0.9c0.9-0.8,1.9-1.3,2.5-2.4c0.2-0.2,0.4-0.4,0.4-0.7c0.3-0.2,0.4-0.5,0.6-0.7c0.4-0.4,0.7-0.9,1-1.4 s0.6-1.1,0.9-1.6c0-0.4,0.3-0.5,0.3-0.9c0.2-0.2,0.2-0.7,0.4-0.9c0-0.3,0-0.4,0.1-0.6c0-1.3,0-2.4-0.3-3.4 c0.6-0.2,1.2-0.3,1.6-0.6C757.2,5.2,757.6,4.8,757.5,4.1z M754,8.2c-0.2,0.9-0.6,1.4-1,2c0.1,0.4-0.1,0.5-0.1,0.9 c-0.2,0.3-0.3,0.7-0.4,1c-0.2,0.3-0.3,0.6-0.5,0.9c-0.4,0.5-0.8,1.1-1.2,1.6c-0.4,0.6-0.9,1-1.3,1.5c-0.4,0.5-0.9,0.9-1.4,1.3 c-0.5,0.2-0.9,0.4-1.3,0.7c-0.2,0.1-0.5,0.2-0.7,0.3c-0.2,0.1-0.5,0.1-0.7,0.3c-1.1,0.1-2.3,0.2-3.6,0.1c-1-0.1-2.1-0.2-3-0.4 c-0.9-0.2-1.5-0.7-2.3-1c0.2-0.2,0.6-0.2,1-0.2c0-0.2,0.4,0,0.4-0.1c0.3,0.1,0.3-0.1,0.5-0.1c0.6-0.2,1.2-0.3,1.7-0.6 c0.3-0.1,0.4-0.4,0.7-0.6c0-0.2,0.1-0.3,0.2-0.4c0-0.3,0.2-0.4,0.1-0.8c0.1-0.2,0.3-0.3,0.3-0.7c-0.1-0.1-0.1-0.3-0.3-0.4 c0-0.2-0.4-0.1-0.4-0.2c-0.3,0-0.4,0-0.6-0.1c-0.2,0-0.5,0.1-0.5-0.1c-0.8,0-1.3-0.4-1.9-0.7c0.4-0.3,1-0.4,1.3-0.7 c0.5-0.1,1.1-0.1,1.1-0.7c0-0.7-0.8-0.7-1.3-0.8c-0.8-0.7-1.2-1.7-1.8-2.5c0.2-0.2,0.6-0.2,0.7-0.4c0.5,0.1,0.5-0.3,0.7-0.5 c0-0.5-0.3-0.6-0.6-0.8c-0.3-0.2-0.5-0.5-0.7-0.7c0-0.8,0-1.7,0.1-2.4c0.1,0,0.1,0,0.1,0.1c0.2,0.4,0.6,0.8,0.8,1.2 c0.5,0.4,0.9,0.9,1.6,1.1c0.5,0.4,1.1,0.6,1.6,1c0.6,0.3,1.2,0.6,1.7,0.9c0.7,0.2,1.1,0.7,2,0.6c0.2-0.1,0.4-0.2,0.6-0.3 c0.3-0.5-0.1-1.1,0.1-1.6c0.3-0.7,0.8-1,1.3-1.5c0.3-0.2,0.6-0.3,0.8-0.5c0.3-0.1,0.7-0.2,1-0.4c0.4,0,0.7-0.1,1-0.1h1.3 c0.2,0.1,0.5,0.1,0.7,0.1c0.2,0.1,0.4,0.3,0.7,0.4c0.8,0.7,1.3,1.7,1.4,3C753.9,7.2,754.1,7.6,754,8.2z M754.3,2.5 c-0.1,0.3-0.2,0.7-0.6,0.8c0-0.1-0.1-0.1-0.1-0.2c0-0.2,0.2-0.2,0.3-0.3C754.1,2.7,754.1,2.6,754.3,2.5 C754.3,2.4,754.4,2.5,754.3,2.5z M748.9,5.6c0.2,0.1,0.3,0.3,0.5,0.4c0.1,0.2,0.3,0.3,0.6,0.4c0-0.2,0.3,0,0.4-0.2 c0.2,0,0.2-0.2,0.3-0.3c0-0.5-0.1-1-0.4-1.3C749.5,4,748.6,4.5,748.9,5.6z"/>
      </g>
    </g>
  </g>
  <g>
    <path class="st5" d="M1068,0h-24c-2.2,0-4,1.8-4,4v13c0,2.2,1.8,4,4,4h24c2.2,0,4-1.8,4-4V4C1072,1.8,1070.2,0,1068,0z M1042,5.3 l7,5.3l-7,5.3V5.3z M1070,17c0,1.1-0.9,2-2,2h-24c-1.1,0-2-0.9-2-2l7.8-5.9l4.4,3.3c0.5,0.4,1.2,0.6,1.8,0.6s1.3-0.2,1.8-0.6 l4.4-3.3L1070,17L1070,17z M1070,15.8l-7-5.3l7-5.3V15.8z M1057.2,13.6c-0.3,0.3-0.8,0.4-1.2,0.4s-0.9-0.1-1.2-0.4l-4.1-3.1 l-0.8-0.6L1042,4l0,0c0-1.1,0.9-2,2-2h24c1.1,0,2,0.9,2,2L1057.2,13.6z"/>
  </g>
  <g>
    <g>
      <g>
        <g>
          <path d="M1004.3,24.3c-0.4,0-0.7,0-1.1,0c-4.9-0.6-8.5-2.9-11.1-5.8s-4.7-6.7-5.1-11.7c0-0.5,0-0.9,0-1.4 c0.1-0.9,0.5-1.5,1.1-2.1c0.7-0.7,1.6-1.5,2.5-1.6c0.7,0,1.8,0.5,2.2,1.1c0.4,0.5,0.6,1.6,0.8,2.4s0.6,1.9,0.5,2.7 c-0.2,1.2-1.8,1.7-2.2,2.6c1.6,3.7,4.1,6.5,7.5,8.3c0.8-0.5,1.6-1.9,2.8-1.9c0.4,0,1,0.2,1.4,0.3c0.5,0.1,0.9,0.3,1.3,0.5 c0.7,0.3,2,0.6,2.4,1.2s0.7,1.6,0.6,2.2C1007.6,22.5,1005.5,23.9,1004.3,24.3z"/>
        </g>
      </g>
      <path d="M999.5,1.5c5.9,0,10.8,4.8,10.8,10.8h1.5c0-6.8-5.5-12.3-12.3-12.3V1.5z"/>
      <path d="M999.5,9.3v1.6c0.8,0,1.4,0.6,1.4,1.4h1.6C1002.5,10.7,1001.2,9.3,999.5,9.3z"/>
      <path d="M999.5,6.2c3.3,0,6.1,2.7,6.1,6.1h1.6c0-4.2-3.4-7.6-7.6-7.6L999.5,6.2L999.5,6.2z"/>
    </g>
  </g>
  <g>
    <path class="st0" d="M1176.2,21.4c-0.1-2.7-0.5-5.3-0.5-8c0-2.2,0.4-4.4-0.4-6.5c0-0.2,0.1-0.5,0.1-0.7c0.2-1-3.3-0.5-3.8,0.5 c-0.3,0.3-0.5,0.6-0.4,1c0,0.1,0.1,0.2,0.1,0.3c-0.7,3.2-1.6,6.3-2.6,9.4c-0.4,1.2-0.9,2.3-1.3,3.5c-0.6-1.1-1.2-2.2-1.6-3.4 c-1.4-3.4-2.6-6.9-4.3-10.2c0.2-1.5-3.2-1.4-3.9,0c-0.8,1.7-0.7,3.4-0.4,5.2c0.3,2,0.4,4,0.4,6.1c0,4,0.4,7.9,0.4,11.9 c-0.4,0.4-0.5,0.9-0.1,1.4c0.2,0.2,0.4,0.4,0.6,0.5c1,0.7,3.6,0.1,3.6-1.3c0-4.1-0.3-8.2-0.4-12.4c0-0.4,0-0.8,0-1.2 c0.1,0.1,0.1,0.3,0.2,0.4c0.6,1.6,1.3,3.2,2.2,4.7c0.9,1.5,1.3,3.1,1.8,4.7c-0.2,0.2-0.3,0.5-0.2,0.7c0,0.2,0.1,0.3,0.3,0.4 c0.6,0.5,1.8,0.3,2.5,0c0.3-0.1,0.6-0.3,0.8-0.4c0.3-0.2,0.9-0.7,0.7-1.2c0-0.1-0.1-0.2-0.1-0.3c0.5-1.3,0.7-2.6,1-3.9 c0.3-1.4,0.8-2.8,1.3-4.1c0.1,0.6,0.1,1.2,0.2,1.9c0.2,2.6,0,5.1,0,7.6c0,0.8,0.1,1.6,0.2,2.5c0.1,0.3,0.4,1.8,0.3,1.9 c-0.8,0.5-0.6,1.1,0.2,1.3c0.9,0.2,2.1-0.1,2.8-0.7c1.2-1.1,0.6-2.8,0.4-4.2C1175.8,26.4,1176.3,23.8,1176.2,21.4z"/>
    <path class="st0" d="M1184.5,22.1c-0.1-2-0.8-3.9-0.8-5.9c0-2.3,0.2-4.6-0.2-6.9c-0.1-0.7-4.1,0.1-3.9,1c0.3,2.1,0.2,4.2,0.2,6.4 c0,2,0.5,3.9,0.7,5.9c0.3,2.1-0.1,4.2,0.1,6.2c0.1,1,0.8,2.7,0.1,3.6c-0.4,0.5,1.5,0.3,1.6,0.3c0.8-0.1,1.8-0.4,2.3-1 c0.7-0.8,0.2-2.4,0.1-3.4C1184.4,26.3,1184.6,24.1,1184.5,22.1z"/>
    <path class="st0" d="M1200.8,18.8c-2.1-2.8-5.9-0.8-8.6-1.5c-1.4-0.4-1.4-2.3-1.4-3.4c0-1.4-0.1-2.7-0.3-4.1 c-0.1-1.1,0-2.1,0.7-2.9c0.1-0.1,0.9-0.3,0.8-0.3c0.4-0.1,0.7-0.1,1.1-0.1c1.5-0.1,4.6,0.2,4,2.5c-0.3,1,3.6,0.4,3.9-0.6 c1.2-4.6-7.3-3.7-9.7-3.1c-2.2,0.6-4.6,1.8-4.8,4.4c-0.1,1.2,0.3,2.4,0.3,3.6c0.1,1.4-0.2,2.8,0.3,4.1c1.1,3,5.5,1.6,7.8,1.7 c3.8,0.3,2.7,5.5,2.7,7.9c0,1.3,1.2,3.4,0.2,4.5c-0.6,0.7-2,0.7-2.8,0.8s-2.2,0.3-2.7-0.5c-1-1.4,0.1-3.8-0.1-5.4 c-0.1-0.9-4.1-0.1-3.9,1c0.3,2.6-1.4,6.1,2.4,6.6c2.4,0.3,5.2-0.2,7.5-0.9c1.2-0.4,2.3-0.9,3.2-1.8c1-0.9,0.7-2.3,0.4-3.5 C1201.3,24.7,1202.7,21.3,1200.8,18.8z"/>
    <path class="st0" d="M1218.1,18.6c-0.1-3.8-0.7-7.5-0.7-11.3c0-2-4-1.3-4,0.3c0,3.6,0.5,7.2,0.7,10.8c0,0.1,0,0.1,0,0.2 c-1.9,0-3.9,0.2-5.9,0.2c0.2-4.6-0.6-9.2-0.4-13.9c0-0.6-3.9-0.1-3.9,1c-0.2,4.5,0.6,8.9,0.5,13.4c-0.1,2.1-0.2,4.3-0.3,6.4 c0,1.1,0.2,2.2,0.3,3.3c0.1,1,0.5,2.3,0.2,3.3c-0.2,0.8,3.6,0.3,3.9-0.7c0.5-1.8-0.2-4-0.4-5.8c-0.2-1.7,0-3.5,0.1-5.2 c2-0.1,4.1-0.3,6.1,0c0.1,1.4,0.2,2.8,0.3,4.1c0.1,1.2,0.2,2.3,0.2,3.5c0,1,0.1,2.5-0.2,3.5c-0.8,2.1,3.1,1.9,3.7,0.4 c0.7-1.9,0.5-4.2,0.4-6.2C1218.5,23.4,1218.1,21,1218.1,18.6z"/>
    <path class="st0" d="M1235,23c-0.9-2.8-2.4-5.2-3.6-7.8c1-1.9,2-3.9,2.9-5.9c0.8-1.8,1.4-3.8,3.1-5.1c0.6-0.4,0.6-0.9-0.3-1 s-2.1,0.2-2.8,0.7c-1.4,1.3-2.4,2.7-3.1,4.4c-0.9,2.1-1.9,4.1-2.9,6.1c-0.1,0.1-0.1,0.3-0.2,0.4c-0.5,0.3-0.8,0.8-0.6,1.3 c-0.8,1.6-1.6,3.1-2.5,4.6c-0.3-5.5-1-11.1-1.2-16.6c0-1.3-4-0.5-3.9,1c0.2,6.9,1.2,13.7,1.3,20.5c0,0,0,0,0,0.1 c-0.3,0.3-0.2,0.5,0.1,0.6c0,1.8-0.1,3.5-0.2,5.3c-0.5,0.7,0.5,1.1,1.1,1.1h0.1c0.7,0,2.6-0.3,2.7-1.4c0.2-2.1,0.3-4.2,0.2-6.3 c1.6-1.7,2.9-3.6,4.1-5.6c0.8,1.5,1.5,3,2,4.6c0.9,2.7,2.3,5.3,3.1,8c0.5,1.8,4.5,0.7,3.9-1C1237.3,28.3,1235.9,25.8,1235,23z"/>
    <path class="st0" d="M1258.4,18.4c-0.2-0.8-1.4-0.8-2.3-0.8c0-0.3,0-0.7,0-1c-0.1-2.7-0.2-5.4-0.4-8c-0.2-2.5-1.6-3.3-4-3.2 c-2.4,0.1-5.2,0.5-7.5,1.4c-2.6,1-4.1,2.9-4.6,5.7c-0.5,3,0.2,6.2,0.4,9.2c0.2,3.5,0.1,7,0.1,10.5c0,0.6,3.9,0,3.9-1 c0-2.8,0-5.6,0-8.3c0-0.8-0.1-1.6-0.1-2.4c1.4-0.6,3.7,0,5.1,0.1c1.1,0.1,2.2-0.2,3.2-0.3c0,2.3,0.1,4.6,0.2,6.9 c0,1.2,0.5,3.5-0.4,4.5c-0.4,0.5,1.5,0.3,1.6,0.3c0.8-0.1,1.8-0.4,2.3-1c0.9-1.1,0.5-3.8,0.4-5.1c-0.1-1.9-0.1-3.8-0.1-5.7 C1257.3,20,1258.6,19.3,1258.4,18.4z M1243.9,18.3c-0.1-1.2-0.2-2.5-0.3-3.7c-0.2-2.3,0.1-5.6,2.3-7c0.6-0.4,1.7-0.3,2.4-0.4 c1-0.2,2-0.4,2.8,0.2c1.2,0.8,0.9,3.7,0.9,4.9c0,2,0.2,4,0.3,6c-0.6,0.1-1.1,0.1-1.7,0.1C1248.3,18.2,1246,17.8,1243.9,18.3z"/>
    <path class="st0" d="M1181.1,6.7c0.5-0.1,1-0.2,1.5-0.5c0.1-0.1,0.2-0.2,0.2-0.2c0.5-0.3,1-0.8,0.7-1.4c-0.5-1.1-0.4-2.2-0.4-3.4 c0-1-1-1.2-1.8-1.2c-0.7,0.1-2.2,0.6-2.2,1.5c0,1-0.1,2,0.1,3c0,0.1-0.1,0.2-0.1,0.4c-0.1,0.2,0,0.4,0.1,0.6v0.1c0,0.1,0,0.2,0,0.3 c0.1,0.2,0.2,0.4,0.4,0.5C1180.3,6.7,1180.8,6.7,1181.1,6.7z"/>
  </g>
  <g>
    <path class="st0" d="M82.3,15.7l-3.4-3.4c1-1.3,1.5-2.9,1.5-4.6C80.4,3.4,77,0,72.7,0C68.4,0,65,3.4,65,7.7s3.4,7.7,7.7,7.7 c1.7,0,3.3-0.6,4.6-1.5l3.4,3.4c0.2,0.2,0.4,0.3,0.8,0.3c0.6,0,1.1-0.5,1.1-1.1C82.6,16.3,82.5,16,82.3,15.7z M67.2,7.7 c0-3,2.5-5.5,5.5-5.5s5.5,2.5,5.5,5.5s-2.5,5.5-5.5,5.5S67.2,10.7,67.2,7.7z"/>
  </g>
  <g>
    <path class="st0" d="M127.5,7.2h-3.2L121,0.4c-0.2-0.4-0.6-0.5-1-0.3s-0.5,0.6-0.3,1l3.1,6.1h-9.1l3.1-6.1c0.2-0.4,0-0.8-0.3-1 s-0.8,0-1,0.3l-3.4,6.8h-3.2c-0.4,0-0.8,0.3-0.8,0.8c0,0.4,0.3,0.7,0.8,0.7h0.2l0.9,3c-0.2,0.1-0.3,0.3-0.3,0.6 c0,0.4,0.3,0.7,0.7,0.7l1.7,5.8h12.7l1.7-5.8c0.4,0,0.7-0.3,0.7-0.7c0-0.2-0.1-0.5-0.3-0.6l0.9-3h0.2c0.4,0,0.8-0.3,0.8-0.7 C128.3,7.6,128,7.2,127.5,7.2z M123.4,17.3H113l-1.2-4.3h12.9L123.4,17.3z M125,11.6h-13.7l-0.8-2.8h15.4L125,11.6z"/>
  </g>
  <g>
    <g>
      <g>
        <path class="st0" d="M697.9,12.2c0-2.4-0.3-4.8-0.3-7.1c0-0.8-0.1-1.5-0.2-2.3c-0.1-0.3-0.1-0.7-0.2-1.1 c-0.3-0.2-0.2-0.6-0.5-0.8c-0.4-0.2-1.2-0.1-1.7-0.2c-0.7,0-1.3-0.1-1.9-0.2c-1.9-0.1-4-0.1-6-0.1s-4-0.1-5.7-0.4h-2.2 c-0.1,0-0.1,0.1-0.2,0.1c-0.6,0-1.1,0.2-1.6,0.3c-0.2,0.1-0.4,0.2-0.7,0.3c-0.1,0.2-0.5,0.1-0.6,0.4c-0.2,0.2,0.2,0.5,0,0.6v0.9 c0.2,0.1,0,0.6,0.1,0.8v1c0,1.3,0.1,2.4,0.1,3.7c0.5,2.8,0.4,6.5,0.1,9.4c0.2,0.6,0.4,1.1,0.5,1.7c0.3,0.5,0.3,1.1,0.7,1.5 c0.5,0.2,1.2,0.2,1.9,0.2c0.4,0.1,0.7,0.3,1.1,0.3c2.8-0.2,5.5-0.2,8.4-0.2c2.7,0.2,5.8,0.2,8.3-0.2c0.2-0.1,0.1-0.5,0.2-0.8 c-0.1-0.4,0.2-0.4,0.2-0.8C697.8,17.1,697.9,14.7,697.9,12.2z M684.9,6c0.8-0.2,1.5-0.3,2.4-0.3c0.7,0.1,1.3,0.3,1.9,0.5 c0.1,0.2-0.2,0.5,0.2,0.7V7c0.1,0,0.1,0,0.2,0.1c0.4,0,0.8,0.2,1.1,0.4c0.5,0.1,0.5,0.5,1.1,0.3c-0.1,0.2-0.1,0.5-0.1,0.8 c0.3,1.2,0.5,2.8,0.3,4.3c-0.2,0.2-0.2,0.4-0.3,0.7c-0.3,0.3-0.5,0.8-0.8,1.1c-0.1,0.2-0.3,0.4-0.5,0.5c-0.1,0.2-0.2,0.5-0.5,0.5 c-0.3,0.2-0.6,0-0.8-0.1c-0.4,0.2-0.9,0.3-1.2,0.6c-0.8-0.1-1.6-0.2-2.4-0.3c-0.2-0.1-0.5-0.3-0.8-0.3c-0.2-0.2-0.5-0.4-0.8-0.5 c-0.1-0.1-0.3-0.1-0.5-0.2c-0.2,0-0.2-0.2-0.5-0.2c-0.1-0.4-0.4-0.6-0.5-1.1c-0.2-0.3-0.3-0.8-0.5-1.2c0-1.4,0.1-2.7,0.4-3.8 c0.3-0.6,0.8-1.1,1.1-1.7c0.2,0,0.4-0.1,0.4-0.3c0.3,0.1,0.4-0.1,0.7-0.1C684.7,6.5,684.7,6.2,684.9,6z M683.2,3.3 c-0.1-0.3-0.1-0.7-0.1-1.1c0-0.3,0.3-0.3,0.3-0.5c0-0.1-0.1-0.1-0.2-0.1c0.1-0.1,0.7-0.1,0.8,0c0.1,0.5-0.4,0.5-0.5,0.7 c0,0.2,0.3,0,0.5,0.1c0,0.9-0.1,1.5,0,2.2h-0.5c0,0.2,0.2,0.2,0.5,0.2c0,0.3,0.1,0.4,0.1,0.6c-0.2,0.2-0.7,0-1.1,0.1 C683,4.9,683.3,4.1,683.2,3.3z M682.5,1.7c0.1,0,0.1,0,0.2,0.1c0.2,0.3,0,0.7-0.1,0.9C682.4,2.5,682.6,2,682.5,1.7z M682.7,3.5 c-0.1-0.1-0.2-0.2-0.2-0.5C682.7,3.1,682.7,3.3,682.7,3.5z M682.7,4.9c-0.1,0.1-0.1,0-0.1-0.2C682.7,4.6,682.7,4.8,682.7,4.9z M682.5,5.1c0.2,0,0.1,0.2,0.2,0.2c0,0.2-0.3,0.2-0.4,0.1C682.4,5.3,682.5,5.2,682.5,5.1z M680.2,3.9c0-0.1,0-0.2-0.1-0.2 c-0.1-0.7,0.1-1.4,0-2c0.3-0.2,0.8,0,1.1-0.1v1.1c-0.1,0.1-0.2,0.1-0.4,0.1c-0.1,0.3,0.3,0.1,0.4,0.3c0,0.9-0.1,1.8,0.2,2.4 c-0.6-0.1-0.9,0.1-1.4,0.1c0.1-0.6,0-1.4,0.5-1.6C680.5,3.9,680.2,4,680.2,3.9z M679.6,3.9c-0.2,0-0.2-0.5-0.1-0.6 C679.9,3.3,679.8,3.8,679.6,3.9z M679.5,4.9c0.1-0.3,0-0.3,0.1-0.7C679.8,4.2,679.8,5,679.5,4.9z M679.7,2.8 c-0.3,0.1-0.3-0.3-0.2-0.4C679.8,2.4,679.8,2.7,679.7,2.8z M679.7,1.7c0,0.2-0.1,0.2-0.1,0.3c-0.2,0-0.1-0.2-0.2-0.2 C679.4,1.7,679.6,1.7,679.7,1.7z M679.5,5.4c0.1,0,0.1,0.3-0.1,0.2C679.5,5.6,679.5,5.5,679.5,5.4z M678.8,1.7 c0,0.3-0.4,0.3-0.4,0H678.8z M677.8,1.8c0,0.2-0.3,0.2-0.4,0.4C677.2,2,677.5,1.7,677.8,1.8z M677.4,2.5c0.2-0.2,0.5-0.4,0.7-0.6 c0-0.1,0.1-0.1,0.1-0.2h0.2c0.1,0.4-0.3,0.3-0.3,0.5c0,0.1-0.1,0.1-0.1,0.2c0,0.3,0.1,0.6,0.1,1c-0.3,0-0.3,0.3-0.6,0.2 C677.5,3.2,677.3,3,677.4,2.5z M677.4,5.8V4.2c0.2-0.2,0.4-0.4,0.6-0.5c0.3,0.5,0.2,1.4,0.5,1.9C678.2,5.7,677.8,5.7,677.4,5.8z M695.7,16.9c-0.1,1-0.2,2-0.4,2.8c-2.9,0.1-6,0-8.9,0.2c-0.2,0-0.3,0-0.2-0.2c-0.3,0-0.3,0.2-0.5,0.2c0.2-0.3,0.4-0.9,0.2-1.3 c-0.8,0-0.8,0.8-1.1,1.3c-0.7-0.1-1.1,0.1-1.8,0.1c0.2-0.7,0.8-1,0.9-1.7c-0.4-0.6-1,0.1-1.2,0.5c-0.2,0.5-0.6,0.8-0.8,1.3h-1 c0.2-0.5,0.5-0.9,0.8-1.4c0.2-0.5,0.6-0.7,0.7-1.4c-0.2-0.3-0.4,0-0.7,0c-0.1,0.2-0.3,0.3-0.4,0.5c-0.2,0.4-0.5,0.7-0.7,1.1 c-0.2,0.2-0.3,0-0.5,0.2c-0.4,0.3-0.6,0.7-1,1c-0.2-0.1,0-0.4,0.2-0.4c0-0.2-0.1-0.6,0.1-0.6c0.1-0.4,0.2-0.6,0.4-0.9 c0.1-0.7,0.5-1.2,0.7-1.9c-0.6,0.1-0.7,0.6-1,1c-0.2,0.4-0.5,0.8-0.7,1.3c-0.2-0.1,0-0.6-0.1-0.8c0.1-0.6,0.3-1.1,0.4-1.7 c0.1-0.2,0.2-0.5,0.2-0.8c0.2-0.2,0-0.6-0.1-0.8c-0.2,0-0.4,0.1-0.5,0.3c-0.2,0-0.2,0.5-0.3,0.3c0-2.6-0.5-4.8-0.5-7.4 c0-0.3-0.2-0.4-0.2-0.7c1.6,0,3.1,0.1,4.8,0.2c-0.1,0.1-0.2,0.3-0.3,0.4s-0.2,0.2-0.4,0.3c-0.6,1.7-1,4-0.6,6.2 c0.2,0.6,0.6,1,1,1.4c0.9,0.5,1.6,1.1,2.5,1.7c1.7,0.4,3.8,0.4,5.5,0c0.2-0.1,0.5-0.2,0.7-0.4c1.4-1.2,2.8-2.5,3-4.9v-1.4 c-0.2-1.6-0.7-2.9-1.7-3.6c0.3-0.2,1.1,0,1.7,0.1c0.2,0,0.4,0,0.7,0c0.4,0,0.9-0.1,1.4,0c0.1,0.2,0.1,0.5,0.2,0.8 c-0.1,1.7-0.2,3.3-0.2,5.1c0.1,0.5,0.1,1,0.2,1.4C696,15.1,695.9,16,695.7,16.9z M696,5.7c-0.6-0.1-1.2-0.3-1.9-0.4 c0.1-0.3,0.8,0,1-0.2c0.4-0.2,0.3-0.9,0.3-1.5c0-0.3,0.1-0.6,0.1-1.1c-0.4-1-1.8-0.4-2.9-0.5c-0.2,0.7-0.5,1.8-0.3,2.7 c0.2,0.5,1,0.3,1.5,0.5c-0.1,0.3-0.7,0.1-1,0.1c-0.3-0.1-0.7-0.1-1-0.2c-2.3,0.1-4.3,0-6.5,0.2c0.1-1.2,0.1-2.5-0.1-3.6h3.1 c-0.3,0.4-0.9,0.5-1.3,0.8c-0.4,0.2-0.9,0.5-1.1,0.9c0.2,0.1,0.5-0.2,0.8-0.4c0.4-0.1,0.5-0.4,0.8-0.5c0.4-0.4,1.1-0.6,1.7-0.9 c0.4,0,0.7,0,1,0.1c1.3,0,2.5,0.1,3.8,0.1c0.6,0.1,1.5,0.1,2,0.3c0.1,0.3,0.2,0.6,0.3,0.9C696.3,4,696.1,4.8,696,5.7z M690.2,2 C690.3,1.9,690.2,1.9,690.2,2L690.2,2z M690.2,2c-0.5,0.2-1,0.3-1.4,0.7C689.3,2.5,689.9,2.4,690.2,2z M691.3,2.6 C691.4,2.6,691.3,2.5,691.3,2.6L691.3,2.6z M689.5,3.5c0.7-0.2,1.2-0.6,1.7-0.9c-0.4,0-0.6,0.3-1,0.4 C690.1,3.2,689.7,3.2,689.5,3.5z M688.8,2.7C688.7,2.7,688.8,2.8,688.8,2.7L688.8,2.7z M688.1,3.3C688.3,3.2,688.1,3.2,688.1,3.3 L688.1,3.3z M688.1,3.4C688.1,3.4,688.1,3.3,688.1,3.4C688.1,3.3,688.1,3.3,688.1,3.4z M688,3.4C688.1,3.4,688.1,3.4,688,3.4 C688,3.3,688,3.4,688,3.4z M687.2,4c0.3-0.1,0.6-0.3,0.8-0.6C687.6,3.6,687.4,3.8,687.2,4z M689.4,5c0.5,0,0.7-0.4,1.2-0.5 c0.3-0.3,0.8-0.4,1-0.8c-0.6,0-0.8,0.4-1.2,0.5C690.1,4.6,689.7,4.7,689.4,5z M687.2,4C686.8,4,687.1,4.3,687.2,4L687.2,4z M686.6,4.4C686.6,4.4,686.7,4.4,686.6,4.4C686.7,4.3,686.6,4.4,686.6,4.4z M689.4,5C689.3,5.1,689.4,5.1,689.4,5L689.4,5z M688.3,6.8c-0.2-0.2-0.7-0.2-1-0.4c-0.7,0-1.2,0.1-1.7,0.2c-0.3,0.2-0.6,0.3-0.9,0.5c-0.3,0.2-0.4,0.4-0.8,0.5 c-0.2,0.2-0.4,0.5-0.7,0.6c0,0.2-0.2,0.3-0.3,0.4c-0.1,0.1-0.1,0.3-0.2,0.4c0,0.1,0,0.3-0.1,0.3c0.1,1.5,0.3,2.9,0.7,4.2 c0.3,0.6,1,0.8,1.4,1.3c0.6,0.3,1.3,0.4,2.1,0.5c0.3-0.1,0.6-0.1,0.9-0.1c1.2-0.2,2.1-0.7,2.8-1.4c0.1-0.3,0.3-0.5,0.5-0.7 c-0.3-0.7,0.3-1.1,0.5-1.6c0-1.3-0.2-2.5-0.6-3.4c-0.3-0.6-0.9-0.8-1.4-1.1c-0.1,0-0.2,0-0.2-0.1C689.1,6.8,688.6,6.7,688.3,6.8z M684.9,11.2c-0.1-0.1-0.1-0.2-0.2-0.4C685,10.7,684.8,11,684.9,11.2z M685,11.5C685,11.4,685,11.5,685,11.5 C685,11.7,685,11.6,685,11.5z M685.4,9.4C685.4,9.3,685.5,9.4,685.4,9.4C685.5,9.5,685.4,9.5,685.4,9.4z M687.1,7.3 c-0.2,0.3,0,0.6,0.1,0.8C686.9,8.1,686.6,7.3,687.1,7.3z M687.5,11.3C687.4,11.2,687.5,11.2,687.5,11.3 C687.6,11.2,687.5,11.3,687.5,11.3z M688.2,14.1c0-0.1,0.1,0,0.2,0C688.4,14.2,688.2,14.2,688.2,14.1z M690.4,11.6 c-0.2-0.1-0.1,0.2-0.4,0.2c0.1-0.2,0.1-0.3,0.2-0.5C690.4,11.3,690.4,11.4,690.4,11.6z M689.3,7.8c0.2,0.1,0.4,0.2,0.6,0.4 c0.1,0.2,0.2,0.4,0.4,0.5c0.1,0.8,0.2,1.5,0.2,2.4c-0.3,0.1-0.4,0.3-0.7,0.4c-0.8,0-1.4-0.2-1.9-0.5c-0.2-0.3-0.4-0.5-0.5-0.8 V9.1c0.2-0.2,0.3-0.4,0.5-0.6c0.2-0.1,0.5-0.2,0.5-0.6c0-0.1-0.1-0.1-0.1-0.2c0.2,0,0.2,0.2,0.4,0.2 C688.8,7.9,688.9,7.7,689.3,7.8z"/>
      </g>
    </g>
  </g>
  <g>
    <g>
      <g>
        <path class="st0" d="M728.7,5.2c1,0,2,0,2.7-0.3c0.4-0.8,0.6-1.9,0.6-3c-0.2,0-0.1-0.3-0.2-0.4c0-0.2-0.3-0.2-0.3-0.4 c-0.3-0.2-0.5-0.4-0.7-0.6c-0.7-0.2-1.4-0.3-2.2-0.5c-0.8,0-1.9-0.1-2.6,0.1c-2.6,0-4,1.1-5.3,2.4c0,0.1,0,0.2-0.1,0.2 c-0.6,1.6-0.1,3.6-0.2,5.6c0.1,0.4,0.1,1,0.2,1.4c-1,0.3-2.2,0.4-3.4,0.5c-0.3,0.3-0.2,1.1-0.2,1.7c0.1,0.6,0.3,1.1,0.4,1.6 c0.2,0.2,0.6,0.4,0.8,0.5c0.1,0,0.1,0.1,0.1,0.1c0.5,0.3,1.5,0,2.3,0.1c-0.1,2,0.3,3.9,0,5.7c0,0.3,0.3,0.4,0.2,0.8 c0,1-0.1,2,0.2,2.7c-0.3,0.5-0.5,1-0.4,1.8c0.1,0,0.1,0.2,0.1,0.3c-0.1,0.5,0.6,0.2,0.5,0.7c0.2,0.5-0.4,0.2-0.4,0.5v0.9 c0.5,0.3,1.5,0.2,2.3,0.2c0.9-0.4,2.2-0.5,2.8-1.2c0.5,0.2,0.9,0,1.2-0.2c0-0.3,0.3-0.3,0.2-0.7c0-0.3-0.2-0.5-0.1-0.9v-2.9 c-0.2-2.3,0-4.9-0.3-7.2c0.9-0.1,1.9-0.1,2.6-0.4c0.4-0.5,0.4-1.2,0.5-1.9c0.2-0.2,0.2-0.6,0.2-1c0.2-0.2,0.1-0.7,0.1-1.1 c-0.1-0.6-0.2-1.3-0.8-1.4c-0.9-0.2-2,0.6-3,0.3c0-1.1-0.3-2.3,0-3.4C727.2,5.6,727.9,5.4,728.7,5.2z M724.8,10 c0.1,0.3,0.3,0.5,0.4,0.7c0.1,0,0.2,0,0.2,0.1c1.2,0.1,2.2-0.1,3.1-0.3c0,1-0.3,1.7-0.5,2.5c-0.7,0-1.5,0.3-2,0.2 c-0.3,0.2-0.4,0.5-0.6,0.7c0,0.4,0.1,0.5,0,0.8c-0.2,0.1-0.1,0.6-0.2,0.8V17c0.1,0.3-0.1,0.3-0.1,0.5V21 c-0.1,0.3,0.1,0.3,0.1,0.5v3c0.1,0.3-0.1,0.8,0.1,0.9c-0.1,0.4-0.4,0-0.8,0.1c-0.5,0.1-0.9,0.4-1.5,0.4c0.1-0.4,0.3-0.6,0.3-1.1 c0-0.4-0.4-0.3-0.5-0.5c0.2-0.6,0.6-1.1,0.7-1.8c0.2-0.5,0.7-1.3,0.3-1.8c-0.5-0.1-0.5,0.3-0.8,0.4c0,0.1,0,0.2-0.1,0.2 c0,0.1,0,0.2-0.1,0.2c0,0.1-0.2,0.1,0,0c0-0.1,0-0.2,0.1-0.2c0-0.1,0-0.2,0.1-0.2v-0.3c0.4-0.6,0.7-1.2,0.8-2 c0.2-0.3,0.3-0.7,0.4-1c0.2-0.3,0.3-0.9,0.1-1.2c-0.5,0-0.8,0.3-0.9,0.7c-0.3-0.2,0.2-0.4,0.1-0.7c0.1-0.2,0.2-0.6,0.3-0.8 c0.2-0.4,0.6-1.3,0-1.6c-0.4,0-0.6,0.2-0.7,0.5c-0.2,0.2-0.4,0.4-0.5,0.7c-0.4-0.1-0.1-0.7-0.2-1.1c-0.1-0.5,0.1-0.9,0-1.2 c-0.6-0.8-2-0.1-3.2-0.3c-0.1-0.3-0.2-1-0.1-1.2c1-0.1,2.5,0.2,3.2-0.2c0-0.1,0-0.2,0.1-0.2c0.1-0.7-0.3-1-0.5-1.4 c0.2-0.8,0-2,0.1-3c0.2-0.1,0.3-0.4,0.5-0.6c0.1-1,0.7-1.5,0.7-2.5c-0.3,0-0.6-0.1-0.6,0.2c-0.3-0.1-0.4,0.5-0.5,0.2 c-0.1-0.5,0.2-0.6,0.3-1c0.6-0.4,1.2-0.8,1.9-1.2c1.7-0.2,4.6-0.4,6.1,0.2c0.1,0.6-0.3,0.9-0.2,1.5h-1.5c-1.1,0.2-2,0.7-3,1 c-0.2,0.1-0.3,0.3-0.5,0.4c0,0.4-0.2,0.6-0.3,1C724.7,7.4,724.9,8.6,724.8,10z"/>
      </g>
    </g>
  </g>
  <g>
    <g>
      <g>
        <path class="st0" d="M783.5,4.1c-0.2-0.4-0.9-0.3-1.4-0.4H781c0.1-0.4,0.3-0.6,0.5-1c0.1-0.4,0.3-0.7,0.2-1.3 c0.1-0.2,0.2-0.4,0.3-0.6c0.1-0.1,0.2-0.5,0.1-0.7C782,0,781.7,0,781.5,0c-0.1,0-0.2,0.1-0.2,0.1c-0.4,0.4-0.8,1-1.3,1.4h-0.1 c-0.1,0,0,0-0.1,0.1s-0.3,0.2-0.4,0.2c-0.3,0.2-0.5,0.4-0.9,0.5c-0.5-0.2-1.2-0.3-1.9-0.4c-1.2,0.1-2.3,0.2-3,0.7 c-0.9,0.3-1.5,1-2.1,1.6c0,0.3-0.3,0.4-0.4,0.7c0,0,0,0.1-0.1,0.1c0,0.2-0.1,0.3-0.1,0.5c0,0.1,0.2,0.4,0,0.5 c-0.8-0.1-1.5-0.6-2.1-1c-0.7-0.4-1.5-0.6-2.1-1.1c-0.7-0.3-1.3-0.8-1.8-1.3c-0.2-0.3-0.5-0.5-0.7-0.9c-0.2,0.1,0-0.7-0.6-0.7 c-0.3,0-0.3,0.2-0.4,0.4c-0.1,0.2-0.4,0.2-0.4,0.5c0,0,0,0.1-0.1,0.1c-0.2,1.1-0.5,2-0.5,3.3c0.1,0.4,0.3,0.7,0.6,1 c-0.4,0.1-0.7,0.2-0.9,0.5c-0.1,1.1,0.4,1.6,0.7,2.3c0.1,0.4,0.4,0.7,0.6,1c0,0.2,0.2,0.3,0.3,0.4c0,0.1,0.1,0.1,0.1,0.2 c0,0.1,0.3,0.2,0.1,0.2c-0.4,0.1-1,0.1-1.3,0.4c-0.1,0.3-0.1,0.8,0,1.1c0,0.2,0.3,0.3,0.3,0.5c0.5,0.4,1.1,0.7,1.6,1.1 c0.6,0.2,1.2,0.3,1.9,0.4c-0.1,0.3-0.3,0.6-0.6,0.7c-0.8,0.4-1.8,0.5-2.7,0.7c-0.6,0-1,0.2-1.6,0.2c-0.3,0.1-0.9,0.1-1.1,0.2 c-0.1,0.1-0.1,0.1-0.2,0.2c-0.1,0.4,0.1,0.7,0.4,0.9c0,0.3,0.2,0.3,0.4,0.4c0.1,0.2,0.3,0.3,0.4,0.4c0.5,0.5,1.3,0.8,1.9,1.1 c0.8,0.2,1.6,0.4,2.5,0.5s1.9,0.1,2.8,0.2h1c0.5,0.1,1.2,0.1,1.9,0.1c0.1-0.1,0.3-0.1,0.5-0.1c0.5-0.3,1.2-0.4,1.6-0.7 c0.6-0.2,1-0.6,1.6-0.9c0.9-0.8,1.9-1.3,2.5-2.4c0.2-0.2,0.4-0.4,0.4-0.7c0.3-0.2,0.4-0.5,0.6-0.7c0.4-0.4,0.7-0.9,1-1.4 s0.6-1.1,0.9-1.6c0-0.4,0.3-0.5,0.3-0.9c0.2-0.2,0.2-0.7,0.4-0.9c0-0.3,0-0.4,0.1-0.6c0-1.3,0-2.4-0.3-3.4 c0.6-0.2,1.2-0.3,1.6-0.6C783.2,5.2,783.6,4.8,783.5,4.1z M780,8.2c-0.2,0.9-0.6,1.4-1,2c0.1,0.4-0.1,0.5-0.1,0.9 c-0.2,0.3-0.3,0.7-0.4,1c-0.2,0.3-0.3,0.6-0.5,0.9c-0.4,0.5-0.8,1.1-1.2,1.6c-0.4,0.6-0.9,1-1.3,1.5c-0.4,0.5-0.9,0.9-1.4,1.3 c-0.5,0.2-0.9,0.4-1.3,0.7c-0.2,0.1-0.5,0.2-0.7,0.3c-0.2,0.1-0.5,0.1-0.7,0.3c-1.1,0.1-2.3,0.2-3.6,0.1c-1-0.1-2.1-0.2-3-0.4 c-0.9-0.2-1.5-0.7-2.3-1c0.2-0.2,0.6-0.2,1-0.2c0-0.2,0.4,0,0.4-0.1c0.3,0.1,0.3-0.1,0.5-0.1c0.6-0.2,1.2-0.3,1.7-0.6 c0.3-0.1,0.4-0.4,0.7-0.6c0-0.2,0.1-0.3,0.2-0.4c0-0.3,0.2-0.4,0.1-0.8c0.1-0.2,0.3-0.3,0.3-0.7c-0.1-0.1-0.1-0.3-0.3-0.4 c0-0.2-0.4-0.1-0.4-0.2c-0.3,0-0.4,0-0.6-0.1c-0.2,0-0.5,0.1-0.5-0.1c-0.8,0-1.3-0.4-1.9-0.7c0.4-0.3,1-0.4,1.3-0.7 c0.5-0.1,1.1-0.1,1.1-0.7c0-0.7-0.8-0.7-1.3-0.8c-0.8-0.7-1.2-1.7-1.8-2.5c0.2-0.2,0.6-0.2,0.7-0.4c0.5,0.1,0.5-0.3,0.7-0.5 c0-0.5-0.3-0.6-0.6-0.8c-0.3-0.2-0.5-0.5-0.7-0.7c0-0.8,0-1.7,0.1-2.4c0.1,0,0.1,0,0.1,0.1c0.2,0.4,0.6,0.8,0.8,1.2 c0.5,0.4,0.9,0.9,1.6,1.1c0.5,0.4,1.1,0.6,1.6,1c0.6,0.3,1.2,0.6,1.7,0.9c0.7,0.2,1.1,0.7,2,0.6c0.2-0.1,0.4-0.2,0.6-0.3 c0.3-0.5-0.1-1.1,0.1-1.6c0.3-0.7,0.8-1,1.3-1.5c0.3-0.2,0.6-0.3,0.8-0.5c0.3-0.1,0.7-0.2,1-0.4c0.4,0,0.7-0.1,1-0.1h1.3 c0.2,0.1,0.5,0.1,0.7,0.1c0.2,0.1,0.4,0.3,0.7,0.4c0.8,0.7,1.3,1.7,1.4,3C779.9,7.2,780.1,7.6,780,8.2z M780.3,2.5 c-0.1,0.3-0.2,0.7-0.6,0.8c0-0.1-0.1-0.1-0.1-0.2c0-0.2,0.2-0.2,0.3-0.3C780.1,2.7,780.1,2.6,780.3,2.5 C780.3,2.4,780.4,2.5,780.3,2.5z M774.9,5.6c0.2,0.1,0.3,0.3,0.5,0.4c0.1,0.2,0.3,0.3,0.6,0.4c0-0.2,0.3,0,0.4-0.2 c0.2,0,0.2-0.2,0.3-0.3c0-0.5-0.1-1-0.4-1.3C775.5,4,774.6,4.5,774.9,5.6z"/>
      </g>
    </g>
  </g>
  <g>
    <path class="st0" d="M1102,0h-24c-2.2,0-4,1.8-4,4v13c0,2.2,1.8,4,4,4h24c2.2,0,4-1.8,4-4V4C1106,1.8,1104.2,0,1102,0z M1076,5.3 l7,5.3l-7,5.3V5.3z M1104,17c0,1.1-0.9,2-2,2h-24c-1.1,0-2-0.9-2-2l7.8-5.9l4.4,3.3c0.5,0.4,1.2,0.6,1.8,0.6c0.6,0,1.3-0.2,1.8-0.6 l4.4-3.3L1104,17L1104,17z M1104,15.8l-7-5.3l7-5.3V15.8z M1091.2,13.6c-0.3,0.3-0.8,0.4-1.2,0.4s-0.9-0.1-1.2-0.4l-4.1-3.1 l-0.8-0.6L1076,4l0,0c0-1.1,0.9-2,2-2h24c1.1,0,2,0.9,2,2L1091.2,13.6z"/>
  </g>
  <g>
    <g>
      <g>
        <g>
          <path class="st0" d="M1031.3,24.3c-0.4,0-0.7,0-1.1,0c-4.9-0.6-8.5-2.9-11.1-5.8s-4.7-6.7-5.1-11.7c0-0.5,0-0.9,0-1.4 c0.1-0.9,0.5-1.5,1.1-2.1c0.7-0.7,1.6-1.5,2.5-1.6c0.7,0,1.8,0.5,2.2,1.1c0.4,0.5,0.6,1.6,0.8,2.4s0.6,1.9,0.5,2.7 c-0.2,1.2-1.8,1.7-2.2,2.6c1.6,3.7,4.1,6.5,7.5,8.3c0.8-0.5,1.6-1.9,2.8-1.9c0.4,0,1,0.2,1.4,0.3c0.5,0.1,0.9,0.3,1.3,0.5 c0.7,0.3,2,0.6,2.4,1.2s0.7,1.6,0.6,2.2C1034.6,22.5,1032.5,23.9,1031.3,24.3z"/>
        </g>
      </g>
      <path class="st0" d="M1026.5,1.5c5.9,0,10.8,4.8,10.8,10.8h1.5c0-6.8-5.5-12.3-12.3-12.3V1.5z"/>
      <path class="st0" d="M1026.5,9.3v1.6c0.8,0,1.4,0.6,1.4,1.4h1.6C1029.5,10.7,1028.2,9.3,1026.5,9.3z"/>
      <path class="st0" d="M1026.5,6.2c3.3,0,6.1,2.7,6.1,6.1h1.6c0-4.2-3.4-7.6-7.6-7.6L1026.5,6.2L1026.5,6.2z"/>
    </g>
  </g>
  <g>
    <path class="st6" d="M799.6,37L799.6,37L786,38.4v24.7l13.5,8l13.5-8l0,0V38.4L799.6,37z M810.7,49.4l-11.7-7v-0.1h0.1l0.9-0.1 v-0.1l-12,7.2v-8.9l11.5-1.2l11.5,1.3v9L810.7,49.4L810.7,49.4z M799.1,43.8l11.5,6.7l-4.5,2.6L799,49v1.4l5.9,3.5l-0.9,0.5l-5-3 v1.4l3.8,2.3l-0.8,0.5l-3-1.8v1.4l1.9,1.1l-1.9,1.1l-11.3-6.7L799.1,43.8z M788,52.3l11,6.5V60l-8-4.8v1.4l8,4.8v1.1l-8-4.8V59 l8.4,5.1l0,0l8.5-5.1v-5l3-2v10l-11.5,6.8L788,62V52.3z"/>
  </g>
  <g>
    <polygon points="974,29 973.1,28 959.6,42 952.9,35 952,36 958.7,43 958.7,43 959.6,44 959.6,44 959.6,44 960.6,43 960.6,43"/>
  </g>
  <path class="st3" d="M1260,209H744.1H0v-12.9c9.3,0,9.3-9.1,18.6-9.1s9.3,9.1,18.6,9.1s9.3-9.1,18.6-9.1s9.3,9.1,18.6,9.1	S83.7,187,93,187s9.3,9.1,18.6,9.1s9.3-9.1,18.6-9.1s9.3,9.1,18.6,9.1s9.3-9.1,18.6-9.1s9.3,9.1,18.6,9.1s9.3-9.1,18.6-9.1	s9.3,9.1,18.6,9.1s9.3-9.1,18.6-9.1s9.3,9.1,18.6,9.1s9.3-9.1,18.6-9.1s9.3,9.1,18.6,9.1c9.3,0,9.3-9.1,18.6-9.1s9.3,9.1,18.6,9.1	c9.3,0,9.3-9.1,18.6-9.1s9.3,9.1,18.6,9.1c9.3,0,9.3-9.1,18.6-9.1s9.3,9.1,18.6,9.1c9.3,0,9.3-9.1,18.6-9.1s9.3,9.1,18.6,9.1	c9.3,0,9.3-9.1,18.6-9.1s9.3,9.1,18.6,9.1c9.3,0,9.3-9.1,18.6-9.1s9.3,9.1,18.6,9.1c9.3,0,9.3-9.1,18.6-9.1s9.3,9.1,18.6,9.1	s9.3-9.1,18.6-9.1s9.3,9.1,18.6,9.1s9.3-9.1,18.6-9.1s9.3,9.1,18.6,9.1s9.3-9.1,18.6-9.1s9.3,9.1,18.6,9.1s9.3-9.1,18.6-9.1	s9.3,9.1,18.6,9.1s9.3-9.1,18.6-9.1s9.3,9.1,18.7,9.1c9.3,0,9.3-9.1,18.6-9.1s9.3,9.1,18.6,9.1s9.3-9.1,18.6-9.1s9.3,9.1,18.6,9.1	s9.3-9.1,18.6-9.1s9.3,9.1,18.6,9.1s9.3-9.1,18.6-9.1s9.3,9.1,18.6,9.1s9.3-9.1,18.6-9.1s9.3,9.1,18.6,9.1s9.3-9.1,18.6-9.1	s9.3,9.1,18.6,9.1s9.3-9.1,18.6-9.1s9.3,9.1,18.6,9.1s9.3-9.1,18.6-9.1c9.3,0,9.3,9.1,18.6,9.1s9.3-9.1,18.6-9.1	c9.3,0,9.3,9.1,18.6,9.1c9.3,0,9.3-9.1,18.6-9.1s9.3,9.1,18.6,9.1s9.3-9.1,18.6-9.1s9.3,9.1,18.6,9.1c9.3,0,9.3-9.1,18.6-9.1	c9.3,0,9.3,9.1,18.6,9.1s9.3-9.1,18.6-9.1c9.3,0,9.3,9.1,18.6,9.1c9.3,0,9.3-9.1,18.6-9.1c7.3,0,8.9,5.6,13.7,8L1260,209L1260,209z"/>
  <path class="st3" d="M1260,187h-110H0v-20c14.4,0,14.4-14,28.8-14s14.4,14,28.8,14s14.4-14,28.8-14s14.4,14,28.8,14s14.4-14,28.8-14	c14.4,0,14.4,14,28.8,14s14.4-14,28.8-14c14.4,0,14.4,14,28.8,14c14.3,0,14.3-14,28.7-14s14.4,14,28.8,14s14.4-14,28.8-14	s14.4,14,28.8,14s14.4-14,28.8-14s14.4,14,28.8,14s14.4-14,28.8-14s14.4,14,28.8,14s14.4-14,28.8-14c14.3,0,14.3,14,28.7,14	c14.3,0,14.3-14,28.7-14c14.3,0,14.3,14,28.7,14c14.3,0,14.3-14,28.7-14s14.4,14,28.8,14c14.3,0,14.3-14,28.7-14	c14.3,0,14.3,14,28.7,14c14.3,0,14.4-14,28.7-14s14.3,14,28.7,14c14.3,0,14.3-14,28.7-14s14.4,14,28.8,14c14.3,0,14.3-14,28.7-14	s14.5,14,28.8,14s14.3-14,28.7-14c14.3,0,14.4,14,28.7,14s14.3-14,28.7-14c14.3,0,14.3,14,28.7,14c14.3,0,14.3-14,28.7-14	s14.4,14,28.8,14c14.3,0,14.4-14,28.7-14s14.4,14,28.7,14s14.3-14,28.7-14c14.3,0,14.3,14,28.7,14s14.4-14,28.8-14s14.4,14,28.8,14	s14.4-14,28.8-14c12.4,0,14.1,10.4,23.6,13.3V187z"/>
  <path class="st7" d="M1260,103.5"/>
  <path class="st7" d="M124.4,194.3c-1.4,0-2,0.6-2.9,1.5c-1,1-2.2,2.2-4.6,2.2v-2.3c1.4,0,2-0.6,2.9-1.5c1-1,2.2-2.2,4.6-2.2"/>
  <path class="st7" d="M1260,147.3c-1.4,0-2,0.6-2.9,1.5c-1,1-2.2,2.2-4.6,2.2s-3.6-1.2-4.6-2.2c-0.9-0.9-1.5-1.5-2.9-1.5	s-2,0.6-2.9,1.5c-1,1-2.2,2.2-4.6,2.2s-3.6-1.2-4.6-2.2c-0.9-0.9-1.5-1.5-2.9-1.5s-2,0.6-2.9,1.5c-1,1-2.2,2.2-4.6,2.2	s-3.6-1.2-4.6-2.2c-0.9-0.9-1.5-1.5-2.9-1.5s-2,0.6-2.9,1.5c-1,1-2.2,2.2-4.6,2.2s-3.6-1.2-4.6-2.2c-0.9-0.9-1.5-1.5-2.9-1.5	s-2,0.6-2.9,1.5c-1,1-2.2,2.2-4.6,2.2s-3.6-1.2-4.6-2.2c-0.9-0.9-1.5-1.5-2.9-1.5s-2,0.6-2.9,1.5c-1,1-2.2,2.2-4.6,2.2	s-3.6-1.2-4.6-2.2c-0.9-0.9-1.5-1.5-2.9-1.5s-2,0.6-2.9,1.5c-1,1-2.2,2.2-4.6,2.2s-3.6-1.2-4.6-2.2c-0.9-0.9-1.5-1.5-2.9-1.5	s-2,0.6-2.9,1.5c-1,1-2.2,2.2-4.6,2.2s-3.6-1.2-4.6-2.2c-0.9-0.9-1.5-1.5-2.9-1.5s-2,0.6-2.9,1.5c-1,1-2.2,2.2-4.6,2.2	s-3.6-1.2-4.6-2.2c-0.9-0.9-1.5-1.5-2.9-1.5s-2,0.6-2.9,1.5c-1,1-2.2,2.2-4.6,2.2s-3.6-1.2-4.6-2.2c-0.9-0.9-1.5-1.5-2.9-1.5	s-2,0.6-2.9,1.5c-1,1-2.2,2.2-4.6,2.2s-3.6-1.2-4.6-2.2c-0.9-0.9-1.5-1.5-2.9-1.5s-2,0.6-2.9,1.5c-1,1-2.2,2.2-4.6,2.2	s-3.6-1.2-4.6-2.2c-0.9-0.9-1.5-1.5-2.9-1.5s-2,0.6-2.9,1.5c-1,1-2.2,2.2-4.6,2.2s-3.6-1.2-4.6-2.2c-0.9-0.9-1.5-1.5-2.9-1.5	s-2,0.6-2.9,1.5c-1,1-2.2,2.2-4.6,2.2s-3.6-1.2-4.6-2.2c-0.9-0.9-1.5-1.5-2.9-1.5s-2,0.6-2.9,1.5c-1,1-2.2,2.2-4.6,2.2	s-3.6-1.2-4.6-2.2c-0.9-0.9-1.5-1.5-2.9-1.5s-2,0.6-2.9,1.5c-1,1-2.2,2.2-4.6,2.2s-3.6-1.2-4.6-2.2c-0.9-0.9-1.5-1.5-2.9-1.5	s-2,0.6-2.9,1.5c-1,1-2.2,2.2-4.6,2.2c-2.4,0-3.6-1.2-4.6-2.2c-0.9-0.9-1.5-1.5-2.9-1.5s-2,0.6-2.9,1.5c-1,1-2.2,2.2-4.6,2.2	s-3.6-1.2-4.6-2.2c-0.9-0.9-1.5-1.5-2.9-1.5s-2,0.6-2.9,1.5c-1,1-2.2,2.2-4.6,2.2c-2.4,0-3.6-1.2-4.6-2.2c-0.9-0.9-1.5-1.5-2.9-1.5	s-2,0.6-2.9,1.5c-1,1-2.2,2.2-4.6,2.2c-2.4,0-3.6-1.2-4.6-2.2c-0.9-0.9-1.5-1.5-2.9-1.5s-2,0.6-2.9,1.5c-1,1-2.2,2.2-4.6,2.2	c-2.4,0-3.6-1.2-4.6-2.2c-0.9-0.9-1.5-1.5-2.9-1.5s-2,0.6-2.9,1.5c-1,1-2.2,2.2-4.6,2.2c-2.4,0-3.6-1.2-4.6-2.2	c-0.9-0.9-1.5-1.5-2.9-1.5s-2,0.6-2.9,1.5c-1,1-2.2,2.2-4.6,2.2c-2.4,0-3.6-1.2-4.6-2.2c-0.9-0.9-1.5-1.5-2.9-1.5s-2,0.6-2.9,1.5	c-1,1-2.2,2.2-4.6,2.2c-2.4,0-3.6-1.2-4.6-2.2c-0.9-0.9-1.5-1.5-2.9-1.5s-2,0.6-2.9,1.5c-1,1-2.2,2.2-4.6,2.2	c-2.4,0-3.6-1.2-4.6-2.2c-0.9-0.9-1.5-1.5-2.9-1.5s-2,0.6-2.9,1.5c-1,1-2.2,2.2-4.6,2.2c-2.4,0-3.6-1.2-4.6-2.2	c-0.9-0.9-1.5-1.5-2.9-1.5s-2,0.6-2.9,1.5c-1,1-2.2,2.2-4.6,2.2s-3.6-1.2-4.6-2.2c-0.9-0.9-1.5-1.5-2.9-1.5s-2,0.6-2.9,1.5	c-1,1-2.2,2.2-4.6,2.2c-2.4,0-3.6-1.2-4.6-2.2c-0.9-0.9-1.5-1.5-2.9-1.5s-2,0.6-2.9,1.5c-1,1-2.2,2.2-4.6,2.2s-3.6-1.2-4.6-2.2	c-0.9-0.9-1.5-1.5-2.9-1.5s-2,0.6-2.9,1.5c-1,1-2.2,2.2-4.6,2.2c-2.4,0-3.6-1.2-4.6-2.2c-0.9-0.9-1.5-1.5-2.9-1.5s-2,0.6-2.9,1.5	c-1,1-2.2,2.2-4.6,2.2c-2.4,0-3.6-1.2-4.6-2.2c-0.9-0.9-1.5-1.5-2.9-1.5s-2,0.6-2.9,1.5c-1,1-2.2,2.2-4.6,2.2	c-2.4,0-3.6-1.2-4.6-2.2c-0.9-0.9-1.5-1.5-2.9-1.5s-2,0.6-2.9,1.5c-1,1-2.2,2.2-4.6,2.2c-2.4,0-3.6-1.2-4.6-2.2	c-0.9-0.9-1.5-1.5-2.9-1.5s-2,0.6-2.9,1.5c-1,1-2.2,2.2-4.6,2.2s-3.6-1.2-4.6-2.2c-0.9-0.9-1.5-1.5-2.9-1.5s-2,0.6-2.9,1.5	c-1,1-2.2,2.2-4.6,2.2c-2.4,0-3.6-1.2-4.6-2.2c-0.9-0.9-1.5-1.5-2.9-1.5s-2,0.6-2.9,1.5c-1,1-2.2,2.2-4.6,2.2	c-2.4,0-3.6-1.2-4.6-2.2c-0.9-0.9-1.5-1.5-2.9-1.5s-2,0.6-2.9,1.5c-1,1-2.2,2.2-4.6,2.2c-2.4,0-3.6-1.2-4.6-2.2	c-0.9-0.9-1.5-1.5-2.9-1.5s-2,0.6-2.9,1.5c-1,1-2.2,2.2-4.6,2.2s-3.6-1.2-4.6-2.2c-0.9-0.9-1.5-1.5-2.9-1.5s-2,0.6-2.9,1.5	c-1,1-2.2,2.2-4.6,2.2c-2.4,0-3.6-1.2-4.6-2.2c-0.9-0.9-1.5-1.5-2.9-1.5s-2,0.6-2.9,1.5c-1,1-2.2,2.2-4.6,2.2	c-2.4,0-3.6-1.2-4.6-2.2c-0.9-0.9-1.5-1.5-2.9-1.5s-2,0.6-2.9,1.5c-1,1-2.2,2.2-4.6,2.2c-2.4,0-3.6-1.2-4.6-2.2	c-0.9-0.9-1.5-1.5-2.9-1.5s-2,0.6-2.9,1.5c-1,1-2.2,2.2-4.6,2.2c-2.4,0-3.6-1.2-4.6-2.2c-0.9-0.9-1.5-1.5-2.9-1.5s-2,0.6-2.9,1.5	c-1,1-2.2,2.2-4.6,2.2c-2.4,0-3.6-1.2-4.6-2.2c-0.9-0.9-1.5-1.5-2.9-1.5s-2,0.6-2.9,1.5c-1,1-2.2,2.2-4.6,2.2	c-2.4,0-3.6-1.2-4.6-2.2c-0.9-0.9-1.5-1.5-2.9-1.5s-2,0.6-2.9,1.5c-1,1-2.2,2.2-4.6,2.2c-2.4,0-3.6-1.2-4.6-2.2	c-0.9-0.9-1.5-1.5-2.9-1.5s-2,0.6-2.9,1.5c-1,1-2.2,2.2-4.6,2.2c-2.4,0-3.6-1.2-4.6-2.2c-0.9-0.9-1.5-1.5-2.9-1.5s-2,0.6-2.9,1.5	c-1,1-2.2,2.2-4.6,2.2s-3.6-1.2-4.6-2.2c-0.9-0.9-1.5-1.5-2.9-1.5s-2,0.6-2.9,1.5c-1,1-2.2,2.2-4.6,2.2c-2.4,0-3.6-1.2-4.6-2.2	c-0.9-0.9-1.5-1.5-2.9-1.5s-2,0.6-2.9,1.5c-1,1-2.2,2.2-4.6,2.2s-3.6-1.2-4.6-2.2c-0.9-0.9-1.5-1.5-2.9-1.5s-2,0.6-2.9,1.5	c-1,1-2.2,2.2-4.6,2.2c-2.4,0-3.6-1.2-4.6-2.2c-0.9-0.9-1.5-1.5-2.9-1.5s-2,0.6-2.9,1.5c-1,1-2.2,2.2-4.6,2.2s-3.6-1.2-4.6-2.2	c-0.9-0.9-1.5-1.5-2.9-1.5s-2,0.6-2.9,1.5c-1,1-2.2,2.2-4.6,2.2s-3.6-1.2-4.6-2.2c-0.9-0.9-1.5-1.5-2.9-1.5s-2,0.6-2.9,1.5	c-1,1-2.2,2.2-4.6,2.2s-3.6-1.2-4.6-2.2c-0.9-0.9-1.5-1.5-2.9-1.5s-2,0.6-2.9,1.5c-1,1-2.2,2.2-4.6,2.2s-3.6-1.2-4.6-2.2	c-0.9-0.9-1.5-1.5-2.9-1.5s-2,0.6-2.9,1.5c-1,1-2.2,2.2-4.6,2.2s-3.6-1.2-4.6-2.2c-0.9-0.9-1.5-1.5-2.9-1.5s-2,0.6-2.9,1.5	c-1,1-2.2,2.2-4.6,2.2s-3.6-1.2-4.6-2.2c-0.9-0.9-1.5-1.5-2.9-1.5s-2,0.6-2.9,1.5c-1,1-2.2,2.2-4.6,2.2s-3.6-1.2-4.6-2.2	c-0.9-0.9-1.5-1.5-2.9-1.5s-2,0.6-2.9,1.5c-1,1-2.2,2.2-4.6,2.2s-3.6-1.2-4.6-2.2c-0.9-0.9-1.5-1.5-2.9-1.5s-2,0.6-2.9,1.5	c-1,1-2.2,2.2-4.6,2.2s-3.6-1.2-4.6-2.2c-0.9-0.9-1.5-1.5-2.9-1.5s-2,0.6-2.9,1.5c-1,1-2.2,2.2-4.6,2.2s-3.6-1.2-4.6-2.2	c-0.9-0.9-1.5-1.5-2.9-1.5s-2,0.6-2.9,1.5c-1,1-2.2,2.2-4.6,2.2s-3.6-1.2-4.6-2.2c-0.9-0.9-1.5-1.5-2.9-1.5s-2,0.6-2.9,1.5	c-1,1-2.2,2.2-4.6,2.2s-3.6-1.2-4.6-2.2c-0.9-0.9-1.5-1.5-2.9-1.5s-2,0.6-2.9,1.5c-1,1-2.2,2.2-4.6,2.2s-3.6-1.2-4.6-2.2	c-0.9-0.9-1.5-1.5-2.9-1.5s-2,0.6-2.9,1.5c-1,1-2.2,2.2-4.6,2.2s-3.6-1.2-4.6-2.2c-0.9-0.9-1.5-1.5-2.9-1.5s-2,0.6-2.9,1.5	c-1,1-2.2,2.2-4.6,2.2s-3.6-1.2-4.6-2.2c-0.9-0.9-1.5-1.5-2.9-1.5s-2,0.6-2.9,1.5c-1,1-2.2,2.2-4.6,2.2s-3.6-1.2-4.6-2.2	c-0.9-0.9-1.5-1.5-2.9-1.5s-2,0.6-2.9,1.5c-1,1-2.2,2.2-4.6,2.2s-3.6-1.2-4.6-2.2c-0.9-0.9-1.5-1.5-2.9-1.5s-2,0.6-2.9,1.5	c-1,1-2.2,2.2-4.6,2.2c-2.4,0-3.6-1.2-4.6-2.2c-0.9-0.9-1.5-1.5-2.9-1.5s-2,0.6-2.9,1.5c-1,1-2.2,2.2-4.6,2.2	c-2.4,0-3.6-1.2-4.6-2.2c-0.9-0.9-1.5-1.5-2.9-1.5s-2,0.6-2.9,1.5c-1,1-2.2,2.2-4.6,2.2c-2.4,0-3.6-1.2-4.6-2.2	c-0.9-0.9-1.5-1.5-2.9-1.5s-2,0.6-2.9,1.5c-1,1-2.2,2.2-4.6,2.2c-2.4,0-3.6-1.2-4.6-2.2c-0.9-0.9-1.5-1.5-2.9-1.5s-2,0.6-2.9,1.5	c-1,1-2.2,2.2-4.6,2.2c-2.4,0-3.6-1.2-4.6-2.2c-0.9-0.9-1.5-1.5-2.9-1.5s-2,0.6-2.9,1.5c-1,1-2.2,2.2-4.6,2.2	c-2.4,0-3.6-1.2-4.6-2.2c-0.9-0.9-1.5-1.5-2.9-1.5s-2,0.6-2.9,1.5c-1,1-2.2,2.2-4.6,2.2c-2.4,0-3.6-1.2-4.6-2.2	c-0.9-0.9-1.5-1.5-2.9-1.5s-2,0.6-2.9,1.5c-1,1-2.2,2.2-4.6,2.2c-2.4,0-3.6-1.2-4.6-2.2c-0.9-0.9-1.5-1.5-2.9-1.5s-2,0.6-2.9,1.5	c-1,1-2.2,2.2-4.6,2.2s-3.6-1.2-4.6-2.2c-0.9-0.9-1.5-1.5-2.9-1.5s-2,0.6-2.9,1.5c-1,1-2.2,2.2-4.6,2.2s-3.6-1.2-4.6-2.2	c-0.9-0.9-1.5-1.5-2.9-1.5s-2,0.6-2.9,1.5c-1,1-2.2,2.2-4.6,2.2s-3.6-1.2-4.6-2.2c-0.9-0.9-1.5-1.5-2.9-1.5s-2,0.6-2.9,1.5	c-1,1-2.2,2.2-4.6,2.2s-3.6-1.2-4.6-2.2c-0.9-0.9-1.5-1.5-2.9-1.5s-2,0.6-2.9,1.5c-1,1-2.2,2.2-4.6,2.2s-3.6-1.2-4.6-2.2	c-0.9-0.9-1.5-1.5-2.9-1.5s-2,0.6-2.9,1.5c-1,1-2.2,2.2-4.6,2.2c-2.4,0-3.6-1.2-4.6-2.2c-0.9-0.9-1.5-1.5-2.9-1.5s-2,0.6-2.9,1.5	c-1,1-2.2,2.2-4.6,2.2c-2.4,0-3.6-1.2-4.6-2.2c-0.9-0.9-1.5-1.5-2.9-1.5s-2,0.6-2.9,1.5c-1,1-2.2,2.2-4.6,2.2s-3.6-1.2-4.6-2.2	c-0.9-0.9-1.5-1.5-2.9-1.5s-2,0.6-2.9,1.5c-1,1-2.2,2.2-4.6,2.2s-3.6-1.2-4.6-2.2c-0.9-0.9-1.5-1.5-2.9-1.5V145	c2.4,0,3.6,1.2,4.6,2.2c0.9,0.9,1.5,1.5,2.9,1.5s2-0.6,2.9-1.5c1-1,2.2-2.2,4.6-2.2s3.6,1.2,4.6,2.2c0.9,0.9,1.5,1.5,2.9,1.5	s2-0.6,2.9-1.5c1-1,2.2-2.2,4.6-2.2s3.6,1.2,4.6,2.2c0.9,0.9,1.5,1.5,2.9,1.5s2-0.6,2.9-1.5c1-1,2.2-2.2,4.6-2.2	c2.4,0,3.6,1.2,4.6,2.2c0.9,0.9,1.5,1.5,2.9,1.5s2-0.6,2.9-1.5c1-1,2.2-2.2,4.6-2.2c2.4,0,3.6,1.2,4.6,2.2c0.9,0.9,1.5,1.5,2.9,1.5	s2-0.6,2.9-1.5c1-1,2.2-2.2,4.6-2.2s3.6,1.2,4.6,2.2c0.9,0.9,1.5,1.5,2.9,1.5s2-0.6,2.9-1.5c1-1,2.2-2.2,4.6-2.2s3.6,1.2,4.6,2.2	c0.9,0.9,1.5,1.5,2.9,1.5s2-0.6,2.9-1.5c1-1,2.2-2.2,4.6-2.2s3.6,1.2,4.6,2.2c0.9,0.9,1.5,1.5,2.9,1.5s2-0.6,2.9-1.5	c1-1,2.2-2.2,4.6-2.2s3.6,1.2,4.6,2.2c0.9,0.9,1.5,1.5,2.9,1.5c1.4,0,2-0.6,2.9-1.5c1-1,2.2-2.2,4.6-2.2c2.4,0,3.6,1.2,4.6,2.2	c0.9,0.9,1.5,1.5,2.9,1.5s2-0.6,2.9-1.5c1-1,2.2-2.2,4.6-2.2c2.4,0,3.6,1.2,4.6,2.2c0.9,0.9,1.5,1.5,2.9,1.5s2-0.6,2.9-1.5	c1-1,2.2-2.2,4.6-2.2c2.4,0,3.6,1.2,4.6,2.2c0.9,0.9,1.5,1.5,2.9,1.5s2-0.6,2.9-1.5c1-1,2.2-2.2,4.6-2.2c2.4,0,3.6,1.2,4.6,2.2	c0.9,0.9,1.5,1.5,2.9,1.5s2-0.6,2.9-1.5c1-1,2.2-2.2,4.6-2.2c2.4,0,3.6,1.2,4.6,2.2c0.9,0.9,1.5,1.5,2.9,1.5s2-0.6,2.9-1.5	c1-1,2.2-2.2,4.6-2.2c2.4,0,3.6,1.2,4.6,2.2c0.9,0.9,1.5,1.5,2.9,1.5s2-0.6,2.9-1.5c1-1,2.2-2.2,4.6-2.2c2.4,0,3.6,1.2,4.6,2.2	c0.9,0.9,1.5,1.5,2.9,1.5s2-0.6,2.9-1.5c1-1,2.2-2.2,4.6-2.2c2.4,0,3.6,1.2,4.6,2.2c0.9,0.9,1.5,1.5,2.9,1.5s2-0.6,2.9-1.5	c1-1,2.2-2.2,4.6-2.2s3.6,1.2,4.6,2.2c0.9,0.9,1.5,1.5,2.9,1.5s2-0.6,2.9-1.5c1-1,2.2-2.2,4.6-2.2s3.6,1.2,4.6,2.2	c0.9,0.9,1.5,1.5,2.9,1.5s2-0.6,2.9-1.5c1-1,2.2-2.2,4.6-2.2s3.6,1.2,4.6,2.2c0.9,0.9,1.5,1.5,2.9,1.5s2-0.6,2.9-1.5	c1-1,2.2-2.2,4.6-2.2s3.6,1.2,4.6,2.2c0.9,0.9,1.5,1.5,2.9,1.5s2-0.6,2.9-1.5c1-1,2.2-2.2,4.6-2.2s3.6,1.2,4.6,2.2	c0.9,0.9,1.5,1.5,2.9,1.5s2-0.6,2.9-1.5c1-1,2.2-2.2,4.6-2.2s3.6,1.2,4.6,2.2c0.9,0.9,1.5,1.5,2.9,1.5s2-0.6,2.9-1.5	c1-1,2.2-2.2,4.6-2.2s3.6,1.2,4.6,2.2c0.9,0.9,1.5,1.5,2.9,1.5s2-0.6,2.9-1.5c1-1,2.2-2.2,4.6-2.2s3.6,1.2,4.6,2.2	c0.9,0.9,1.5,1.5,2.9,1.5s2-0.6,2.9-1.5c1-1,2.2-2.2,4.6-2.2s3.6,1.2,4.6,2.2c0.9,0.9,1.5,1.5,2.9,1.5s2-0.6,2.9-1.5	c1-1,2.2-2.2,4.6-2.2s3.6,1.2,4.6,2.2c0.9,0.9,1.5,1.5,2.9,1.5s2-0.6,2.9-1.5c1-1,2.2-2.2,4.6-2.2s3.6,1.2,4.6,2.2	c0.9,0.9,1.5,1.5,2.9,1.5s2-0.6,2.9-1.5c1-1,2.2-2.2,4.6-2.2s3.6,1.2,4.6,2.2c0.9,0.9,1.5,1.5,2.9,1.5s2-0.6,2.9-1.5	c1-1,2.2-2.2,4.6-2.2s3.6,1.2,4.6,2.2c0.9,0.9,1.5,1.5,2.9,1.5s2-0.6,2.9-1.5c1-1,2.2-2.2,4.6-2.2s3.6,1.2,4.6,2.2	c0.9,0.9,1.5,1.5,2.9,1.5s2-0.6,2.9-1.5c1-1,2.2-2.2,4.6-2.2s3.6,1.2,4.6,2.2c0.9,0.9,1.5,1.5,2.9,1.5s2-0.6,2.9-1.5	c1-1,2.2-2.2,4.6-2.2s3.6,1.2,4.6,2.2c0.9,0.9,1.5,1.5,2.9,1.5s2-0.6,2.9-1.5c1-1,2.2-2.2,4.6-2.2s3.6,1.2,4.6,2.2	c0.9,0.9,1.5,1.5,2.9,1.5s2-0.6,2.9-1.5c1-1,2.2-2.2,4.6-2.2s3.6,1.2,4.6,2.2c0.9,0.9,1.5,1.5,2.9,1.5s2-0.6,2.9-1.5	c1-1,2.2-2.2,4.6-2.2c2.4,0,3.6,1.2,4.6,2.2c0.9,0.9,1.5,1.5,2.9,1.5s2-0.6,2.9-1.5c1-1,2.2-2.2,4.6-2.2c2.4,0,3.6,1.2,4.6,2.2	c0.9,0.9,1.5,1.5,2.9,1.5s2-0.6,2.9-1.5c1-1,2.2-2.2,4.6-2.2s3.6,1.2,4.6,2.2c0.9,0.9,1.5,1.5,2.9,1.5s2-0.6,2.9-1.5	c1-1,2.2-2.2,4.6-2.2s3.6,1.2,4.6,2.2c0.9,0.9,1.5,1.5,2.9,1.5s2-0.6,2.9-1.5c1-1,2.2-2.2,4.6-2.2c2.4,0,3.6,1.2,4.6,2.2	c0.9,0.9,1.5,1.5,2.9,1.5s2-0.6,2.9-1.5c1-1,2.2-2.2,4.6-2.2c2.4,0,3.6,1.2,4.6,2.2c0.9,0.9,1.5,1.5,2.9,1.5s2-0.6,2.9-1.5	c1-1,2.2-2.2,4.6-2.2s3.6,1.2,4.6,2.2c0.9,0.9,1.5,1.5,2.9,1.5s2-0.6,2.9-1.5c1-1,2.2-2.2,4.6-2.2s3.6,1.2,4.6,2.2	c0.9,0.9,1.5,1.5,2.9,1.5s2-0.6,2.9-1.5c1-1,2.2-2.2,4.6-2.2c2.4,0,3.6,1.2,4.6,2.2c0.9,0.9,1.5,1.5,2.9,1.5s2-0.6,2.9-1.5	c1-1,2.2-2.2,4.6-2.2c2.4,0,3.6,1.2,4.6,2.2c0.9,0.9,1.5,1.5,2.9,1.5s2-0.6,2.9-1.5c1-1,2.2-2.2,4.6-2.2c2.4,0,3.6,1.2,4.6,2.2	c0.9,0.9,1.5,1.5,2.9,1.5s2-0.6,2.9-1.5c1-1,2.2-2.2,4.6-2.2c2.4,0,3.6,1.2,4.6,2.2c0.9,0.9,1.5,1.5,2.9,1.5s2-0.6,2.9-1.5	c1-1,2.2-2.2,4.6-2.2c2.4,0,3.6,1.2,4.6,2.2c0.9,0.9,1.5,1.5,2.9,1.5s2-0.6,2.9-1.5c1-1,2.2-2.2,4.6-2.2c2.4,0,3.6,1.2,4.6,2.2	c0.9,0.9,1.5,1.5,2.9,1.5s2-0.6,2.9-1.5c1-1,2.2-2.2,4.6-2.2c2.4,0,3.6,1.2,4.6,2.2c0.9,0.9,1.5,1.5,2.9,1.5s2-0.6,2.9-1.5	c1-1,2.2-2.2,4.6-2.2c2.4,0,3.6,1.2,4.6,2.2c0.9,0.9,1.5,1.5,2.9,1.5s2-0.6,2.9-1.5c1-1,2.2-2.2,4.6-2.2c2.4,0,3.6,1.2,4.6,2.2	c0.9,0.9,1.5,1.5,2.9,1.5s2-0.6,2.9-1.5c1-1,2.2-2.2,4.6-2.2c2.4,0,3.6,1.2,4.6,2.2c0.9,0.9,1.5,1.5,2.9,1.5s2-0.6,2.9-1.5	c1-1,2.2-2.2,4.6-2.2c2.4,0,3.6,1.2,4.6,2.2c0.9,0.9,1.5,1.5,2.9,1.5s2-0.6,2.9-1.5c1-1,2.2-2.2,4.6-2.2c2.4,0,3.6,1.2,4.6,2.2	c0.9,0.9,1.5,1.5,2.9,1.5s2-0.6,2.9-1.5c1-1,2.2-2.2,4.6-2.2c2.4,0,3.6,1.2,4.6,2.2c0.9,0.9,1.5,1.5,2.9,1.5s2-0.6,2.9-1.5	c1-1,2.2-2.2,4.6-2.2c2.4,0,3.6,1.2,4.6,2.2c0.9,0.9,1.5,1.5,2.9,1.5s2-0.6,2.9-1.5c1-1,2.2-2.2,4.6-2.2s3.6,1.2,4.6,2.2	c0.9,0.9,1.5,1.5,2.9,1.5s2-0.6,2.9-1.5c1-1,2.2-2.2,4.6-2.2s3.6,1.2,4.6,2.2c0.9,0.9,1.5,1.5,2.9,1.5s2-0.6,2.9-1.5	c1-1,2.2-2.2,4.6-2.2c2.4,0,3.6,1.2,4.6,2.2c0.9,0.9,1.5,1.5,2.9,1.5s2-0.6,2.9-1.5c1-1,2.2-2.2,4.6-2.2c2.4,0,3.6,1.2,4.6,2.2	c0.9,0.9,1.5,1.5,2.9,1.5s2-0.6,2.9-1.5c1-1,2.2-2.2,4.6-2.2s3.6,1.2,4.6,2.2c0.9,0.9,1.5,1.5,2.9,1.5s2-0.6,2.9-1.5	c1-1,2.2-2.2,4.6-2.2s3.6,1.2,4.6,2.2c0.9,0.9,1.5,1.5,2.9,1.5s2-0.6,2.9-1.5c1-1,2.2-2.2,4.6-2.2c2.4,0,3.6,1.2,4.6,2.2	c0.9,0.9,1.5,1.5,2.9,1.5s2-0.6,2.9-1.5c1-1,2.2-2.2,4.6-2.2c2.4,0,3.6,1.2,4.6,2.2c0.9,0.9,1.5,1.5,2.9,1.5s2-0.6,2.9-1.5	c1-1,2.2-2.2,4.6-2.2c2.4,0,3.6,1.2,4.6,2.2c0.9,0.9,1.5,1.5,2.9,1.5s2-0.6,2.9-1.5c1-1,2.2-2.2,4.6-2.2c2.4,0,3.6,1.2,4.6,2.2	c0.9,0.9,1.5,1.5,2.9,1.5s2-0.6,2.9-1.5c1-1,2.2-2.2,4.6-2.2c2.4,0,3.6,1.2,4.6,2.2c0.9,0.9,1.5,1.5,2.9,1.5s2-0.6,2.9-1.5	c1-1,2.2-2.2,4.6-2.2s3.6,1.2,4.6,2.2c0.9,0.9,1.5,1.5,2.9,1.5s2-0.6,2.9-1.5c1-1,2.2-2.2,4.6-2.2s3.6,1.2,4.6,2.2	c0.9,0.9,1.5,1.5,2.9,1.5s2-0.6,2.9-1.5c1-1,2.2-2.2,4.6-2.2s3.6,1.2,4.6,2.2c0.9,0.9,1.5,1.5,2.9,1.5s2-0.6,2.9-1.5	c1-1,2.2-2.2,4.6-2.2s3.6,1.2,4.6,2.2c0.9,0.9,1.5,1.5,2.9,1.5s2-0.6,2.9-1.5c1-1,2.2-2.2,4.6-2.2s3.6,1.2,4.6,2.2	c0.9,0.9,1.5,1.5,2.9,1.5s2-0.6,2.9-1.5c1-1,2.2-2.2,4.6-2.2s3.6,1.2,4.6,2.2c0.9,0.9,1.5,1.5,2.9,1.5s2-0.6,2.9-1.5	c1-1,2.2-2.2,4.6-2.2s3.6,1.2,4.6,2.2c0.9,0.9,1.5,1.5,2.9,1.5s2-0.6,2.9-1.5c1-1,2.2-2.2,4.6-2.2s3.6,1.2,4.6,2.2	c0.9,0.9,1.5,1.5,2.9,1.5s2-0.6,2.9-1.5c1-1,2.2-2.2,4.6-2.2s3.6,1.2,4.6,2.2c0.9,0.9,1.5,1.5,2.9,1.5s2-0.6,2.9-1.5	c1-1,2.2-2.2,4.6-2.2s3.6,1.2,4.6,2.2c0.9,0.9,1.5,1.5,2.9,1.5s2-0.6,2.9-1.5c1-1,2.2-2.2,4.6-2.2s3.6,1.2,4.6,2.2	c0.9,0.9,1.5,1.5,2.9,1.5s2-0.6,2.9-1.5c1-1,2.2-2.2,4.6-2.2s3.6,1.2,4.6,2.2c0.9,0.9,1.5,1.5,2.9,1.5s2-0.6,2.9-1.5	c1-1,2.2-2.2,4.6-2.2s3.6,1.2,4.6,2.2c0.9,0.9,1.5,1.5,2.9,1.5s2-0.6,2.9-1.5c1-1,2.2-2.2,4.6-2.2s3.6,1.2,4.6,2.2	c0.9,0.9,1.5,1.5,2.9,1.5s2-0.6,2.9-1.5c1-1,2.2-2.2,4.6-2.2s3.6,1.2,4.6,2.2c0.9,0.9,1.5,1.5,2.9,1.5s2-0.6,2.9-1.5	c1-1,2.2-2.2,4.6-2.2s3.6,1.2,4.6,2.2c0.9,0.9,1.5,1.5,2.9,1.5s2-0.6,2.9-1.5c1-1,2.2-2.2,4.6-2.2L1260,147.3L1260,147.3z"/>
  <path class="st7" d="M1260,142.6c-1.1,0.3-2.3,0.4-3.8,0.4c-6,0-9-3-11.5-5.5c-2.2-2.3-3.8-3.8-7.2-3.8c-3.5,0-5,1.5-7.3,3.8	c-2.5,2.5-5.5,5.5-11.5,5.5s-9-3-11.5-5.5c-2.2-2.3-3.8-3.8-7.2-3.8c-3.5,0-5,1.5-7.3,3.8c-2.5,2.5-5.5,5.5-11.5,5.5s-9-3-11.5-5.5	c-2.2-2.3-3.8-3.8-7.2-3.8c-3.5,0-5,1.5-7.3,3.8c-2.5,2.5-5.5,5.5-11.5,5.5s-9-3-11.5-5.5c-2.2-2.3-3.8-3.8-7.2-3.8	c-3.5,0-5,1.5-7.3,3.8c-2.5,2.5-5.5,5.5-11.5,5.5s-9-3-11.5-5.5c-2.2-2.3-3.8-3.8-7.2-3.8c-3.5,0-5,1.5-7.3,3.8	c-2.5,2.5-5.5,5.5-11.5,5.5s-9-3-11.5-5.5c-2.2-2.3-3.8-3.8-7.2-3.8c-3.5,0-5,1.5-7.3,3.8c-2.5,2.5-5.5,5.5-11.5,5.5s-9-3-11.5-5.5	c-2.2-2.3-3.8-3.8-7.2-3.8c-3.5,0-5,1.5-7.3,3.8c-2.5,2.5-5.5,5.5-11.5,5.5s-9-3-11.5-5.5c-2.2-2.3-3.8-3.8-7.2-3.8	c-3.5,0-5,1.5-7.3,3.8c-2.5,2.5-5.5,5.5-11.5,5.5s-9-3-11.5-5.5c-2.2-2.3-3.8-3.8-7.2-3.8c-3.5,0-5,1.5-7.3,3.8	c-2.5,2.5-5.5,5.5-11.5,5.5s-9-3-11.5-5.5c-2.2-2.3-3.8-3.8-7.2-3.8c-3.5,0-5,1.5-7.3,3.8c-2.5,2.5-5.5,5.5-11.5,5.5s-9-3-11.5-5.5	c-2.2-2.3-3.8-3.8-7.2-3.8c-3.5,0-5,1.5-7.3,3.8c-2.5,2.5-5.5,5.5-11.5,5.5s-9-3-11.5-5.5c-2.2-2.3-3.8-3.8-7.2-3.8	c-3.5,0-5,1.5-7.3,3.8c-2.5,2.5-5.5,5.5-11.5,5.5s-9-3-11.5-5.5c-2.2-2.3-3.8-3.8-7.2-3.8c-3.5,0-5,1.5-7.3,3.8	c-2.5,2.5-5.5,5.5-11.5,5.5s-9-3-11.5-5.5c-2.2-2.3-3.8-3.8-7.2-3.8c-3.5,0-5,1.5-7.3,3.8c-2.5,2.5-5.5,5.5-11.5,5.5s-9-3-11.5-5.5	c-2.2-2.3-3.8-3.8-7.2-3.8c-3.5,0-5,1.5-7.3,3.8c-2.5,2.5-5.5,5.5-11.5,5.5s-9-3-11.5-5.5c-2.2-2.3-3.8-3.8-7.2-3.8	c-3.5,0-5,1.5-7.3,3.8c-2.5,2.5-5.5,5.5-11.5,5.5s-9-3-11.5-5.5c-2.2-2.3-3.8-3.8-7.2-3.8c-3.5,0-5,1.5-7.3,3.8	c-2.5,2.5-5.5,5.5-11.5,5.5s-9-3-11.5-5.5c-2.2-2.3-3.8-3.8-7.2-3.8c-3.5,0-5,1.5-7.3,3.8c-2.5,2.5-5.5,5.5-11.5,5.5s-9-3-11.5-5.5	c-2.2-2.3-3.8-3.8-7.2-3.8c-3.5,0-5,1.5-7.3,3.8c-2.5,2.5-5.5,5.5-11.5,5.5s-9-3-11.5-5.5c-2.2-2.3-3.8-3.8-7.2-3.8	c-3.5,0-5,1.5-7.3,3.8c-2.5,2.5-5.5,5.5-11.5,5.5s-9-3-11.5-5.5c-2.2-2.3-3.8-3.8-7.2-3.8c-3.5,0-5,1.5-7.3,3.8	c-2.5,2.5-5.5,5.5-11.5,5.5s-9-3-11.5-5.5c-2.2-2.3-3.8-3.8-7.2-3.8c-3.5,0-5,1.5-7.3,3.8c-2.5,2.5-5.5,5.5-11.5,5.5s-9-3-11.5-5.5	c-2.2-2.3-3.8-3.8-7.2-3.8c-3.5,0-5,1.5-7.3,3.8c-2.5,2.5-5.5,5.5-11.5,5.5s-9-3-11.5-5.5c-2.2-2.3-3.8-3.8-7.2-3.8	c-3.5,0-5,1.5-7.3,3.8c-2.5,2.5-5.5,5.5-11.5,5.5s-9-3-11.5-5.5c-2.2-2.3-3.8-3.8-7.2-3.8c-3.5,0-5,1.5-7.3,3.8	c-2.5,2.5-5.5,5.5-11.5,5.5s-9-3-11.5-5.5c-2.2-2.3-3.8-3.8-7.2-3.8c-3.5,0-5,1.5-7.3,3.8c-2.5,2.5-5.5,5.5-11.5,5.5s-9-3-11.5-5.5	c-2.2-2.3-3.8-3.8-7.2-3.8c-3.5,0-5,1.5-7.3,3.8c-2.5,2.5-5.5,5.5-11.5,5.5s-9-3-11.5-5.5c-2.2-2.3-3.8-3.8-7.2-3.8	c-3.5,0-5,1.5-7.3,3.8c-2.5,2.5-5.5,5.5-11.5,5.5s-9-3-11.5-5.5c-2.2-2.3-3.8-3.8-7.2-3.8c-3.5,0-5,1.5-7.3,3.8	c-2.5,2.5-5.5,5.5-11.5,5.5s-9-3-11.5-5.5c-2.2-2.3-3.8-3.8-7.2-3.8c-3.5,0-5,1.5-7.3,3.8c-2.5,2.5-5.5,5.5-11.5,5.5s-9-3-11.5-5.5	c-2.2-2.3-3.8-3.8-7.2-3.8c-3.5,0-5,1.5-7.3,3.8c-2.5,2.5-5.5,5.5-11.5,5.5s-9-3-11.5-5.5c-2.2-2.3-3.8-3.8-7.2-3.8	c-3.5,0-5,1.5-7.3,3.8c-2.5,2.5-5.5,5.5-11.5,5.5s-9-3-11.5-5.5c-2.2-2.3-3.8-3.8-7.2-3.8c-3.5,0-5,1.5-7.3,3.8	c-2.5,2.5-5.5,5.5-11.5,5.5s-9-3-11.5-5.5c-2.2-2.3-3.8-3.8-7.2-3.8V128c6,0,9,3,11.5,5.5c2.3,2.3,3.8,3.8,7.3,3.8s5-1.5,7.2-3.8	c2.5-2.5,5.5-5.5,11.5-5.5s9,3,11.5,5.5c2.3,2.3,3.8,3.8,7.3,3.8s5-1.5,7.2-3.8C66,131,69,128,75,128s9,3,11.5,5.5	c2.3,2.3,3.8,3.8,7.3,3.8s5-1.5,7.2-3.8c2.5-2.5,5.5-5.5,11.5-5.5s9,3,11.5,5.5c2.3,2.3,3.8,3.8,7.3,3.8s5-1.5,7.2-3.8	C141,131,144,128,150,128s9,3,11.5,5.5c2.3,2.3,3.8,3.8,7.3,3.8s5-1.5,7.2-3.8c2.5-2.5,5.5-5.5,11.5-5.5s9,3,11.5,5.5	c2.3,2.3,3.8,3.8,7.3,3.8s5-1.5,7.2-3.8C216,131,219,128,225,128s9,3,11.5,5.5c2.3,2.3,3.8,3.8,7.3,3.8s5-1.5,7.2-3.8	c2.5-2.5,5.5-5.5,11.5-5.5s9,3,11.5,5.5c2.3,2.3,3.8,3.8,7.3,3.8s5-1.5,7.2-3.8C291,131,294,128,300,128s9,3,11.5,5.5	c2.2,2.3,3.8,3.8,7.2,3.8c3.5,0,5-1.5,7.3-3.8c2.5-2.5,5.5-5.5,11.5-5.5s9,3,11.5,5.5c2.2,2.3,3.8,3.8,7.2,3.8c3.5,0,5-1.5,7.3-3.8	C366,131,369,128,375,128s9,3,11.5,5.5c2.2,2.3,3.8,3.8,7.2,3.8c3.5,0,5-1.5,7.3-3.8c2.5-2.5,5.5-5.5,11.5-5.5s9,3,11.5,5.5	c2.2,2.3,3.8,3.8,7.2,3.8c3.5,0,5-1.5,7.3-3.8C441,131,444,128,450,128s9,3,11.5,5.5c2.2,2.3,3.8,3.8,7.2,3.8c3.5,0,5-1.5,7.3-3.8	c2.5-2.5,5.5-5.5,11.5-5.5s9,3,11.5,5.5c2.2,2.3,3.8,3.8,7.2,3.8c3.5,0,5-1.5,7.3-3.8C516,131,519,128,525,128s9,3,11.5,5.5	c2.2,2.3,3.8,3.8,7.2,3.8c3.5,0,5-1.5,7.3-3.8c2.5-2.5,5.5-5.5,11.5-5.5s9,3,11.5,5.5c2.2,2.3,3.8,3.8,7.2,3.8c3.5,0,5-1.5,7.3-3.8	C591,131,594,128,600,128s9,3,11.5,5.5c2.2,2.3,3.8,3.8,7.2,3.8c3.5,0,5-1.5,7.3-3.8c2.5-2.5,5.5-5.5,11.5-5.5s9,3,11.5,5.5	c2.3,2.3,3.8,3.8,7.3,3.8s5-1.5,7.2-3.8C666,131,669,128,675,128s9,3,11.5,5.5c2.3,2.3,3.8,3.8,7.3,3.8s5-1.5,7.2-3.8	c2.5-2.5,5.5-5.5,11.5-5.5s9,3,11.5,5.5c2.3,2.3,3.8,3.8,7.3,3.8s5-1.5,7.2-3.8C741,131,744,128,750,128s9,3,11.5,5.5	c2.3,2.3,3.8,3.8,7.3,3.8s5-1.5,7.2-3.8c2.5-2.5,5.5-5.5,11.5-5.5s9,3,11.5,5.5c2.3,2.3,3.8,3.8,7.3,3.8s5-1.5,7.2-3.8	C816,131,819,128,825,128s9,3,11.5,5.5c2.3,2.3,3.8,3.8,7.3,3.8s5-1.5,7.2-3.8c2.5-2.5,5.5-5.5,11.5-5.5s9,3,11.5,5.5	c2.3,2.3,3.8,3.8,7.3,3.8s5-1.5,7.2-3.8C891,131,894,128,900,128s9,3,11.5,5.5c2.3,2.3,3.8,3.8,7.3,3.8s5-1.5,7.2-3.8	c2.5-2.5,5.5-5.5,11.5-5.5s9,3,11.5,5.5c2.3,2.3,3.8,3.8,7.3,3.8s5-1.5,7.2-3.8C966,131,969,128,975,128s9,3,11.5,5.5	c2.3,2.3,3.8,3.8,7.3,3.8s5-1.5,7.2-3.8c2.5-2.5,5.5-5.5,11.5-5.5s9,3,11.5,5.5c2.3,2.3,3.8,3.8,7.3,3.8s5-1.5,7.2-3.8	c2.5-2.5,5.5-5.5,11.5-5.5s9,3,11.5,5.5c2.3,2.3,3.8,3.8,7.3,3.8s5-1.5,7.2-3.8c2.5-2.5,5.5-5.5,11.5-5.5s9,3,11.5,5.5	c2.3,2.3,3.8,3.8,7.3,3.8s5-1.5,7.2-3.8c2.5-2.5,5.5-5.5,11.5-5.5s9,3,11.5,5.5c2.3,2.3,3.8,3.8,7.3,3.8s5-1.5,7.2-3.8	c2.5-2.5,5.5-5.5,11.5-5.5s9,3,11.5,5.5c2.3,2.3,3.8,3.8,7.3,3.8s5-1.5,7.2-3.8c2.5-2.5,5.5-5.5,11.5-5.5s9,3,11.5,5.5	c2.3,2.3,3.8,3.8,7.3,3.8s5-1.5,7.2-3.8c2.5-2.5,5.5-5.5,11.5-5.5s9,3,11.5,5.5c2.3,2.3,3.8,3.8,7.3,3.8c1.6,0,2.7-0.3,3.8-0.8	L1260,142.6z"/>
  <path class="st7" d="M1260,124.2c-2.5,1.1-5.4,1.8-9.1,1.8c-9.3,0-14-4.6-17.8-8.4c-3.5-3.5-5.8-5.8-11.2-5.8	c-5.4,0-7.8,2.3-11.2,5.8c-3.9,3.8-8.5,8.4-17.8,8.4s-14-4.6-17.8-8.4c-3.5-3.5-5.8-5.8-11.2-5.8c-5.4,0-7.8,2.3-11.2,5.8	c-3.9,3.8-8.5,8.4-17.8,8.4s-14-4.6-17.8-8.4c-3.5-3.5-5.8-5.8-11.2-5.8c-5.4,0-7.8,2.3-11.2,5.8c-3.9,3.8-8.5,8.4-17.8,8.4	s-14-4.6-17.8-8.4c-3.5-3.5-5.8-5.8-11.2-5.8c-5.4,0-7.8,2.3-11.2,5.8c-3.9,3.8-8.5,8.4-17.8,8.4s-14-4.6-17.8-8.4	c-3.5-3.5-5.8-5.8-11.2-5.8s-7.8,2.3-11.2,5.8c-3.9,3.8-8.5,8.4-17.8,8.4s-14-4.6-17.8-8.4c-3.5-3.5-5.8-5.8-11.2-5.8	s-7.8,2.3-11.2,5.8c-3.9,3.8-8.5,8.4-17.8,8.4s-14-4.6-17.8-8.4c-3.5-3.5-5.8-5.8-11.2-5.8s-7.8,2.3-11.2,5.8	c-3.9,3.8-8.5,8.4-17.8,8.4s-14-4.6-17.8-8.4c-3.5-3.5-5.8-5.8-11.2-5.8s-7.8,2.3-11.2,5.8c-3.9,3.8-8.5,8.4-17.8,8.4	s-14-4.6-17.8-8.4c-3.5-3.5-5.8-5.8-11.2-5.8s-7.8,2.3-11.2,5.8c-3.9,3.8-8.5,8.4-17.8,8.4s-14-4.6-17.8-8.4	c-3.5-3.5-5.8-5.8-11.2-5.8s-7.8,2.3-11.2,5.8c-3.9,3.8-8.5,8.4-17.8,8.4s-14-4.6-17.8-8.4c-3.5-3.5-5.8-5.8-11.2-5.8	s-7.8,2.3-11.2,5.8c-3.9,3.8-8.5,8.4-17.8,8.4s-14-4.6-17.8-8.4c-3.5-3.5-5.8-5.8-11.2-5.8s-7.8,2.3-11.2,5.8	c-3.9,3.8-8.5,8.4-17.8,8.4s-14-4.6-17.8-8.4c-3.5-3.5-5.8-5.8-11.2-5.8s-7.8,2.3-11.2,5.8c-3.9,3.8-8.5,8.4-17.8,8.4	s-14-4.6-17.8-8.4c-3.5-3.5-5.8-5.8-11.2-5.8c-5.4,0-7.8,2.3-11.2,5.8c-3.9,3.8-8.5,8.4-17.8,8.4s-14-4.6-17.8-8.4	c-3.5-3.5-5.8-5.8-11.2-5.8c-5.4,0-7.8,2.3-11.2,5.8c-3.9,3.8-8.5,8.4-17.8,8.4s-14-4.6-17.8-8.4c-3.5-3.5-5.8-5.8-11.2-5.8	c-5.4,0-7.8,2.3-11.2,5.8c-3.9,3.8-8.5,8.4-17.8,8.4s-14-4.6-17.8-8.4c-3.5-3.5-5.8-5.8-11.2-5.8c-5.4,0-7.8,2.3-11.2,5.8	c-3.9,3.8-8.5,8.4-17.8,8.4c-9.3,0-14-4.6-17.8-8.4c-3.5-3.5-5.8-5.8-11.2-5.8s-7.8,2.3-11.2,5.8c-3.9,3.8-8.5,8.4-17.8,8.4	s-14-4.6-17.8-8.4c-3.5-3.5-5.8-5.8-11.2-5.8s-7.8,2.3-11.2,5.8c-3.9,3.8-8.5,8.4-17.8,8.4s-14-4.6-17.8-8.4	c-3.5-3.5-5.8-5.8-11.2-5.8c-5.4,0-7.8,2.3-11.2,5.8c-3.9,3.8-8.5,8.4-17.8,8.4s-14-4.6-17.8-8.4c-3.5-3.5-5.8-5.8-11.2-5.8	s-7.8,2.3-11.2,5.8c-3.9,3.8-8.5,8.4-17.8,8.4s-14-4.6-17.8-8.4c-3.5-3.5-5.8-5.8-11.2-5.8V103c9.3,0,14,4.6,17.8,8.4	c3.5,3.5,5.8,5.8,11.2,5.8s7.8-2.3,11.2-5.8c3.9-3.8,8.5-8.4,17.8-8.4s14,4.6,17.8,8.4c3.5,3.5,5.8,5.8,11.2,5.8	c5.4,0,7.8-2.3,11.2-5.8c3.9-3.8,8.5-8.4,17.8-8.4s14,4.6,17.8,8.4c3.5,3.5,5.8,5.8,11.2,5.8s7.8-2.3,11.2-5.8	c3.9-3.8,8.5-8.4,17.8-8.4s14,4.6,17.8,8.4c3.5,3.5,5.8,5.8,11.2,5.8s7.8-2.3,11.2-5.8c3.9-3.8,8.5-8.4,17.8-8.4s14,4.6,17.8,8.4	c3.5,3.5,5.8,5.8,11.2,5.8c5.4,0,7.8-2.3,11.2-5.8c3.9-3.8,8.5-8.4,17.8-8.4s14,4.6,17.8,8.4c3.5,3.5,5.8,5.8,11.2,5.8	c5.4,0,7.8-2.3,11.2-5.8c3.9-3.8,8.5-8.4,17.8-8.4s14,4.6,17.8,8.4c3.5,3.5,5.8,5.8,11.2,5.8c5.4,0,7.8-2.3,11.2-5.8	c3.9-3.8,8.5-8.4,17.8-8.4s14,4.6,17.8,8.4c3.5,3.5,5.8,5.8,11.2,5.8c5.4,0,7.8-2.3,11.2-5.8c3.9-3.8,8.5-8.4,17.8-8.4	s14,4.6,17.8,8.4c3.5,3.5,5.8,5.8,11.2,5.8c5.4,0,7.8-2.3,11.2-5.8c3.9-3.8,8.5-8.4,17.8-8.4s14,4.6,17.8,8.4	c3.5,3.5,5.8,5.8,11.2,5.8s7.8-2.3,11.2-5.8c3.9-3.8,8.5-8.4,17.8-8.4s14,4.6,17.8,8.4c3.5,3.5,5.8,5.8,11.2,5.8s7.8-2.3,11.2-5.8	c3.9-3.8,8.5-8.4,17.8-8.4s14,4.6,17.8,8.4c3.5,3.5,5.8,5.8,11.2,5.8s7.8-2.3,11.2-5.8c3.9-3.8,8.5-8.4,17.8-8.4s14,4.6,17.8,8.4	c3.5,3.5,5.8,5.8,11.2,5.8s7.8-2.3,11.2-5.8c3.9-3.8,8.5-8.4,17.8-8.4s14,4.6,17.8,8.4c3.5,3.5,5.8,5.8,11.2,5.8s7.8-2.3,11.2-5.8	c3.9-3.8,8.5-8.4,17.8-8.4s14,4.6,17.8,8.4c3.5,3.5,5.8,5.8,11.2,5.8s7.8-2.3,11.2-5.8c3.9-3.8,8.5-8.4,17.8-8.4s14,4.6,17.8,8.4	c3.5,3.5,5.8,5.8,11.2,5.8s7.8-2.3,11.2-5.8c3.9-3.8,8.5-8.4,17.8-8.4s14,4.6,17.8,8.4c3.5,3.5,5.8,5.8,11.2,5.8s7.8-2.3,11.2-5.8	c3.9-3.8,8.5-8.4,17.8-8.4s14,4.6,17.8,8.4c3.5,3.5,5.8,5.8,11.2,5.8c5.4,0,7.8-2.3,11.2-5.8c3.9-3.8,8.5-8.4,17.8-8.4	s14,4.6,17.8,8.4c3.5,3.5,5.8,5.8,11.2,5.8c5.4,0,7.8-2.3,11.2-5.8c3.9-3.8,8.5-8.4,17.8-8.4s14,4.6,17.8,8.4	c3.5,3.5,5.8,5.8,11.2,5.8c5.4,0,7.8-2.3,11.2-5.8c3.9-3.8,8.5-8.4,17.8-8.4s14,4.6,17.8,8.4c3.5,3.5,5.8,5.8,11.2,5.8	c5.4,0,7.8-2.3,11.2-5.8c3.9-3.8,8.5-8.4,17.8-8.4s14,4.6,17.8,8.4c3.5,3.5,5.8,5.8,11.2,5.8c4.2,0,6.6-1.4,9.1-3.7L1260,124.2z"/>
  <path class="st3" d="M1260,244h-58.7H0v-34c15.4,0,15.4,14,30.9,14c15.4,0,15.4-14,30.9-14c15.4,0,15.4,14,30.9,14	c15.4,0,15.4-14,30.9-14c15.4,0,15.4,14,30.9,14s15.4-14,30.9-14c15.4,0,15.4,14,30.9,14c15.3,0,15.3-14,30.7-14s15.4,14,30.9,14	c15.4,0,15.4-14,30.9-14c15.4,0,15.4,14,30.9,14c15.4,0,15.4-14,30.9-14c15.4,0,15.4,14,30.9,14c15.4,0,15.4-14,30.9-14	c15.4,0,15.4,14,30.9,14c15.4,0,15.4-14,30.9-14c15.3,0,15.3,14,30.8,14c15.3,0,15.3-14,30.8-14c15.3,0,15.3,14,30.8,14	c15.3,0,15.3-14,30.8-14s15.4,14,30.9,14c15.3,0,15.3-14,30.8-14c15.3,0,15.3,14,30.8,14c15.3,0,15.4-14,30.8-14s15.3,14,30.8,14	c15.3,0,15.3-14,30.8-14c15.4,0,15.4,14,30.9,14c15.3,0,15.3-14,30.8-14s15.5,14,30.9,14s15.3-14,30.8-14c15.3,0,15.4,14,30.8,14	s15.3-14,30.8-14c15.3,0,15.3,14,30.8,14c15.3,0,15.3-14,30.8-14s15.4,14,30.9,14c15.3,0,15.4-14,30.8-14c15.3,0,15.4,14,30.7,14	c15.3,0,15.3-14,30.8-14c15.3,0,15.3,14,30.8,14s15.4-14,30.9-14c14.4,0,15.4,12.1,27.9,13.8L1260,244z"/>
</svg>
