<svg version="1.1" id="Layer_1" xmlns="http://www.w3.org/2000/svg" xmlns:xlink="http://www.w3.org/1999/xlink" x="0px" y="0px" width="23.5px" height="20.2px" viewBox="0 0 23.5 20.2" enable-background="new 0 0 23.5 20.2" xml:space="preserve">
  <path d="M23.5,4.1c-0.2-0.4-0.9-0.3-1.4-0.4h-1.1c0.1-0.4,0.3-0.6,0.5-1c0.1-0.4,0.3-0.7,0.2-1.3 c0.1-0.2,0.2-0.4,0.3-0.6c0.1-0.1,0.2-0.5,0.1-0.7C22,0,21.7,0,21.5,0c-0.1,0-0.2,0.1-0.2,0.1c-0.4,0.4-0.8,1-1.3,1.4 c0,0-0.1,0-0.1,0c-0.1,0,0,0-0.1,0.1c-0.1,0.1-0.3,0.2-0.4,0.2c-0.3,0.2-0.5,0.4-0.9,0.5C18,2.2,17.4,2.1,16.7,2 c-1.2,0.1-2.3,0.2-3,0.7c-0.9,0.3-1.5,1-2.1,1.6c0,0.3-0.3,0.4-0.4,0.7c0,0,0,0.1-0.1,0.1c0,0.2-0.1,0.3-0.1,0.5 c0,0.1,0.2,0.4,0,0.5c-0.8-0.1-1.5-0.6-2.1-1C8.1,4.9,7.4,4.7,6.8,4.2C6.1,3.8,5.5,3.3,5,2.8C4.8,2.5,4.5,2.3,4.3,1.9 C4,1.8,4.2,1,3.6,1C3.3,1,3.2,1.2,3.2,1.4C3.1,1.6,2.8,1.6,2.8,1.9c0,0,0,0.1-0.1,0.1C2.5,3.1,2.2,4,2.2,5.3 c0.1,0.4,0.3,0.7,0.6,1C2.4,6.4,2.1,6.5,1.9,6.8C1.8,7.9,2.3,8.5,2.6,9.1c0.1,0.4,0.4,0.7,0.6,1c0,0.2,0.2,0.3,0.3,0.4 c0,0.1,0.1,0.1,0.1,0.2c0,0.1,0.3,0.2,0.1,0.2c-0.4,0.1-1,0.1-1.3,0.4c-0.1,0.3-0.1,0.8,0,1.1c0,0.2,0.3,0.3,0.3,0.5 c0.5,0.4,1.1,0.7,1.6,1.1c0.6,0.2,1.2,0.3,1.9,0.4c-0.1,0.3-0.3,0.6-0.6,0.7c-0.8,0.4-1.8,0.5-2.7,0.7c-0.6,0-1,0.2-1.6,0.2 c-0.3,0.1-0.9,0.1-1.1,0.2c-0.1,0.1-0.1,0.1-0.2,0.2c-0.1,0.4,0.1,0.7,0.4,0.9c0,0.3,0.2,0.3,0.4,0.4c0.1,0.2,0.3,0.3,0.4,0.4 c0.5,0.5,1.3,0.8,1.9,1.1c0.8,0.2,1.6,0.4,2.5,0.5C6.6,20,7.6,20,8.6,20.1h1c0.5,0.1,1.2,0.1,1.9,0.1c0.1-0.1,0.3-0.1,0.5-0.1 c0.5-0.3,1.2-0.4,1.6-0.7c0.6-0.2,1-0.6,1.6-0.9c0.9-0.8,1.9-1.3,2.5-2.4c0.2-0.2,0.4-0.4,0.4-0.7c0.3-0.2,0.4-0.5,0.6-0.7 c0.4-0.4,0.7-0.9,1-1.4c0.3-0.5,0.6-1.1,0.9-1.6c0-0.4,0.3-0.5,0.3-0.9c0.2-0.2,0.2-0.7,0.4-0.9c0-0.3,0-0.4,0.1-0.6 c0-1.3,0-2.4-0.3-3.4c0.6-0.2,1.2-0.3,1.6-0.6C23.2,5.2,23.6,4.8,23.5,4.1z M20,8.2c-0.2,0.9-0.6,1.4-1,2c0.1,0.4-0.1,0.5-0.1,0.9 c-0.2,0.3-0.3,0.7-0.4,1c-0.2,0.3-0.3,0.6-0.5,0.9c-0.4,0.5-0.8,1.1-1.2,1.6c-0.4,0.6-0.9,1-1.3,1.5c-0.4,0.5-0.9,0.9-1.4,1.3 c-0.5,0.2-0.9,0.4-1.3,0.7c-0.2,0.1-0.5,0.2-0.7,0.3c-0.2,0.1-0.5,0.1-0.7,0.3c-1.1,0.1-2.3,0.2-3.6,0.1c-1-0.1-2.1-0.2-3-0.4 c-0.9-0.2-1.5-0.7-2.3-1c0.2-0.2,0.6-0.2,1-0.2C3.6,17,4,17.1,4,17c0.3,0.1,0.3-0.1,0.5-0.1c0.6-0.2,1.2-0.3,1.7-0.6 c0.3-0.1,0.4-0.4,0.7-0.6c0-0.2,0.1-0.3,0.2-0.4c0-0.3,0.2-0.4,0.1-0.8c0.1-0.2,0.3-0.3,0.3-0.7c-0.1-0.1-0.1-0.3-0.3-0.4 c0-0.2-0.4-0.1-0.4-0.2c-0.3,0-0.4,0-0.6-0.1c-0.2,0-0.5,0.1-0.5-0.1c-0.8,0-1.3-0.4-1.9-0.7c0.4-0.3,1-0.4,1.3-0.7 c0.5-0.1,1.1-0.1,1.1-0.7c0-0.7-0.8-0.7-1.3-0.8C4.2,9.4,3.8,8.4,3.2,7.6C3.5,7.4,3.8,7.3,4,7.1c0.5,0.1,0.5-0.3,0.7-0.5 C4.6,6.1,4.3,6,4,5.8C3.8,5.6,3.6,5.3,3.4,5c0-0.8,0-1.7,0.1-2.4c0.1,0,0.1,0,0.1,0.1c0.2,0.4,0.6,0.8,0.8,1.2 C4.9,4.3,5.3,4.8,5.9,5c0.5,0.4,1.1,0.6,1.6,1C8,6.3,8.6,6.7,9.1,7c0.7,0.2,1.1,0.7,2,0.6c0.2-0.1,0.4-0.2,0.6-0.3 c0.3-0.5-0.1-1.1,0.1-1.6c0.3-0.7,0.8-1,1.3-1.5C13.4,4,13.7,3.8,14,3.6c0.3-0.1,0.7-0.2,1-0.4c0.4,0,0.7-0.1,1-0.1h1.3 c0.2,0.1,0.5,0.1,0.7,0.1c0.2,0.1,0.4,0.3,0.7,0.4c0.8,0.7,1.3,1.7,1.4,3C19.9,7.2,20.1,7.6,20,8.2z M20.3,2.5 c-0.1,0.3-0.2,0.7-0.6,0.8c0-0.1-0.1-0.1-0.1-0.2c0-0.2,0.2-0.2,0.3-0.3C20.1,2.7,20.1,2.6,20.3,2.5C20.3,2.4,20.4,2.5,20.3,2.5z M14.9,5.6c0.2,0.1,0.3,0.3,0.5,0.4c0.1,0.2,0.3,0.3,0.6,0.4c0-0.2,0.3,0,0.4-0.2c0.2,0,0.2-0.2,0.3-0.3c0-0.5-0.1-1-0.4-1.3 C15.5,4,14.6,4.5,14.9,5.6z"/>
</svg>
